<mxfile host="Electron" agent="Mozilla/5.0 (Windows NT 10.0; Win64; x64) AppleWebKit/537.36 (KHTML, like Gecko) draw.io/25.0.1 Chrome/128.0.6613.186 Electron/32.2.6 Safari/537.36" version="25.0.1" pages="3">
  <diagram id="VCILioWAPDcCPhncbQX6" name="func_panel_macros">
    <mxGraphModel dx="1102" dy="703" grid="1" gridSize="10" guides="1" tooltips="1" connect="1" arrows="1" fold="1" page="1" pageScale="1" pageWidth="827" pageHeight="1169" math="0" shadow="0">
      <root>
        <mxCell id="0" />
        <mxCell id="1" parent="0" />
        <mxCell id="SwFvQSKPkEwR-n9te_Ng-1" value="" style="shape=image;verticalLabelPosition=bottom;labelBackgroundColor=default;verticalAlign=top;aspect=fixed;imageAspect=0;image=data:image/png,iVBORw0KGgoAAAANSUhEUgAAAosAAAE4CAYAAAAzXLlRAAAAAXNSR0IArs4c6QAAAARnQU1BAACxjwv8YQUAAAAJcEhZcwAADsMAAA7DAcdvqGQAADMCSURBVHhe7d0HeNV038bx+7RltKxSWlr2FiirIEv2kqk4EBUE5+OLeyAq4gARwQGojyjoAzgYDtyIC0RRlrL3XoVSRltKgbbQcd4kDVBKA20p9FC+H69cnJOkx3OSX5I7yT+Jq069MLcAAACATHjZ/wIAAABnISwCAADAEWERAAAAjgiLAAAAcERYBAAAgCPCIgAAABwRFgEAAOCIsAgAAABHhEUAAAA4IiwCAADAEWERAAAAjgiLAAAAcHTRwmJQYJAKFy5svwMAAMDlyLt0cMgw+3WuqVylioYNG66wsEb6559FSk5OtofgShEaWkcBAaUUExNt9/FsJfxLqFvX7rqmeUv5+fpp957d9pA0YQ0bqXPnzrrqqpqKij6oY8eO2UM8T8GCBZWSkmK/AwDgwuR6WAwJDtGQIS9o1epVCgoKMgJjQ/3z72KlpqTaYyAratcOVZs2bax/T3a1atXWkSNxRnfEHssz9e59q+655z61bNlKDRs10h4jeMXExNhDPU9QUGmNeHWUShnh9vjxRHXp2k1lypbVsmVLreHm7+l3R38dOhSrihUr6uabbtHatWuM94es4Z6kVKkAPfPMIOO7rzB+y3G7LwAAOZerYbGkf0kNeeFF7dy5Q+PefVfLli9Vj+7XqeZVtfSvERjdbrc9Js6lSZOmGjjwKRX29VNpI8gEGwHc7CpVqqxu3bprjRFUYmNj7bE9z91336Pvv/9WH3/8kSpVrqJ+/e5UcOkQbdu+TYmJCfZYnuOOfv2UdCJJr4x42dix+UcrV63UPcZvWLFyhTX8iSee1NixozVz5veaN+9PlS1TTlc3bqL58/+2hnuS+vXrGzsVtbQ7PFwHDh60+wIAkHO5FhaLFCmiwUOeV9zhw8aGdaxSUpKVkJCgVStX6sabblaF8hWs8OhJChQsoAH3P6DOnbuodes2Vle3Tl2tWr0yT4+E3nrr7doVvktTPv3UOrp1svvXCDJBpUvrxhtuso7cxsUdtv/Cs3Tr3kNrVq/Rpk0btXTpEq1du1atWrVSr163yOXy0vYd2zzqSHPP62/QihUrtHnzJuu9WcPt2rZX+O5w+fj4GHXRWh988IExJG1nx6ybFi1b6ueff7Lee5K2bVpbNRJzKEbbtm23+wIAkHO5coFLgQIFNHDgIIWUDtGSJUvUvFlz+fn5qWjRoqpevYYWL1qklkZY6HfHnfZfeIZevXqrdmioNm7ccKoz35v985JfET8dO3rUfneaeWR2xpcztG3rVo0a+ZqmTJl+Vve//03Sfffdb80TT7Fly2YNHfqiPv30Y13bqbNef320mjZtag/Ne7t371bDhg3l7e1tva9Wrbr8S5Y0+ocrImKPUlPdurpxY2uYl5eXdVRxd/iZbRo9gcvlUpWqVazT4+XKlbf7nhYcHGyNAwBAdrjq1Au74HPD5pXPTz/9rHwKFrBep6am6pVXXrY2vs8//4IxhktR0VE6FBNj9c8rNWpcpQcGPCSXd9oGM7BUKY0dM9o67XhSWIMwDXxqkPF90y7McKe4NeGD963Ac6kMef5F7TECzG+//Wb3OZMZWCpWqChvn7Rwk56vEdJv6HmDZs/+TT/88J3d99Ia+9Y7+vbrr/X3/L/sPqf5+vqqp/H9unbtrq1btxgB9xOFh4fbQ/NGyZIBenn4K0o6nqS9kRGqE1pX8/76Q5988rE1/LrrelrtFs0jpAGlAhRgjD/i1eHWqV5PUq5cOT3wwADNmvWTOnXqqFdfHXmq6Ye54/bss89o6rRp2rQx7QgqAABZkSunoePj4/XHn3NVuVJl6xTYO++M1YYN6xVtBMTwXbvUuHFj/fvvv3r33f8aY+ddu8U6oXXU8OpGmvHFF9q4YYN+nzNbq9estoem2bd/n7Zs3qydO3Za45jj79y+wwg0u+wxLr7WbdoqLi5O27Zts/ucyQwAsYdjrSNIGbsDBw4YwaCIKleurAUL5tt/cWmZF4iY0y6zaWZeGb9u3VotWrxAtWqF6o47+hlhraS2btmqEydO2GNdWmY7yr/+mqek5CSjS9asH2fq119/sYfKOj1t1rOfn69VG2ZbzP1GnaTXqFEjlStfQXv3Rth9Lr2wsDAVK1ZMf/zxh9q0aa1Vq1ZZTUFMNWvWVN26da3pv3HDRqsfAABZkSunoc1TzuaRxdp16ujVEcOtjdRJy5Yv06hRI9WsWXM99vgTKlCgoD0kbyQmJlpHvMxurRFaTObR0MZNmqps2bLWe7P/yXHM8S835m1TvH187Hee6cD+A3r7rTF6/fVRqnFVTY0e85aaNb/GHnppBQQEWEeU44/FK2L3HiNwFVfrVm3O6MwLjSL2ROhw3GH52KerTWZb3MGDn9eTTw6y6igvVataVdu3b7d2GuLjE07Vs6lq1SpWGDcvfuFUNAAgOy44LJYqVUovvjRMxYoX18vDXtLOXTvtIaeZp3CHvzJMlSpVMjasz1mnxDxF23bt9Obosbrv3v/otdfezPP2ileadevW6fkhg/XLLz/r/+4foEKFCtlDLo0Ao37N+d6nbz/d1KvXebvbbutjtbm86qqrdM/d91m33ElKOqGDUZf+ymP/kv4q6Z/WmYG3UuVK2rY17aKWvRER1mnpk6pWrab58xfIt3Bh1QkNPfV3ZgcAwLlccFh84smnVL5ceesIy9tvv2tdZHH//w2wh8p6bfZ7w9jAmkdezJsa/+e+++2hectsP3dX/3usCy8efPD/9MYbr1nt6dJvZHGpuOUy/rvUqlerZh2JfeSRBzXwycfP2z326MNKSIzXs88OUc1atfTmm69rzJg3dezI2RckXUwtW7bUoKee0lOD0rqBA5+0TjHv3LXDGh6xN8JYLtPquESJEtb9F81gvn7det3e5/ZTf2d21DsA4FwuOCy+P+5djRw5Qh9+MMFqH3XwwH79PGuWPVT65aefFBMdbd1Mety771jjTpn6qT00bwWXDrZug7Jo0ULrvXmj5WPHjrLxvITqmE0XRr5mXfDy/oT3Lv2NpF1e2X7aia9vEeteokOGPGvVTF5YvHixxowec2Y3ZqwSE9OmX0REhMqULWOdcq5atar1xBmzPesXX355xt+MGvWaNS4AAE4uOCxG7ouU252qPn37aseO7Xpp6IvaE7HHHirrsWlDh72oqKgo3Xbb7daFGdH2lcZ5bW/kXuvinO7dr7NOf5qnpP38imjHzkt3McuVqnRwaeuo9LPPPqctmzdp0FNPaumSf+2hnu/w4cPWVf95xQy4h2Jjz+jSt6+NiNhr1XRgYKCqVktry2heGGV26f/Gkx9bCADwDBccFjt07Gg18F+0aLF1scLRTO4PaD5tZMSI4dq12wiOL71sPTfYE5gN/idMGG/dlHvixI90151pp6TNo6O4OMxT/+ZOw+uvjVYRPz+98MIQTZ48SUeOevYjDC83Zpg1l8Vy5cuqapUqRlhMOz0NAEB2XVBYNDf6ZiN/81nFhX0L6b7/3G+1UTRvwH2S+drsd9fd9ygxIcG6WfQzzwxWWMNG9hh5a8WKZXr88Uf00ksvWO3W5s793R6C3GSeDm3Tpq3efGOsddXz+PHj9Oqrr+T5PRbzM/Mil/r1GlhtFs0jiwAA5MQFhcXoqGj99fc8rV5z+lY5lSpWVts27ex35uPH2ln9TKnuVC3+Z5EWLJyv+Dw6/VXEr4huvrnXGV337j2sJ3h07drtrGHm+JeaeQuXIhdwxbj5t+ZneArzZugvv/yK7rzzbs2e85uefXaQdd/Ny1VKSpLq1q1nNVswb5DuqfZE7DWmfXXrKKOnNP0AAFx+cuUJLumZAatWrdrWhSymIUNesB6j9803X1vv81KFihV1R9/+xgY+61fdmo96mzZ9yiV9WkeTJk31yCOPaueucKVm8+ILL29vVa5UUePGvasledQG0Ly1zJw5s7Vs2RLdelsftbimhRYuWKAvvvxchw7F2GN5hoYNr9ZDDz2sl4cP03H7BtbnYl4QNWTIi1Y7yzpGYDQvGpk2bYr69rlDCxct1M8/n764K6/VrFVT/fv1s557/fXX39h9AQDInisqLF5OatcONbra9rvs2bBhg/XEkbxi3quyR4/rrMc97ti5Q1OnfKKtW7faQz2LeRHI4MFDrGeYZ5W54zBy1AjrcYu39r5drVq1ti4c+eKLzz0qLBYtVlSDn33WCopmYAQAICdyPSz27HmjbrzhJsXGxVrv/Yv767vvv82z5xQjb5y8iMkMrSefT+zJzKe2FM7CDcFPJJ2wTuumV7lyFd1xR38tX77Mo8KiqUmTJlq9evWlvyURACDfyPWwaD6dpUFYmLzs5pCpxn+rVq7M9CppID8pVrQYV3UDAPKdXA+LAAAAyD8891JOAAAA5DnCIgAAABwRFgEAAOCIsAgAAABHhEUAAAA4IiwCAADAEWERAAAAjgiLAAAAcERYBAAAgCPCIgAAABwRFgEAAOCIsAgAAABHrjr1wtz2a8DiVfwqFQx9wvi3plEh3nZfD+VOUWrcJp1Y/7bx72a7JwAAyC0cWcRZCjUYKq8SoZ4fFE3GdzS/q/mdAQBA7iMsAgAAwJGrYqWqnIbGGQqUrK1ijQbLxz9ULi/PPrroTk1Rcux6HVn+mpIObbD7AgCA3EKbRQAAADjiNDQAAAAcERYBAADgiLAIAAAAR4RFAAAAOCIsAgAAwBFhEQAAAI4IiwAAAHBEWAQAAIAjwiIAAAAcERYBAADgiLAIAAAAR4RFAAAAOCIsAgAAwBFhEQAAAI4IiwAAAHBEWAQAAIAjwiIAAAAcERYBAADgiLAIAAAAR4RFAAAAOCIsAgAAwBFhEQAAAI4IiwAAAHBEWAQAAIAjwiIAAAAcuerUC3Pbrz1KSJkQFS5cWImJidoXuc/u6/n43gAAID/xLh0cMsx+7VFuu+1WdezQQUFBQVqxYoXd1/PxvQEAQH7CaWgAAAA4IiwCAADAEWERAAAAjjyizaJ5cUVgUKD8S/qf6kJDa6tY0WJKPJ6ogwcPnjGssG9hHT161P7rvMP3BgAA+Z1HXA193333qkqVKva789uxY4cmTZpsv8s7fG8AAJDfcRoaAAAAjjziyOLJe/yl16NHd5UJKaPIfZGaNesnu28a816AgYGBata0qf6cN0/btm6zh1xaOfnennAPw5x+7+QWb8pr9Th5Hd1lDwEAAPmdRxxZNIPIzh07z+gSExKtYea/6fsfPXLUGt/L5Uo7lepOy7pmeLzUsvq9i0ZtVbnYraqWuEctSyarbOFUa5y8kp3pbXbm+ClXD1ZquQ5K6viJ3IUCrHEBAED+d1mdhm7QoIEeeeRhNb+muQ4fjrP6xcUdUfv27fTYY4+qerVqVj9PU79YilqVTDrV3RJ8XNV8U1XRCI0nO09mBcXqtyn5WLS8CpdQSocPCYwAAFwhLquwmJycpOjoKF3Xo4e6de9q9et1y83q2LGjIvdGyu2yenk8X2/pljLH1afs6c5TJbf/nxUUk2J3qeC8/8hr719yF6+mlC7TjX+r2mMBAID86rIKi+vWrde7776nL774UsGlg61+QYGB+uTjTzV+woQ8a7uYX6W0fV/u0o2NFydUaNFA+RwLl/eCQXId3iK3b7CSO0+zxwQAAPmVR1zgkpmTF2GkvygkuHRp6xR0w4YNdeL4cfkVKaL4Y8fk7eOj5cuXa+GixToUE2ONm1cy+959yx5XhfOcan59u6/9Km9k9r3NI4cpnafK7e0rr71/y3vhIKVWvl4pVw+ReRDXa+14ea2faI0LAADyJ4+4KXdmzJtAx8bGnnEz6CZNmqh161Zat26dZs+ebYXGiZMnKyCglMLCGujggYPau3evPXbeyOx71yuWohI+587kCw4VsF/ljcy+t+v4Ibm2fSt32VZyB4bJHdJSqVVvUnLiUXn/9Zi8d/1ojwkAAPKry+o09PwF861T0GZXqHDakTgfbx9NmTJFX339lZYuXWr1Q+5xHY+R99z/kythv9wBoUqI2WsFRZ+oJfYYAAAgP7u8LnBJStaaNWus1yWKF0/7t0Rxud1urVyxyvoXuc8MjF5zBygl4ZAKrRilgrGr7CEAACC/89g2iwAAAMh7l9WRRQAAAFxahEUAAAA4IiwCAADAEWERAAAAjgiLAAAAcERYBAAAgCPCIgAAABwRFgEAAOCIsAgAAABHhEUAAAA4IiwCAADAEWERAAAAjgiLAAAAcERYBAAAgCPCIgAAABwRFgEAAODIVademNt+fU5H4uLsVwAAALjcFSte3H51btkKi1n9UAAAAHiu7OQ6TkMDAADAEWERAAAAjgiLAAAAcERYBAAAgCPCIgAAABwRFgEAAOCIsAgAAABHF+0+i97ePvL181PBAgXsPsjPTiQlKSE+XikpyXafnKN2chfzBp6IuoST3KwNOMtOrrsoYdHfP0ABAYFyebmUlJykZGPGI//yMVbQBXwKyJ3qVkxMlGJjY+wh2Uft5C7mDTwRdQknuVkbOLc8DYvmglsqMEjx8cd08OA+Y8Flz+BK4FPAR0FBIfLzK6LoqIM5WsCpnYuDeQNPRF3CSW7UBs4vO2ExV9ssmqcCAkoFWgtu5N49LLhXEHNem/PcnPdmDZi1kB3UzsXDvIEnoi7h5EJrA7kvV8Oin5+fXC6XsYe33+6DK405780aMGshO6idi495A09EXcJJTmsDuS9Xw6KPTwHajFzhzHlv1oBZC9lB7Vx8zBt4IuoSTnJaG8h9uRoWjR0AFlxYNWDWQnZQO5cG8waeiLqEk5zUBnIf91kEAACAI8IiAAAAHBEWAQAA4IiwCAAAAEeERQC4jLl8S6iYd5aerQAAOZKrT3AJCCilwr5+2hux2+6TO3wrdVSfW9sqtGoVlS0ar73btmv9/Bn6bPY2JVxGl0mVuf4FDSzxrZ6eus7uk6ZW39f1aM0leuOlGdpl/B7rfcui9lApJeGQIneHa9eG+frxt3WK05m/2Rq/WZS+Hf6G5kSfPT3C7n5b95f5TUNHzlKU8fku/zq68Z5+urZ+FZX0jtO+TQs1Y9I0LdyXO1cWli1XQYkJ8YqJibb7nN/Fqp2MMk5bd1K8ovdFaNuSmfpqzlbF5/PL7jxp3vhV76p+N7dU7WpVFFIkUQf37NDK3z7XF3O36liGGr9YirV7UiN7V9Wm6c9o3IIEu28at7uEOj8zUp0j37eW2Yzvz+dSrLfc7jp6+JPX1SXqI/3nqa908DKtX0+oy4zrhvT2/zJKw2fuUfXeI/Rko/V6e/A0bUk3rd3Vb9WoJ9uqwOLxenrKWrtvmvLXv6jn2u3RhKcma00mdZ1x/Z+e211WNw59Xq13fqBBn662++ac211I7R4fq5uPTdLjk5bbfT1bTmoDWZNnT3DJbW4jxpbtMEhvj3lSXaqkKnzJLH394z8KT62oLo+NNhbYLirv8uw9arfbVw06d1WNIm65/QIVVNxb7oLl1LZ7cwWZP9BQJKC8KpYLUEHrnf0+IEEbFizQAqNbuslYSALrq/vDr2n8GwPUvNSZv9kcv1K1drp/YE8F25+ZXpGgCqoY4i/zHvhuryrqM+wV3V1fWv3jh/rwi8U6WK6Hnhv5oBoW9uxpmRsyTtvFK7Yo2qequj72lt5/qpWKZjL9LjZ3xb5695v/6d6a+X/6m9xulype+5zeeeMRdaiUpO2LftCX3/2pjcfKqcvjb+u9IZ0UpOxNi5xMQ7fbXx26tFeVSlXVoXPbTOa9t0oEV1K5wJM3BM74PnMXa72V+W8M14JZv+jnX5eLB6JdmIzrhvTdsl1HrXF27D2i4Lot1Lic9faUso1bqn6lyqrVupmqpasjt7u4GrVoqvLHIrXNYZZnXP+fqYD8y1RShfPUXNZ5qahRwxUCi9jvs+ZKW0fhbJ59GrpUVz30YFt5LX5Tjz8yVP+d/Lm+/mKy3nn5MT3+xny5WgzQg91L2yN7KO8QVWh8g14eP0Z9avnJp0JXDXtvjO5qWU1lzrX8H9usX6dN0/Tp0/Xp/97SqBcf0QNPT9SWoOv15CNdVDLDhs19PFHede/WwBvLy3WuwFOzszpXO6G577+gCV/P1R+zJuvVYTO0PaidOjW6QlolpJu2Uz/5UP8d8ZgefW+F/NrfrV7V7XEuKW8VKFBA3pfnQaHsC+yuBwe0kHvB63ri0Zf17sdf6tuvpuq94Q/p0bcWSs0f0dM3lrFHzqocTMPgjmoXGq8FcxYrNay92pW0+1+oi7beOvs3ulxHtGrGOE2YvUMp+fyo+CWRbt2Qvpu1OtYanLx8udalVlLdhiWs9ya320+N6lVRUtwRHS9TTw2D7AEmnzDVq+HSppXLLvOzFlfYOgpn8dh0YOadsNv7qsHxvzRp3J/al3q6Sl2uFEX+/b4mz4tX/T79dLWX2zpK0P35SXrnnvr2WGncFXtp5MQ3dGvl0wHKt3IXPTR0tD6Y8rmm/e+/GvZ/HVTZN234yc95o6+xkN86RKP/97m+GdJB3o0G6L2JI3VzhQwhLeQGvTJxvB5ulvl+oSt1h2a++pAGfhyjBo3KqkTdRvL99QU9MGSqVidkb8k7uvkHvTl5vlIb99cdYRmelXlojj76Zp9q9X9KvSqdY7bu/EovPvi4Ji1L9xzVlGQly6UCBa/c529G/bVIm1VGVav72n3OXScmt1ewruk3WKM/+FSffz5dk955SXc2DbSHnnauz6nY61VNGt5DIQpQp+cma+LEF9TZ/8way0/M5bpxn9tVN3GeJr33V4blWtr/x3uaOv+Qghu3UEi6nZ6LMQ0rdWqn6kf/1S8T5mhJYqjadQyxh+RcTtdbb/StrUodHtXrE6Zo+tSJemv4I+pcubD9l86/0Wm9d3J6Tfj0c00xdlSHPdRVVdOdOTj9/w1V1S6P6OW3Jmn6tI/07rD71TLE2x4rTVbr/IoQv1Srt7hUs16YvE/Wp3dj1a/ppU3ffK7VSVVV7+p0RwHq1ldood1as/SA3ePCZLVeTipet7cGjRqnj6d/ro/HDde9zQLPOhHuVgnVu+kJjXzvE302Y4amT3pbz/Vvfuro/vmWr/OtJ5E/ePChpGCF1gxQ3OLftTjx7FDlciVq0e+LFVeiumqWNft4ya9ksIJKFLKGn+JTTIHBpVTUzkHe1fvqjdEDFJa8Vt9PfE8Tf1gt72se15sv3qDS1sKf9jmVOzysB5vEa9n3H2nCz5uUvGqVdhatr05tq6R9kK1Sh2sVVmKPVq88bvc5k9ursro/81+Nvbe0NqyOVNz61UrpMULjhvVV3RwsUEf/+k2L4kqqRmjGDVuKNk8Zra/2VFHfgX1UxdgQZcaVEK3de/brqL0RM1c+19zRVdVTNmrVihNWvytS0aIqotRTT4Q4X52Yp1Lr3jtCg68L0e7fp+qdtydpdnigrn/6aV2fbtac73OilnxlhPyVitUxrZs5WR9N/kFr0s545VMhuqp6SR1e9Lv+yXS5jtOcN+7VXS98o332kZiLMQ3d7irq1KaKDi38Q6sS/tW8f46pZrtOKn8yAORYztZbFZsN0ODbA7Tuh4kaP3mWNhdorkdGj9ItFa0/O8dvPHu9512jnzG9HlZjr0365eP39PFP6+Vq/JDeHHOPap5aL6T9XaVWD+qhVie09LvJ+mD6Ah2t1lNPP3erKtpBIat1fqVwuQ5p6cpdKlS3gULtfqpXX3UL7dTK+b9rxSapdv1Gp4Jk9bC6Kh69Skt3WW9zQdbqxVSwwQCNffUO1Ti6RF9+8L6m/h6p0AcGq3u6+eZ2+6jOva9pxN3Gd17/q6aMG6cvFkSr8o2D9WLfqtY451q+zr89RX7hwWGxssqXkfZGhtvvMxG+V5Eqo3IVz14pZ8btLqXu992iUive1aARH+mneX/rj5kT9dLQz7Wvzh26o9npyeGbukRvPfuWPvvxV/22IkJKXqK5C2NVoVV7VbEXAre7gtq1qqwjxoZvYaLV62wpB3Rg/Wy9+vCT+mTtMSXt+lFDHhysGasjFBVvj5Mt4YrcJ5UtW8F+n07Kdk0fO127yt+mgXfUPL3n68DtVUadnnlTg9u5Nef10fop7UzLFcfbv7Zuevh6VT++Wv8sSc5inVTQ1Y3K6Mjfn+idL40Ab4SDz0YP18gJv2hrUtqRmax8Tnz4Cs1fGaFEHVfk2vlasHC1IpOzVs+Xp0oqb4SkyH1ZuyjhYk1Dr9Br1aZcjBb+sUKprhQt+XOh4iq3U8dq9gg5lrP1VpGKyfr1+WH69Kd5+nvut3r/+Rf1zYHq6t2vnfyM5Tirv9HtDtR1996scls/1nNDP9R3c//W7zMnadjgSdpW5kbd1/PMhOdXaL0mD/1AM+ct0LxZE/XKxEVKqnqNmp86S37+Os9XitXVzQ88oAcGDDjd3d/p1DrftHP5akWXqKOGldLeW4Fw30otjYzTkpXb5WsEyVpGf7e7pMLqldexVStkZMhcdb56cbtDdMOdPeS/+kM9N+JjY7n5S3O+Ha/Bb6xSwTNaQHgrZuVMTXl7qIaMm2aMN0/fTXpN05ckqUqjq1XqHLWXne0pLn+eOzddPvI21kUpJ85xhW5yilJVUEX8snj61LueGhq7gxtWbFOJChVUoXx5qyufukNbooqocjVrV9+SsGm1tmQ4hbR8zt+KLtdS7WvYPY2NS4sKh7Tw9yWO7YVcrngtm/WD1h12yyfxsGKPpcqVuFOzv/3r1JGT7Ek2f7a8fApk2jYxedcMjZ26SWVuGai7QjM/NW5yu73VYMBIPd7shH4d+azeXRQt92XdpiYbgrpo+LTpmjZ1mqZ//o2+mfKm7qkVp1/ffluz44zhWaqTg9q9J14lWvbXw9c1VaVi3sa8jtKK3//QhmhjBpmyUW9XDFcB+RiLa8blOviGEdb8ON09r47madOLMA3No2VhHVqr1IH5mrsubRlKXj5Xi2LKqG2nOtb7HMvKessYliwfFSiYLmyt+0O/pjtTaTZf+eWPrfKrXVfZyq/G9GoQ6qOVv/2o/elOOKbu/0mzV3mpZoP68km33jixca3Wp1vPHdu0Q/sUpNKnmoxmoc7zE+9iCqlYSRXSd+WDdEbz8g3LteZYedVpWMqopQA1NAJh7Mpl2mqsPyOXrtS+AKNmzSBZuJHqVU/SmpUrjR2SXF63nq9efEJVp7q0/PdfFZPu/5284TfN32O/Mbhcx7Vv+U/66o8dSvb2VUC5aqrXtI2qlTDmbYixQ2OPlynWb1cUzw2L7t3au9+o17Ll7R6ZqFpR5XVUMTFZvOWLUfxBXgXV7KHxGj/hg3Tdi+oc7DIGnz5al5xy9oowdd3v+ntfiFq0r229r9G+tcoZG5zZK9O1/zuHPd8P1ROfnHlbhewrpzLB0v6I3ZmGO7NX+Ldj9PHaAN3w5H2qW+jsQJmmhlo0DdKJfz7ThCWH7H5XiGMb9dtnn2m60U37brmijF2O7d+M0rj5UWnTNAt14nIlaO77r2r62gJqcd9LGjdthj4x9s4HdK1h7dlbslFvVwx3uCL2nb1cx635SVOnTrG6r1cdU/FiBSRzsb4Y09C7iTq2LKnU1Mrq+dRTemrgQA0a2EUVklMV1Lqj6l/IHRayst6qWFYhRpSLCD+93oiPiT7rdjoHoowdOP8ghWSnKXFIiDG9YnVg35nNYlyuJEXuPySv4DJKvwk/npThlEhKslKMkOmytwxZqvP8JHaR3h/ynJ5/fsjpbuhnWpd+3qSu1Mq1J1SjfpgK+hqBsMZxrV5h39Zm61Ktiq2gemEB8q7fQLVdG7ViqdNpp3SMjz9z7p9kzAv7VXrnrZeQYAUadRBzIOO2ab+iMqzuC1a5Vg8Pf1/Tv/pKn4wfoxcf7qW6/vbAc2H9dkXx4OPEEdq567hKNWyu6nY7G7dvQ/Ub8rIe71pRXm6XqoeFqtiJdVqT7pZn3ifXcicVLnT6lgSHDilOxzXv9VvU+5azu7v/u8QeMXMu11bNmbdLwS3aqbaqq23Lstozb7Y2ZVhoLyafOq11dUCidmx3Po3ncu3XzLH/08riPfTEf67W6Us20nMrausyzf5n/ZVzRPGk+F2a/+NMzZr1o3787B1N/yde1W+6S6387I1fFuvEFbtKn418VP373K2BL7+v2RFB6vDwaxrczW78f4H1lj9FaNfutOW6Rrp2tQnbF+rnX36xum3HChvbtN3aaW7nLsI09G3ZXs2KHdKO8HgVLOynQlbnq8PhOxXn31Idm2QnnWV09norPfOoZo2mDVXqxC7tTHem2rdY8TOO+Jn8ixeX69hhxWRtXzRNzCEddhdVMf+zl2n/YkWN6Rlj7Bxlz3nr/ApjBu+lKzfKp3aYGjYyAqF7nVYsPzmTNmjF6njVaNBQdeqHym/Hai03z1acQ3TsYalESSPc2T3OUFqBAdLh2DPvMXjeejHrQMVUvGTGOggw6sB+aXCrgf5v+ONqWXiVpo56XHfdcqNuu/shjZ6XhQtyWL9dUTw2LJqnfefP+E67y/TQ/bdUUUFzwYhfoTnLvXTNA8/pvm536bEby2nnD1/qb2vHzVhIDqXKr3xFq52FyVwxVwqro1LWO0P8Fm2LLKTa9WoqKSFeCYkJVhd/IkChTa5SyYKp9ojOds7+U9tKtVC7mzqoZfAO/Tlnmz3k4vMq2VD/GdBNAVtm6LOF596CuKJn650P/pFfl8d1e+2zN34u1yZ99epQffDXlX13NvPWI3M/+U7bi7RU/9trpbXzzEKduL38Va1pOzUIllITo7Rl2RxNeWOMfokopFDj7yzZqjdv+eTDJmAZpS3XMxVhLNf/d2vVtOU6HVdwT/VpH6Dolcu10+yRy9PQvO9pq/ZNVXjbT3p9+CsaOXLEqe7VYWP0256iuqZ9i7O+V1Zlut5Kp1Clm3X/deW1Z+aXmp/uhIirTlO1THeu02zv1qp5DaXu2KYddr805/mNCZu0NaKgGra45oz/t7tgMzUPK6TIbZuydQuXLNX5FSh2ySrtKFZPvXrWV+GNy7XEvp+71Vxp+VqrTWzfsBDtXbXkvM2NwjdtVXyhhupk1H1G/u06qZHfcW3ZuN3uk+a89RK/VTv2FVDYNWfWgcq0UON0F8GodE3V8D+qRZ9N0M9LtinmhPlZBVWtQma3dspQe7mwPcXlw4OPLEop277Q+G8iVLX/GL39TD91a91QgXvn6Z/95XTDI71VbttUvTllo5KNhdFcSNeuWaekq3ppsBGoGtdvpA59n9fAVn46Zn+ey7VNM6Ytkm+XJ/VCn5aqFuSvwMoNdf1Tw/TSoEfVrWIWJse+OZq3wV/X9u+mUpv+1JwIu39uK1RaoU2bqkmTZmrd6Qb1+c+zGvvecHUptkqTx32lPQ4nLdKLnvtfTZjvpZDSZ4dFt39bDfpgskb3rS2vHG4Y84vU8K/18Zxole1+n7oZ68is1UlldX94kF58+j5dUz1QxQKqqul1N6lZ8Alt3rDF+tws19v+CO1LLamw7j3UpH7Fs+6hmd8kb/lcH8yMVJU7Ruud5+5U9zaNVLdeM3Xs9ajGvnW/Qo/O1XsfLbfaAef6NCzeVu0bFdLm+XMVmWEj7nLt0h9/75Rvkw4yVhs5lnG91bVVQ9Vt0Fpd+z6tt8fco2oHZmrC55vOaOecfKKm+r7QX9dUDVJASE11emCo+tc9ot9n/Hy6zVkWfqPLtUNff7ZAav2IhvZvpRqlSyq4+jXq/9KjauO1WNNnbLbHzKrz1/kVad9SrdoXpDp1A7XDCISH083L+GUrtdmvnupWjtOa5Vvtvs5S/v1Uk5dJTR56Uy/166QmtauqWu2r1cnYfr3xSAt5r/5Iny448+DA+erFPAv2zdfLVbD1Q3q+7zWqGlhSIbU66NHB1yrgiP0hpqid2n20qBp07qkGFUvIz7+imvZ+Tnc2y3AbnkxqL1e2p7hseJcODhlmvz6nE8ePq1ChDLelycDX108+BQroyJHzHHfPIjMA7l85W4v3llC9Nh3VuUt3denUTOVS9+lgYhF571ugmXONvTJ7QT26ZZMOlWmk9td21rXtGquCe5kmfbpb9TtW0p5fv9eKGJeO7/xXSw+WVbvb+qrvbb11U4+Oqld0j2ZPGKVJS2KVKj/V6XKTasfN09eL91qfm55564u9PqG6uXkZrZsxVj9uzfyWOdlRtmkvtQvZpV9/WGYt6Ob79vVq6Op27dS2bRs1q1dJAQUTteefLzT2tUn69+CZG4mMf3+S2Xh558q9Kte+jSofX6OZP6/R0ZPDi9dXz1taKnj/P5r5b0SuNsAuVryEkpOTlJBw5uPTziW3a8dJZtPK5UpV5JZE1bm+h1oF7tTPC3br6HnqxK39WrvxuKq2uUG39e6t3jd3V9t6RbVz1rt66/ONp2ryfPVmNQFIDlf40Spqa2yEe3Suq8S/Z2lNXO7Nj/Q8Yd64XMmKXDbb2OkrqXot2+vazt3U9dp2alqrpA4tna7XR3ykVcdO//7cnIaBXe/X/Y1i9P0732hjJvc5jT1QVM1v6qKyB3/W3K1eGdYFvudcN5yU6XqrY0uFVSyoiL8nasSrM7T5xMn/d9pn1tg4XuMPdtATj92j22/sqqZl4/TX+6/o/QXRp5fNTH/j2eur4zuXaHlUWbXpfYf63HqLenZpoUrxi/XBK+9o7oGTbbEdfkuROup2Q6gO/fGV/t1nhA73vizV+YXyhLp0Wo9mxryFjip2V/vqh/Xn5CnWtuWUhDiVvqan6vn+qxnvzddu9/k+K15bF/+rfUVqq/11PdXdCGTdOrdX06t8tXvOh3r93Z+159SV71mvl/gtS7Qu+Sp16X27eve+Rdd3qKmjM1/Tz15ddHXKAn2xINyYvxHasNtPzXr21a29euuWm7qpUeGFmjrfV82rHdLcb/7R/nMsX1laNi9QTmoDWZOVXHfSZfFs6JO8fQMV5HdMB6Li5araR6Pf7K3kLwZp8Jfbz9hLdxUspqKuIzpyjhxnXg1cJKisAs1nIx+I1YnzLNDpFe04VJ886KXx/V/SnGzeWNuTuLy85WU2aM+FBTo9T342dHadr07M+5QVCyqjUr6JOhhxQPHprixNLyv15vIuqgB/6XDUEeto+cXgifPGq3CAgosn6+CBw9bN4Z14yjTMrpPrrYPGeivjsmZeTdt7zKe6ec/L6vv2EvkUCVbZEscVufeQkpwuecjibzSnV7HgMioaH6l9Ry/syuWs1nlO5ad1xoVwuwoqoGx5BbhiFBFxSIlnrW+yXy9ul6+CypWSOypS0YmZ14HbqKkyFUNU5PhB7YqIdawrp9q7kO3p+fBs6Isn3zwbOqOUhCjti06w9pxSdnyuIfc9oDfn7reHnuY+ce6gaDL3/uOjdit8/+EsF7bLq4AK+tdX/15XK3HRz/orR/dJ9Bzu1JRcD4r5zfnqxDxKdtQYvmv3wXNuQLNSb+6Uo4qOPuoxIedSSU2MUeSBuHMGRdPlOg1PrreysqwlH9uv8L2xjht+U1Z/ozm9jh7Yc8FB0ZTVOseFcblP6FDEdm3bE3tWUMxMVurF5U5Q1J49jkHR5DJqat+Ordq219hhO0ddOdVeTranuLxc1o0KEg4f1IHos/fWLwa3u7A6vThD30wdpS6FFujDjxfpxCX4/wIAAOQlj26z6Fm8lRCzU+sXfqePJ32n9UcJik48uc3ilY5542mSdSx6j7as26Dw6Czcjy+foi6z6sqrF9osXjzZabPI5UpZZF4sErlmgeb/u1EHTjVOB4CcM+/ZF778T/29+Qq7MT5yhHpBXiEsAgAAwBFhEQAAAI5yNSya94g125DgymbWQHbvK03tXBrMG3gi6hJOclIbyH25GhbNRqgFfAqwAF/BzHlv1oBZC9lB7Vx8zBt4IuoSTnJaG8h9uRoW4+PjjT0At4KCgu0+uNKY896sAbMWsoPaufiYN/BE1CWc5LQ2kPtyNSympCQrJjpKfn5FVKZseWOv4OxnEiN/Mue1Oc/NeW/WgFkL2UHtXDzMG3gi6hJOLrQ2kPty9XF/J/n7ByggIFAuL5eSkpOUnMQh5Pzs5KkCd6pbMTFRio2NsYdkH7WTu5g38ETUJZzkZm3g3LKT6y5KWDR5e/vI189PBY0Zj/zvhLGCToiPz5U9QGondzFv4ImoSzjJzdqAM48IiwAAAPBM2cl13GcRAAAAjgiLAAAAcERYBAAAgCPCIgAAABwRFgEAAOCIsAgAAABHhEUAAAA4IiwCAADAEWERAAAAjgiLAAAAcERYBAAAgCPCIgAAABwRFgEAAOCIsAgAAABHhEUAAAA4IiwCAADAEWERAAAAjgiLAAAAcERYBAAAgCPCIgAAABwRFgEAAOCIsAgAAABHhEUAAAA4IiwCAADAEWERAAAAjgiLAAAAcERYBAAAgCPCIgAAABwRFgEAAOCIsAgAAABHhEUAAAA4IiwCAADAEWERAAAAjgiLAAAAcERYBAAAgCPCIgAAABwRFgEAAOCIsAgAAABHhEUAAAA4IiwCAADAEWERAAAAjgiLAAAAcERYBAAAgCPCIgAAABwRFgEAAOCIsAgAAABHhEUAAAA4IiwCAADAEWERAAAAjgiLAAAAcERYBAAAgCPCIgAAABwRFgEAAOCIsAgAAABHhEUAAAA4IiwCAADAEWERAAAAjgiLAAAAcERYBAAAgCPCIgAAABwRFgEAAOCIsAgAAABHhEUAAAA4IiwCAADAEWERAAAAjgiLAAAAcERYBAAAgCPCIgAAABwRFgEAAOCIsAgAAABHhEUAAAA4IiwCAADAEWERAAAAjgiLAAAAcERYBAAAgCPCIgAAABwRFgEAAOCIsAgAAABHhEUAAAA4IiwCAADAEWERAAAAjgiLAAAAcERYBAAAgCPCIgAAABwRFgEAAOCIsAgAAABHhEUAAAA4IiwCAADAEWERAAAAjgiLAAAAcERYBAAAgCPCIgAAABwRFgEAAOCIsAgAAABHhEUAAAA4IiwCAADAEWERAAAAjgiLAAAAcERYBAAAgCPCIgAAABwRFgEAAOCIsAgAAABHhEUAAAA4IiwCAADAEWERAAAAjgiLAAAAcERYBAAAgCPCIgAAABwRFgEAAOCIsAgAAABHhEUAAAA4IiwCAADAEWERAAAAjgiLAAAAcERYBAAAgCPCIgAAABwRFgEAAOCIsAgAAABHhEUAAAA4IiwCAADAEWERAAAAjgiLAAAAcERYBAAAgCPCIgAAABwRFgEAAOCIsAgAAABHhEUAAAA4IiwCAADAEWERAAAAjgiLAAAAcERYBAAAgCPCIgAAABwRFgEAAOCIsAgAAABHhEUAAAA4IiwCAADAEWERAAAAjgiLAAAAcERYBAAAgCPCIgAAABwRFgEAAOCIsAgAAABHhEUAAAA4IiwCAADAEWERAAAAjgiLAAAAcERYBAAAgCPCIgAAABwRFgEAAOCIsAgAAABHhEUAAAA4IiwCAADAEWERAAAAjgiLAAAAcERYBAAAgAPp/wEtwDu5I7dejwAAAABJRU5ErkJggg==;" vertex="1" parent="1">
          <mxGeometry x="370" y="290" width="651" height="312" as="geometry" />
        </mxCell>
        <mxCell id="m_mTWUx8YQPxBXl8gpw2-3" value="" style="rounded=1;whiteSpace=wrap;html=1;shadow=1;sketch=0;fontFamily=Helvetica;fontSize=16;fontColor=#009900;strokeColor=none;strokeWidth=2;fillColor=#009900;opacity=50;verticalAlign=bottom;fontStyle=1;gradientColor=#00E000;gradientDirection=east;arcSize=8;" vertex="1" parent="1">
          <mxGeometry x="382" y="401" width="628" height="84" as="geometry" />
        </mxCell>
        <mxCell id="SwFvQSKPkEwR-n9te_Ng-2" value="2" style="shape=offPageConnector;whiteSpace=wrap;html=1;rounded=1;sketch=0;strokeColor=none;fontSize=20;fillColor=#3366FF;gradientColor=#C9D6FF;size=0.29411764705882354;fontColor=#FFFFFF;shadow=1;dashed=0;strokeWidth=3;fontStyle=1;arcSize=21;direction=west;" vertex="1" parent="1">
          <mxGeometry x="399" y="380" width="30" height="76" as="geometry" />
        </mxCell>
        <mxCell id="vLXGS7c4ZqUKohsjvchW-1" value="" style="rounded=1;whiteSpace=wrap;html=1;shadow=0;sketch=0;fontFamily=Helvetica;fontSize=20;fontColor=#EA5B0C;strokeColor=none;strokeWidth=1;fillColor=#EA5B0C;opacity=50;gradientColor=#FBDECE;gradientDirection=east;" vertex="1" parent="1">
          <mxGeometry x="501" y="277" width="50" height="70" as="geometry" />
        </mxCell>
        <mxCell id="vLXGS7c4ZqUKohsjvchW-2" value="1" style="ellipse;whiteSpace=wrap;html=1;aspect=fixed;gradientColor=#fbdece;strokeColor=none;fontColor=#f7f7f7;fontStyle=1;fontSize=20;fillColor=#EA5B0C;" vertex="1" parent="1">
          <mxGeometry x="494" y="233" width="62" height="62" as="geometry" />
        </mxCell>
        <mxCell id="vLXGS7c4ZqUKohsjvchW-3" value="3" style="shape=offPageConnector;whiteSpace=wrap;html=1;rounded=1;sketch=0;strokeColor=none;fontSize=20;fillColor=#3366FF;gradientColor=#C9D6FF;size=0.29411764705882354;fontColor=#FFFFFF;shadow=1;dashed=0;strokeWidth=3;fontStyle=1;arcSize=21;direction=west;" vertex="1" parent="1">
          <mxGeometry x="442" y="380" width="30" height="76" as="geometry" />
        </mxCell>
        <mxCell id="vLXGS7c4ZqUKohsjvchW-4" value="4" style="shape=offPageConnector;whiteSpace=wrap;html=1;rounded=1;sketch=0;strokeColor=none;fontSize=20;fillColor=#3366FF;gradientColor=#C9D6FF;size=0.29411764705882354;fontColor=#FFFFFF;shadow=1;dashed=0;strokeWidth=3;fontStyle=1;arcSize=21;direction=west;" vertex="1" parent="1">
          <mxGeometry x="487" y="380" width="30" height="76" as="geometry" />
        </mxCell>
        <mxCell id="m_mTWUx8YQPxBXl8gpw2-5" value="5" style="shape=offPageConnector;whiteSpace=wrap;html=1;rounded=1;sketch=0;strokeColor=none;fontSize=20;fillColor=#3366FF;gradientColor=#C9D6FF;size=0.29411764705882354;fontColor=#FFFFFF;shadow=1;dashed=0;strokeWidth=3;fontStyle=1;arcSize=21;direction=west;" vertex="1" parent="1">
          <mxGeometry x="670" y="470" width="30" height="76" as="geometry" />
        </mxCell>
      </root>
    </mxGraphModel>
  </diagram>
  <diagram id="dZHavLsiCkdeKKGhgfFs" name="func_panel_macros_add_new">
    <mxGraphModel dx="2778" dy="1230" grid="1" gridSize="10" guides="1" tooltips="1" connect="1" arrows="1" fold="1" page="1" pageScale="1" pageWidth="850" pageHeight="1100" math="0" shadow="0">
      <root>
        <mxCell id="0" />
        <mxCell id="1" parent="0" />
        <mxCell id="mUYtvI8msDl4-CPWPV5D-1" value="" style="shape=image;verticalLabelPosition=bottom;labelBackgroundColor=default;verticalAlign=top;aspect=fixed;imageAspect=0;image=data:image/png,iVBORw0KGgoAAAANSUhEUgAAAfAAAAG/CAYAAACnooVfAAAAAXNSR0IArs4c6QAAAARnQU1BAACxjwv8YQUAAAAJcEhZcwAADsMAAA7DAcdvqGQAAJyLSURBVHhe7N0HfA73Hwfwzz1P9t57iEiRQayY1Rg1o6po/6jWaG2lRtGWqKJqj1it2IJSVWoEQapKGySx0iBCiCRk7/nc/+55LvJkPDxJHpKn/b77unru7neX343ffe/3u8U0cW3EivUMQAghhBD1kJ+XA5GBmYbQSwghhBB1IdJ1shZ+EkIIIURdiAoKWOEnIYQQQtSFKOWfBOEnIYQQQtSFSPiXEEIIIWqEAjghhBCihiiAE0IIIWqIAjghhBCihiiAE0IIIWqIAjghhBCihiiAE0IIIWqIAjghhBCihiiAE0IIIWqIAjghhBCihhjXRm6sjq6+0Ft98R9/hfR2vYW+l9NLjIHT2ukQpyULQwghhBBSHdLPiQq/ayzdp6fw6+U0mGLo25tAMuYTFFnqP+8kevRJU0IIIaQ6al0Dv7XxD+HXi/HB21SUAROxrHuifQvxGqmycRn5cPvsOES5xdJ+QgghhCjG18BVG8CzM4C714WeMmKmBIZMDgxE2TAQc/9yv3XFWbgiTkZeUxvASAeuM4Kh85CbnhBCCCEvpPoAHn4BmKz89XCpnZ8APg3hOvMUdB6kCwNVw9D3cywe3BDRQV8g4GKeMPTFWFYbvlNW4r2cQEwJvCYMrUzZdE2Gfo/JbZPxy4KlOJPCCEPLeI9YjU9tT8F/8TEkM5XHv0rSvHUUI+yHWdgeWSIMLY9lXfD+whnwNbuOHRM24e/XnEdCCCGVqeQaeFXmzp2Lc+fO4eDBg+jWrRtEIhGmT58uHbZ+/XqYm5sLKQFPJl/4pVosa4KuPbvAxbkhuvZ4CwYsK4x5GREMrJ3haPGykxrl0umbOcDZ1RefTnsH1lXkQd/SEU42JqiLuwCkeXNuir5+naGrYP1oePfFO97OcHKyQs1P8wgh5L/r5vVw4ZdiyqSp6JUEcHd3d/zwww+YP38+du/ejUmTJqFTp04YNWoUrl27hu+++05ICfTReApLppCPuMIQFbHuBl/3XFw8cxkS7y7wNRWG1wG2IB9izxGY9q4DGFUvpwro+PRG97JzqudYVgdv9u0MU6p1E0JIjXk2a/HCAM2P49NU1yt7Drxnz574/PPPcfXqVbz99ttYu3YtYmNjERgYiDFjxgipAAtRJuaKrkErIVsYohrO3X3RKPtvnNx0BmH57vDtZiOMKc/IczBmfBeA7UH7sD1gAUa1tUBV4UrZdFVKO4NthxLRZPh0DHR++SrXbdATE/yXY/Oufdjz41rMH9MVDXRlgV/DZyI2bfkab5uUnQiwTT/Gmi2BmNvbQhjCB193jFwTiEWDnIUhVWPvXUN4tjt69mkgDJFj2h29fDRwJaz8fQ0sjOE1YCoWr9+BvQcOIChwNeYMbwdLboy8cssRGIAFE/zQ2ECWhm8h6fNVIJYO9YbX+19i+Y/7cOjLrtJxvNJpN+3ch10bV2D+hF5oqFP/Tn4IIUQZioJ4TYM375UF8MjISGnQ7t+/P+7du4eOHTtKh7/xxhv46quvpL95huIc9DSIRb/uucKQ2uOv23bv7IK0P88hMu9vhP6Vg8a+3eFQofar1XwsVi4aBrfsMPy0eQN2hyTAfdxs9KkQ65VNp1gJ7uxajoOPXTB02hC4iBQHInGjoVi6fCy8i2/i1y3rseXIdYjbT8Gyuf1hxeW/6FYMki3boEMrPWEKwK1tR7ja2KB1+9bQK11Gt3bo2FALj6MeyvoVKb6Bk2cT4NzND55M+Xw59+kJj9yLOH4xRxjCr1sNeIxagoUjWkJ8Oxi7AgKw/2IKGrw7G3OHNhRSlS7HRPho3MGxbRuxK+QudNuNxcL578NZGuhF0DO1RoOuEzG+TS6u/roNm05Ey6Z1+1A6bWtRNE5uX4/tx2+DaT0By1aMROMXrDtCCKnPKgbx2gRvnkoDOH+3eamIiAhpEC8pKcHChQul18L55vNDhw7h999/F1JBeke6qTgDU8ZnwMpKIgytHZH72+hsn4o/z4VDwuUp7PyfyGzgi26uQgIOy9qg/0d9YXL9B8xZuB3HQ3/HmV82YvbSSGhZCYk4yqZ7qZL7CFoZhIcOH2DasMYQV9GUzrLm6DN6EMzD12HGwm3c37qAc0e3YJ7/PiR6DMOwttzmyr6EsNsMPFu2ls6DZa3R2tsO98LDkeveCq2Ei+mObbxhnXkVl2+/LOCxiD52CjFmndG7vY4wjBvKNEXf7i5IOncMYeWe7hMjNeIodq32x5cBe7g8huJw4BIEhRXBpWUrmEvzZI6+3HLY39+B2XM348jZUJwMWoN5Kw7hvqYnWjgJs+LoSsKwatYq7P0tGKfC47lpLeA36j3Y39uOOf4/4PDZCwg5Goj5swMRY/suRr+j9FkTIYTUO6VBvLbBm6eyAM4/580/KsYbMmSI9Ia1UikpKejSpQt8fHzg6emJCxcuCGO4AC7KhhZTCH19CaZ/likMrTmWZeDd9U2YP/0DZ2/JglfxtbO4lGqLt7p7SPulNNzh0Qi4FhKMVLlrvMVRp/DHY6GHp2w6JRQ/PICVu6NhO2gaPnbXEobKEXuhhTsQFR4DY0dHODo4SDsHSSzuJuujgasdGCYDf165Ax3vVmjGZ8eoDbxd4hC2NRjXWW56bxG3DkzQxtsFOdcu47oy50QJJxEcqYl2vbvCUDix0G7XF53N7+P0sSjIz4JhCpB47TgOnotFsVgXZvau8PLpDFdj7uTNxhb2fCJxM3i7ayAi+AgS5S405EVuw6wp/jgcJzcs+jruSsr6+XXQnJ/21G9IkptWknQcpyNFaNy8GTSqOPkhhJD/mtoHcO5gWvqSFj4Yv0hxceUXtWhy05bq2F4Fd6SL26BbR1NIJA3wzvTpmD5tGmZM6wnHYgks3+zGBT3h4G9jDQtROlKfVsxTEpLThJ88ZdMpgY//cb+swPabZuj/+Wh4alcIRFwAtBRpoe2Ejdi4abNcNxc9rBlutKM02dOLVxBr5I1WjQE9rqbdODkCf9+/gqu3dNC8ZRN+ILwbFyL876soUeoGtEyEnLyEoma90duW36SG6NqrA7Svn8SJeCGJHC2XtzFxwQYEHTyIHRtXYO7EgfA0EUbybGy45cjAs8RCYYBixSUVHl+TTpuOp4kFwgAZhilCQlIaRNa2sBOGEUKIuimteVdsTq8JURNPb+FnzRjdDXv+hjX+JS21oYqbnXU7dkFbwzTExuVCS0cP2tJOFxlxD5Bp0hHd2ghtzKlpyIAhjEwr/lEzmBgKP3nKplMSwyTh6MofEWHUF1M/aQVdYbhUWhoXSgsQ+v0gDB5UuRuxNkyWLuFPXHlkgRZtGqJFKy+uph2Gu0werlz9B1bereHauiU8SyLxd9jLA2ipgku/ITSlId72awKRTS/08i7CpRMhyKywUVg0x5gFU9BRJxK7v5uCjwe9iw9GTMDy0KdCCg63zjL5dWZWg/NDfn2zBjA0qbwzmBgacOsoFfQWfUKIOqrYbF7bIC4y0qldJdxx3SxYbFsK/ZRo6fVsHt9M7uvrW66zsCi7Q/pVYVlddOriA52Y4/h+wbdYvHjh827R/BU49dgA7bt0gBbfBJt7D7GJmvBu317WX8q2A1rLXaNVOl01MCmnsWbzX9DrOQX/ayr3BHjuXcQkaKOpV2MU5eUiLz9P2uUWmsG9zRsw1ZI1ZjNMHC5dSYBTy2Ho7iVG5DXZXeIpf4fjvmNLfNTNG+Kbf+Mv5d5dI8WwUTh2JhY2Xfzw/rs94JoaiuOXqmgRsWoMN5NsXNq7CSfCYpAqfQJQC66OcjcE5EXjXrwGmrfrVO75csbBF6MmfQJf+wotD/Kk02qhRYfy65vVaot23tpIiIlGrirO9Agh5DVSdM27NkFc9Oim4reIKaW4COz1MEQ5RSFV5450EH+9++OPPy7XOTnVMNpVh9Fb6NJSG3f+OIuECgd5hnmIcxceQLdNV3TS4/vv4dDP16D15gR8NbQ9GlqYwqZJV0ye/TbMsoSJOMqmq66Us2ux6Q8RbKzKAjjDxODAnkvQ7fk5vh7SEa6WJrBo0AL9ps/HvBmT0dup7GTrzuUrSHFrhzYG13HlmtC8n/g3Ip64oVUrfdwOu1ztQPfw+Enc1O+CD/1s8eDMb7jFVjF98gM8yjZA8x7voLmTMfRMnOAzeA4+alt2AxzDxOLg3ktgOo3H3OGd0cjKHA5e3TB++mQMaK2HjEQhYRX4aX/eexF4cxL8h3eCm5UprBu1x/B5k9FZdBlBB2T7GCGEqAtFwbtUTYO4KD3vBbUhJeU2MUeBWAPpKJL2r1u3DiNHjizX8Xegv2oW3ImDJ/MPLpyrOkI8DPkd97Vaostbsgu2KSeWYt6uO7B/70us3b4bPy4ZAesLy7FX9jTTc8qmqw6GyUTo+gCcTy6//jPPL8fstVdh7DcDq7fuxvaAhRjpkYHgVf7YHiV3Hf72ZVxNByRR13BFqCjzwS8sIoWrrt5B2KVqXqDnpZ3Bycu5QMktBB+v+vEzRvI3AlcdRobXp1i0IQj7dwXg87ax2H/0gZBCJvP8MswOuAL93tOwKnAHNi6eik5cAN7w7SaEl7z4xCIzdCW+XBfGTTsTKwN3YcvKWehjeA3rZi/H+SyqfRNC1MuLgncpZdJUxPR604d9lK78tdKqZLZ3xKNp7WGQlQmT6AcwE+XBjMmHuSgfrkw2GokzYCnKLHfDWikvTw0YG5fVLDt2ff2PCbGMLiztzcEmJyAlv+p3gvOUTacKLCuGvqUdLMSZSHyajsKqasN1iBUbwNbJBvoFz/AwPh3FCmr7/HIYWtvBpPAZnqTlQVKNVgHZtLYwyE1AYvarXd+EEKJOpB8zGTL0Q/b6jZvCoJopDeAisLAR5VTZNRGn4A1xGoyZQjAV3thVqrCQQZde1kIfIYQQQqrCB3CxjoHJ/OLC8o/sVFeBnREyOzpyYZmRBnFtpqRSx4/LZzWkNTAdFKOEq/Q/SRDjn2hNXA3XQujvuli+2hhZ2dRESgghhLxIcXFR7T8nypPoaSJ6cz9IdDQghkRa47blOivkwuRxMnQTs8Ek5qIooQBZT4rx7BGL1JTaP4JOCCGE/BdJm9AbuTZitfUMhEGEEEIIqe+k3wM316Yma0IIIUTdiBrW4NZ1QgghhNQtUXZB7Z8DJ4QQQsjrJbp9I0L4SQghhBB1QbeCE0IIIWqIAjghhBCihiiAE0IIIWqIAjghhBCihiiAE0IIIWqIAjghhBCihiiAE0IIIWqIAjghhBCihiiAE0IIIWqIAjghhBCihiiAE0IIIWqIAjghhBCihiiAE0IIIWqIAjghhBCihiiAE0IIIWqIAjghhBCihiiAE0IIIWqIAjghhBCihkTapg7CT0IIIYSoC5GmpqbwkxBCCCHqggvgwi9CCCGEqA2RlobwixBCCCFqQ6TJsMJPQgghhKgLkQYY4SchhBBC1IWIZUuEn4QQQghRFyIUZwo/CSGEEKIuRJL8AuEnIYQQQtSFqLAgX/hJCCGEEHUh0rVoIPwkhBBCiLoQFeZTDZwQQghRN4y7ayOW0TMQegkhpIyevgFMjE2hraMDkYi+fUSIsiQSCQq4CnJ6Rhpyc7KFoaqTn5cDphEXwLUpgBNCKjA3t4CBoRFSkp8hLz8XJcX0yCkhyhJriKGrowdzC0tkZ2UiJSVZGKMafAAXsQy9yIUQUh5f8+aD9+NHD5GdnUXBm5Bq4ssMX3b4MsSXJb5MqRq1iRFCKuGbzfmad0kJBW5CaoMvQ3xZ4suUqlEAJ4RUwl/zzs/LE/oIIbXBlyW+TKkaBXBCSCX8DWvFJcVCHyGkNviy9CpuAqUATgghhKghCuCEEEKIGqIATgghhKghCuCEEEKIGqIAXocYXWMYilmhjxBCCFFenQXwJkO/x/r1yzGiuVgYUhnLumDwt+u5dGPhw9b/QCdbJj6/sm7t8oWYM2UMhvZwhxHK559lPTB+4x7s/n4QLFW8bCxrjLdnrseyDz2EIa+WdLnXzER386qXw3vEaqyf0wcWarANSc1I94FvBsG5im3Msg4Y4L8e3w9tIgx5uYr7sCr36UaDF2L9d0PhViGvbKP3sZgrt8uGewpDyjj0m4v1K0bCq0I5ri5ll4NltfHWZ+uxZnRLYQghldVZANc3c4Czc1P09esMXQUHdg3vvnjH2xlOTlbQF4bVZ/wyOZnlIeriRVzkuivRKYBFM/SZuAQbl45Fu3IBLg4Xj53EieBrSBWGqI4YxtbOsLfQE/pfLem2dPXFp9PegXUV21Lf0hFONibQEPrJv49037c3g5bQX54WTO2d4WBWnf2x4j6sun069kkWrD07oLW9MEBg17ojmjk3QJM328JVbj9mWSO07OADh5wExNQufnOUXQ4RDLh0jhbqcOQjdaXOm9B1fHpzNTehRw7L6uDNvp1hqm6ves25g+A9exAUFISdP67Cd3MnYdzMLbhr2Q+fT+oJU+HAwDBZiDwQgE2nY1HyL3idLVuQD7HnCEx71wGMghMyQuqD4mvXcEviDM8WxsIQ/nijh5ZeLijKzEKBrRdaWAojeBre8HJjEB1xFbn06mlSj9RpAGfvXUN4tjt69qnim+Sm3dHLRwNXwq4LA2RYGMNrwFQsXr8Dew8cQFDgaswZ3g6WFZq2dBv0xAT/5di8ax/2BAZgwQQ/NDaQpWFZE/T5KhBLh3IF8/0vsfzHfTj0ZVfpOF7ptJt27sOujSswf0IvNNSpeVDKvnMEy7b+AUnr4RjmLauHluZhzchm0n4eK7JG+w9nY/nmndi3LwiBa+bhIx8LYax8vpvCuetkfL9pF4J2b8GqBZPQo8GL3/LzsvUmbjkW67csxnuO5ZeTtemPb7dsxMS2Vdetnks7g22HEtFk+HQMdH7xbvWyvJQtpyeavDMDSzbsxK4flmPO/1pAn9WF16CZWLR2h3TZl37eF64Vtk25bf/jWswf0xUNdGu+/ciroYrtVKOymnsF1+8yaOzlDXHpyaa4NZo1FiH60D5cL2oIr1ZyNWTPZnDXfoQbV54KA17+d192jKnIyHMwZnwXgO1B+7A9YAFGtbUAnSqQl6nbGnjxDZw8mwDnbn7wZMoXOuc+PeGRexHHL+YIQ/hCoQGPUUuwcERLiG8HY1dAAPZfTEGDd2dj7tCGQiquLDYaiqXLJ8JH4w6ObduIXSF3odtuLBbOfx/O0iAhgp6pNRp0nYjxbXJx9ddt2HQiWjat24fSaVuLonFy+3psP34bTOsJWLZiJBqLXnJgeIHs30/hUqYp3NxthCGyPFgaa0v7WJaB56iFmO1ng0chu7FmdSBOx1mg38yZ6Fc6iTCNU9uxmP0/M9w6sgUbtx7DHc12mLT8OwxyEpJVoMx6K46MxAODZuj+lou0v5Rz17fhbfwY1yMKhCGKlODOruU4+NgFQ6cNgYuCdaXcNpQtp/ObYzGqeRJC9u/G8dsa8Bo2Cwu+/RafNk3E+QPb8dPZeJi9NR5fDGksTFe67cfCu/gmft2yHluOXIe4/RQsm9sfVtQyUG+oYjvVtKwyTBquRDyEtmdzuAvD4NUMntoPEPFHCMK5Q0HTZtz+KeSjkbcnjFIiceWhtFfJv6v4GFORVvOxWLloGNyyw/DT5g3YHZIA93Gz0ed5uSekanXchM4i+tgpxJh1Ru/2ZTVIlmmKvt1dkHTuGMLKvc1RjNSIo9i12h9fBuzB8dBQHA5cgqCwIri0bAVzrsCxrDn6jh4E+/s7MHvuZhw5G4qTQWswb8Uh3Nf0RAu5IKcrCcOqWauw97dgnAqP56a1gN+o92B/bzvm+P+Aw2cvIORoIObPDkSM7bsY/U5tSlQcEhIBOztHob8iR7RqaYusCzuw5icu2F8Owd7lC7B400ncKyp/o5++UzGCv5qPncdDceHsL9jw1VwcetoIgz/0hV6VB7+XrzcUh+Hsn+lw7NQFLsI8WNYRvp0aIOtSCP7Mlw56sZL7CFoZhIcOH2DasMZltZtylMiLQI+JwOZFO3E69BSCVq3EyUcGeMPlEbbywy6cwy+BCxD4Rw7suJoUf4Mcv+37cNvePHwdZizcxs37As4d3YJ5/vuQ6DEMw9rW+RWjfzdDT7w3bhzGjR1brhs/bhCaGQlpOKrYTrUtqw+uXUeKsQdaOMv6pUE6MQJXEjIRFnEfulxw52+5Y1lTeHs5ICcyHHz4re7frXiMqYhlbdD/o74wuf4D5izczq2L33Hml42YvTQSWlZCIkIUqPsjWsJJBEdqol3vrjAUDt7a7fqis/l9nD4WBYl0iAzDFCDx2nEcPBeLYrEuzOxd4eXTGa7GJYCNLaT3pIibwdtdAxHBR5Ao1wiVF7kNs6b443Cc3LDo67grkWuoEnuhOT/tqd+QJDetJOk4TkeK0Lh5M2hUGZSUUQz+i4wiDU0F14if4dHjXBh3HI6Jfj5wNhRzy5uM8JBziEqp8EWoW+cQXNaaB0YSi5Pn7kGvqSdchWHylFlvDFOCa2cuIMW+I7q4yaZDA190cEzDnyFhSl+nL354ACt3R8N20DR87F652V2pbSjIv3cbMcL2YZg4PHhYBCQ9RpywOvg8P32WDhiZQPqdH277teCqVFHhMTB2dISjg4O0c+DWz91kfTRwtZNOR14RsSFsnJzhWKmzgZH8HYyq2E61LatR13AjxwEeLcy5IGqGFlyQTo+4invcfp5wJQKJZlwe+eCu0xJejYpwIyICEr4MVPPvVjrGVKThDo9GwLWQYKTKlbHiqFP447HQQ4gC9aBKkomQk5dQ1Kw3etvyZ6SG6NqrA7Svn8SJyies0HJ5GxMXbEDQwYPYsXEF5k4cCE8TYSTPxgaWogw8SywUBihWXPFTidJp0/E0sXxzMcMUISEpDSJrW9Q8BNjD1pqLP/GPUNU32BkmD2c3LELQTU10GD0PAXsOYAdXSx3by61SrTo3NQV5FebxNDkFrIklbBTc6v3S9caR3ArBhUQbdOjSVNrv1uVN2D/9A6cjlP+oBZ+tuF9WYPtNM/T/fDQ8tSsfRJXJC6+ouIq/K2FRfqvJzZ87AbAUaaHthI3YuGmzXDcXPawZbrSi1g+iEumXsOHLOfjqqy/LdV9+GYA/5B+1UMV2qm1ZlUQg4mYh3Jp5Q0uXC9JuBbgeLtxvc+8KItMd4eVtxtUHmqMp8w/CrwhNUNX8u5WOMRXZWMOCm1/q04r7ehKS04SfhChQL9oUCy79htCUhnjbrwlENr3Qy7sIl06EILNCkGLRHGMWTEFHnUjs/m4KPh70Lj4YMQHLQ+Wqo6lp3CmBIYzMarBo3LQZrAEMTSoHWBNDAyAtFclCf3VpeLyJVmb5iL3/SBhSGZMeib2LJ2P4kBGY9s0GnI63RNeJSzC7d9mNbDxdQ6NKtQsTIyMwORlIrSLmKbXeOAxzD2dCH8K6gy+aohHe6miHx6GnEV3FCceLMEwSjq78ERFGfTH1k1bQFYbzlM1LjaTx274Aod8PwuBBlbsRa8OEhKROqWI71bKs8gH3SsQ/0GjqjRYtuSDN3kL4tdLCE4Xw67lwa94CHs3coRd7HdcyhVGqPkbw8+OPV6YV52fGzU/4SYgC9SKAM2wUjp2JhU0XP7z/bg+4pobi+KUqLrpaNYabSTYu7d2EE2ExSOUq2SyrBVdHuYtFedG4F6+B5u06lXu+nHHwxahJn8DXvnKN8DnptFpo0aE9tOSmZbXaop23NhJiomv0GInItAU+GdsbZncPYO+fVddmWZEJXH180ZyrpUvyk3H36hnsWroCJ+O14e5VdpMWj/HwQUe5m2T563Sd2rlBEhuDWGFYOcqsN8GD0+cRY94BvgO6oqN1LM6fiRHGVA+TchprNv8FvZ5T8L+mcs0C1chLteXeRUyCNppy66soLxd5+XnSLrfQDO5t3oCplvwFGVJnVLGdVFBW08MiEWvohYHvNIPOP9cQJnz+XHo56dpNiNzfxlBvGzyJDENi6bxUfYzIvYfYRE14ty8/P9h2QGsFN6USUqpeBHDew+MncVO/Cz70s8WDM7/hFltFIUh+gEfZBmje4x00dzKGnokTfAbPwUdty26AY5hYHNx7CUyn8Zg7vDMaWZnDwasbxk+fjAGt9ZCRKCSsAj/tz3svAm9Ogv/wTnCzMoV1o/YYPm8yOosuI+jAHSHlC2hbwd3HB23atMWb3ftjyCezsHL9AvQ0jMTWgIN4rPDhkAboM3EG5s4cjfaNLGBo1hA+fgPQ1roQd6LuCmlkigsbY+jXw9G+oSXMbBqj+zh/DPfMQsiBE+Wuoz2nxHp7LvEMQqNM8Pbw3jCPPo8zVVzGUFbK2bXY9IcINlZyAbw6eakmhonBgT2XoNvzc3w9pCNcLU1g0aAF+k2fj3kzJqO3U73Z3f/TVLGdVFJWE68gMtESHp4WiOWCdIZc2cm9GoE7el7wbJCJG9fuCUNV9Hfl8K1eh36+Bq03J+Croe3R0MIUNk26YvLst2GWJSQiRIH6c0RLO4OTl3OBklsIPi48r1EBI/kbgasOI8PrUyzaEIT9uwLwedtY7D/6QEghk3l+GWYHXIF+72lYFbgDGxdPRSeucG34dhPCS158dpwZuhJfrgvjpp2JlYG7sGXlLPQxvIZ1s5fjfNaLp+Uxpu3xqT93IJo3F9M+GYA3mxgg4cwaTJswD0fvK74exkgiEPjdNkQa9MScVduxd+c6zBvphZSjy7DyaPnm5bwr2xD4oA0+W7UNO7esxGe+Gri4+mtsvFr1o17Krjce/4hNyLlIiDTFuHkuBCnVqU1UwDCZCF0fgPPJZTWL6uSlJjLPL8fstVdh7DcDq7fuxvaAhRjpkYHgVf7YHlV16wd5/VSxnWpdVrkTifCIdLBsIiLDKtwxlhaGCH6XzI/EtRtyNWNObf9uRSknlmLerjuwf+9LrN2+Gz8uGQHrC8uxt+qnzgh5jnFt5Mbq6KrX6/pYsQFsnWygX/AMD+PTUawgyLCsGIbWdjApfIYnaXmyu0iVJJvWFga5CUjMfsmNKCrEPydtaGkLc918PIt/ily5O1j5u2UHr9iJ9x5/g6Grw6Chbw074wIkPElDkcKafRll15tBN3/sGC/CxuHzcCZP+XVWHcrmpab47advaQcLcSYSn6ajsKoWHaKQa6PGiLn36iOIKrZT3ZVV1f5dltGFpb052OQEpOS/vuUgr4eqy1R+Xk49qoFXA1OSjcTYe4h5kvHCAz9/LSv76SM8Ts+vVvDmyaZ9/FoPCDyGKUZ28iM8fPSsXPCuSnFOEuKepCsVvHkvW2+MSBNaJs0wfGAr5F86gd9zhRGvgLLbsKb47ZfLrce4pAwK3vWYKrZT3ZVV1f5dhs1D8uPHFLyJ0uiiIJHi3z3ffe4BHNr9HXpqX8QP2y+h8BUEVkIIIaohNjMzn6+h+ZL3XJN6ohg5KY9x91YU4lKUeTVadYiRl/oAt/88jO2Bh3E7m4L3f5mZmQXSUlOEPkJIbam6TBUXF6nnNXBCyKv1uq6BE/JfoeoyZWmmT03ohBBCiLphNCmAE0IIIWonJVdCAZwQUplEIoGGWMGL9Qkh1cKXJb5MqVJhYTEFcEJIZQX5+dDRlX+LPSGkpviyxJcpVaMATgipJD0jDeYWlhCLy3+LnhBSPXwZ4ssSX6ZUjQI4IaSS3JxsZGdlwsHRGQYGhhBrUCAnpDr4MsOXHb4M8WWJL1OqRo+REUIU0tM3gImxKbR1dCAS0fk+Icrir3nzzeZ8zftVBO8SbRMK4IQQQoi64QM4nVITQgghaogCOCGEEKKGKIATQgghakhkbWMr/CSEEEKIOihKj4dIV0dH6CWEEEKIuhA9eBAr/CSEEEKIuqBr4IQQQogaogBOCCGEqCEK4IQQQogaogBOCCGEqCEK4IQQQogaogBOCCGEqCEK4IQQQogaoq+REULqHUasBZFpC4iM3gCjbSodxhakQZJ5B5K0cLAlhdJh5NURiRjp96z5+KCpqSEdVlRUjPy8HGRnZ0EiYaXDSN3gtwMFcEJIvcFomUGj0Qho2vfmIogGGEkRH81lI9kSsCJNQFKMovgTKL63HWxhqmwcURkNDU1Y29jAzMwCDMMgLzcXhUWyEyYtTS3o6umBZVmkpiYjKTERxcXcNiKvHQVwQki9IbbpBm2v2VzAZrhOVuNTiC3mOhYFN5agJDFEGEhqy8TEDI5OzigoKMDTpARkZmZwNW2JMFZGJBLByMgYVta20NbWxqO4h0hPpxOp140P4GIzM/P5GtxZFSGE1BWNhsOh1fQzMFytm/ufMPQF+DRczVxs/SYXyCWQpF0XRpCasrKygb2DAxITn+Dxo4fIz8+T1rQr4ofl5+dLa+ASbt07ODjy51LIyckWUpDXgW/5oJvYCCF1iq95azYayVW8q3844qfhp+XnQWqOr3nb2NriQWwsnj1NqjJwV8Sn4dPy0/DT8vOoS4yuMQzFqrkur8p5vUrUhE4IqTOMthl0O+8H+GvbtSEpQt7vH4AtUL4pt8nQ7zG5bTJ+WbAUZ1IYYWgZ7xGr8antKfgvPoZkvln/X0pDUwNNm3pJa958QK4JSytr2NjYISrqBoqLioWhLyfdBh0NhL7y0s6vwtcH7gl9L8ayHpi443v0TN6GT6YfxLNabC9VzutV4pvQqQZOCKkzGq4j+Gq00FcL3Dyk86oGfTMHOLv64tNp78C6ihqnvqUjnGxM8JKr8WrP2tpWes07+dlTYUj18dPy8+DnVR38NnAyy0PUxYu4WKG7cj9DSKWMOFw8dhIngq+hOlfjWaehWHfoR4xqLL/9azavukABXM3Up6YddWlmIvUT/6iY9G5zBTes8XHdr7UWFg7Tk3b8b4WxnpsHPy9+ntXBFuRD7DkC0951AKNEs/G/Df+oGH+3OX/DmjLN5orw0/Lz4OfFz7Nacu4geM8eBAUFlesOX30mJHg5hslC5IEAbDodi5JqnRCKoampCbHcJDWf1+tXZwGcbzpZv345RjQXHhGpAsu6YPC367l0Y+GjJoVLx64dhkz/Dut+3I19e3di06pvMNHPE2ai2uefb9oZv3EPdn8/CJavcH3Itg2/3it38/o5SNNUzAvLGuPtmeux7EMP6XhCXkZk1oo7WlZd/vnj5vIRepj3gS56eGtKO/43P0xxEBfL5lkdaWew7VAimgyfjoHOLz8c6jboiQn+y7F51z7s+XEt5o/piga6srKo4TMRm7Z8jbdNysom2/RjrNkSiLm9LYQhfNlxx8g1gVg0yFkYUnf0DYyk//J3m9dW6TxK56kqrPFbmLFhC74d6Pz8JItlzdBzzg/YPK8fbKTHHxP0+SoQa0Y2k47nsSJrtP9wNpZv3ol9+4IQuGYePvIp2w5OAxchcEFf2MAM3edsxRZu2/Xgtl3FeZX2Lx3qjoY9J+GbVYEI2rMN6+Z/io425fdfPnvGXoMx47sAbA/ah+0B32CUjyU6TQrE5nE+QirVqbMALm2+cm6Kvn6doasgGGl498U73s5wcrKCOlylF9v3xdwVX6OfYyrCju7Elp0nEJmkjzajF+P7z9rDUMFyKq/mTTtVNxVV7UXNWlcflt5pWjEvYhhbO8PeQk/aR8jLiAwbcjtm1c8Q922lhTfdK18X54fx46rEzUs6z2opwZ1dy3HwsQuGThsClxecaIsbDcXS5WPhXXwTv25Zjy1HrkPcfgqWze0PK65sF92KQbJlG3RoVVYG3Np2hKuNDVq3bw290vLv1g4dG2rhcdRDWX8d0tPVRX5eXqVHxWqCnwc/L36eKpUeigOhWfD831j0EuKvYadP8VE74K+fTiBRekYngp6pNSyNtaXjWZaB56iFmO1ng0chu7FmdSBOx1mg38yZ6GcjTYLksIPcyVsE0pGDW0e3YtvWI7ghPbyVn1dpv3On8ZjQqRBXDm/F5qCLyHZ9BzPnvA8nlO0zut7jsXLhMLhlh+GnzRuwOyQRTcfNxfte8vNTnTpvQtfx6Y3u5kKPHJbVwZt9O8O0njdhyPMeMBTNso9iwYyl2HnkFM6c2IuNS2Zg+pYbMO82GN3LTv5qpHZNO5Wbil5IQbPWsevp0tHq1MxE6iktruAraD5v+4biK88Kx/Hz4udZXSX3EbQyCA8dPsC0YY0hruJEm2XN0Wf0IJiHr8OMhdtwPPQCzh3dgnn++5DoMQzD2nKH0uxLCLvNBY6WraXzYFlrtPa2w73wcOS6t0IrIduObbxhnXkVl2+//GT6VdPQ0EKRCl/Ews+Ln2e1GHrivXHjMG7sWLluKNpbyNYPf3h5cGAdfknyxIejOkNf7IGPRnZEzvG12BWlKO+OaNXSFlkXdmDNT6dw6XII9i5fgMWbTuJekazWnBsXjj8i4pGPAiTc/AMX/7yOhGLFxzI97dvY6r8ZR0MvIvTYFny75RKKGrZHOyvZeJa1Q/8RvWEcsQmzF27n9pHfceaXjZj9/XXo2snSqFqdBnD23jWEZ7ujZ58GwhA5pt3Ry0cDV8LKP9/JwhheA6Zi8fod2HvgAIICV2PO8HawlDsL4pVr6goMwIIJfmhsIEtT1iTiDa/3v8TyH/fh0JddpeN4pdNu2rkPuzauwPwJvdBQ58WFjT/hsLYxBpv4CA8r7FPJJ77HhPErcT5LGMCpSf4UN+00hXPXyfh+0y4E7d6CVQsmoUcDHWkanqKmotqomBdFXtTkSEh9UfzwAFbujobtoGn42L2KACT2Qgt3ICo8BsaOjnB0cJB2DpJY3E3WRwNXOy7QZODPK3eg490Kzfg4YNQG3i5xCNsajOssN723SFpu2ni7IOfaZVyvfaX330FsCBsnZ+kLZMo6e8hXWBkJd5IV8CuyO43E9Nnj0IM5hYDtN1CksPLwDI8e58K443BM9POBs6GY2z7JCA85h6iUEiFN9RT+cxO3JWV/Lyc6Folc5LEqvW9PsyncG7K4evY00uTyVfzPKVx4JPSoWN3WwItv4OTZBDh384MnU/6g7tynJzxyL+L4xRxhCB80NOAxagkWjmgJ8e1g7AoIwP6LKWjw7mzMHVrWdCZr6poIH407OLZtI3aF3IVuu7FYOP99OEsDvaxJpEHXiRjfJhdXf92GTSeiZdO6fSidtrUoGie3r8f247fBtJ6AZStGovELmtcYJh+3bsZA0mwgPuvnAXO5m7sYSSYSH8cjrVC2UWuev6qbdpzajsXs/5nh1pEt2Lj1GO5otsOk5d9hkJMsleKmotqomJfKXtbkSP7jClO4Ql31I0d/3VH8KJLCcfy8+HnWAH+8jftlBbbfNEP/z0fDU7vC/mljC0uRFtpO2IiNmzbLdXPRw5rhRjtKkz29eAWxRt5o1ZirsXE17cbJEfj7/hVcvaWD5i2b8APh3bgQ4X9frRctV8XFhdDUqOUjfHL4efHzrJb0S9jw5Rx89dWXct0ynIwvv36KonZj/9/GaNPOCZEHduB6geL1xzB5OLthEYJuaqLD6HkI2HMAO1b7Y2wvt7JLGdVUUJQv/BKUFKMETNl7h6ytYC7KQNqzivvnM6TKGi5Vro6b0FlEHzuFGLPO6N2+rMbIMk3Rt7sLks4dQ1i5dSFGasRR7OI2xJcBe3A8NBSHA5cgKKwILi1bwVzabGWOvqMHwf7+DsyeuxlHzobiZNAazFtxCPc1PdFCCGo8XUkYVs1ahb2/BeNUeDw3rQX8Rr0H+3vbMcf/Bxw+ewEhRwMxf3YgYmzfxeh3hIsnCjz4aSnWhOSi5Zil2LprExbNGIOBb7nDQqNsh6lN/hTRdypG8FfzsfN4KC6c/QUbvpqLQ08bYfCHvtKdtbpNRVJVNWt92h0uSu78SjU5kv80SdZ97khbdfA4drUQF25Xbh7lh/HjqsTNSzrPGmKYJBxd+SMijPpi6ietUO5KbloaMrnyE/r9IAweVLkbsTZMli7hT1x5ZIEWbRqiRSsvrqYdhrtcMLly9R9YebeGa+uW8CyJxN9h9eNjLLl5edDR1ZW+HrW2+Hnw8+Ln+SqIbPugVwsGKSl5aNa7H5wrVPoqYtIjsXfxZAwfMgLTvtmA0/GW6DpxCWbL3VCoUs+SkSIxhqllxUs8ljAzEX6qWN0fRRNOIjhSE+16d31+k5d2u77obH4fp49FQb6ViWEKkHjtOA6ei0WxWBdm9q7w8ukMV+MS6RmyPZ9I3Aze7hqICD6CRO7sqFRe5DbMmuKPw3Fyw6Kv465ckwjfTNacn/bUb0iSm1aSdBynI0Vo3LwZNF4QwBhJPM6umYyR4+ZhE1dzL7DtgKHTl+LHwGUY0dpYlqg2+VPk1jkEyz3CyUhicfLcPeg19YSrMKzaqmrWcrCE0reoKdHkSP7bJKlXuTO9qpsz+WI2Y3suFuzPw6mIImnH/+aHKSyC3Lyk86wFJuU01mz+C3o9p+B/TeUOxLl3EZOgjaZejVGUl4u8/Dxpl1toBvc2b8BUS3akYpg4XLqSAKeWw9DdS4zIa7JLgCl/h+O+Y0t81M0b4pt/469XE+OqLSc7U/ov/27z2iqdR+k8VYllLeH32TC4xR+A/xfbcdtuMD4bVHZXekWsyASuPr5obs3tZ/nJuHv1DHYtXcHV6rXhzm3D8sTQUPwwlPIKbuOfWAatevSBudwlXU2PXnhT1kCjcvWgGpSJkJOXUNSsN3rb8hvKEF17dYD29ZM4UUWlU8vlbUxcsAFBBw9ix8YVmDtxIDzlz25sbGApysCzxJef4RaXVDh4SKdNx9PEAmGADMMUISEpDSJrW7ws7PCtYrlPruHE7nX4ZtoIfDTpW+yLscSAWV+glxm3UWuTPwVyU1OQV6E57mlyClgTS9gouN/npapq1vLfi1vKNvsp2eRI/rv4T4LyXxVT1IzOH5t/u1KIr/fkSjv+t+LgLftCmSo+M5pydi02/SGCjVVZ4WGYGBzYcwm6PT/H10M6wtXSBBYNWqDf9PmYN2MyejuVHUrvXL6CFLd2aGNwHVeuCcuW+DcinrihVSt93A67jNx60HzO4z8Jyr/TnP8wCf/lsZrip+XnIX0/enU/M6ptBXcfH7Rp06Zc16ph2YHdouckfOiRgl8DfsLDpyexcV8MXD74DO/aK8pzA/SZOANzZ45G+0YWMDRrCB+/AWhrXYg7UXeFNJykeCRKTOHdpy/aNHOCqcId7OUYJh6/bDuGNI9PseK7z/Dhe/0xeMQsrJrRFNkJQiIVqxftmAWXfkNoSkO87dcEIpte6OVdhEsnQpBZYYdi0RxjFkxBR51I7P5uCj4e9C4+GDEBy0Plqp+pfFOXIYzMarBo3LQZrAEMTSrvFCaGBkBaKpKF/opYVgyxhibEctfJ+eznxP2FfUv344aWF9p4a9cufwroGhpVahkwMTICk5OB1KqPja+esk2O5D+tOGa7LFLXFjcP6bxUgGEyEbo+AOeTy+cr8/xyzF57FcZ+M7B6625sD1iIkR4ZCF7lj+1RcgXt9mVcTeeCY9Q1XBEumzJMLMIi+Gv+dxB2KU02sJ5ISkqQflXMwlK4nboG+Gn5efDzqi7GtD0+9Z8P/wrdV4O9pOP558AnjGiFrOCNCBLuf3h0aD0OcydEwyb3lz4HXhEjiUDgd9sQadATc1Ztx96d6zBvpBdSji7DyqNy8SI/FDt+vAxx2wmYt2gWeteyXpEfuRmfz/oBYTn28Hm7Nzq5FeHssiU480xIoGL1IoAzbBSOnYmFTRc/vP9uD7imhuL4pQo3DPCsGsPNJBuX9m7CibAYpHIn2yyrBVdHuR0vLxr34jXQvF2ncs+XMw6+GDXpE/jav+BgIZ1WCy06tIeW3LSsVlu044JvQky04jNnUUtM3f0LAse3rPQYioY9X+suQFYWl+Ha5E8BxsMHHeXatlnWFJ3auUESG4NYYZiMipqKlKFkkyP5b+PfXc5/EpRla74/8NNK51GN96DzrgYMQ79PfsDdKso0k/MXlo/wQ78pQcJzxtwwpgAPQ9Zi6rDB+GDkeEwYPRRDRk7HhvPx5W5IYxCJdcP90P+r35AlN/zmpo/R750Z+KWK967XJf7d5fwnQW1t7WBkVP2Ltfw0/LT8PKrzHnQevw38/PpW2b33/QVpGiYjFN8O9cMnGyJQWLot2Fjs/Kw/Bs35Vbp9GCYVB2f4YejqsopB7j8/Y8HYoRjKbauJ40fgg/dH4Kutl8q9155hShD720J8+sH/MIKrLf/0iB9Wfl5VzZvHPDuAqf3+h3Xh5bdndvRvWL9wNj4bPw5TvlqJQ7cBQ33+3eW5QgrVqRcBnPfw+Enc1O+CD/1s8eDMb7jFVrGTJz/Ao2wDNO/xDpo7GUPPxAk+g+fgo7ZlN8DxZ7oH914C02k85g7vjEZW5nDw6obx0ydjQGs9ZCQKCavAT/vz3ovAm5PgP7wT3KxMYd2oPYbPm4zOossIOnBHSFkF7owvOOQxTHtMxTdjBqBLcxfY2Ligedfh8P/qPdg8Po3TkWyt8qdIcWFjDP16ONo3tISZTWN0H+eP4Z5ZCDlwAqmlO6sKm4qUUZ0mR/Lfxn/Pu+jethoFcX4aftrX+U1w/qCfm/wIcUkZKKzqOKWG+O95JyYkoIGLi/TDJMo0p/Np+LT8NPy09fGb4AxTjGxuWz189Ay5L7ifiC3JRkpKNoqVWG5F+FZY137fIGDh/+AmPHbMH2aNvN+Fr0sJ7ka/IH7UUP05iqadwcnL3BlKyS0EH6/6DUWM5G8ErjqMDK9PsWhDEPbvCsDnbWOx/+gDIYVM5vllmB1wBfq9p2FV4A5sXDwVnbgAvOHbTQgvefEGygxdiS/XhXHTzsTKwF3YsnIW+hhew7rZy3E+S/G0/HXyG1v8seRQDCx7fILpiwKwZUsAFk7pD6vYn/GdfyBuCY+R1SZ/Vcm7sg2BD9rgs1XbsHPLSnzmq4GLq7/Gxqty1/JV3FSkDKWbHMl/XvH9XSi8vog7ES7ijnpK7Bt8Gi4tPw0/Lam9p08TEffwIVfxsIPbG01hYmJa5d3p/DB+HJ+GT8tPw0/7X8ef2D2IuISnjkOxfHsgVn23GN+v3orABX2gc3UzNp1S/c19jDp+TpQVG8DWyQb6Bc/wMD5d4VkTf0ZkaG0Hk8JneJKWB0k1zq5k09rCIDcBidnVe/CfFenAnNuxzbXzuIpvIjILq67t1iZ/PP59wINX7MR7j7+RNu9o6FvDzrgACU/SUCR3h7s8hlt3/CMNGclZtTrbrA5+OfUt7WAhzkTi0/R/Ta2FqB6jZQaNRiNkHzkRaXAn7VxAL31fOlvClS1NLnDLblgrvrcdbGF9/16U+tHQ0IS1jY30wyR8LTsvNxeFRbKbA7U0taCrp8eVadnNb0mJiShW4Zvc/g0YHTu07NAajeyMoZGXjif/XMaFm09VfrzlPyeqlgGcyFQM4IT8W/BfFROZtoDI6A0w2qbSYWxBGiSZdyBJC1fJ3ebkxfivihkYGIKPD5qasjvyi4qKpYEjOzur+nebE5WiAK7mKIATQsh/Ex/AxWZm5vM1NKv58nlSTxQjJ+Ux7t6KQlxKFXftE0II+VfiL11QDZwQQghRM3wNnJ7lIYQQQtQQBXBCCCFEDVEAJ4QQQtQQBXBCCCFEDVEAJ4QQQtQQBXBCCCFEDVEAJ4QQQtQQBXBCCCFEDVEAJ4QQQtQQBXBCCCFEDVEAJ4QQQtQQBXBCCCFEDVEAJ4QQQtQQBXBCCCFEDVEAJ4QQQtQQfQ+cEFKJ2KoDNJwGQ2zShOvRFYYSQqqtJA8l6f+gOO4ASp7+KQysPf574BTACSHlaL3xCTRcPhT6CCGqUhy7G4V3tgh9tcMHcGpCJ4Q8J615U/Am5JXgyxZfxlSFauCEkOe0W6+C2LyF9HdJ8l8ovLkMbEGytJ8QUn2MtgW0PGdCbNFW2l+SEo6CK59Lf9cG1cAJIeWIjBsLv4DCWysoeBNSS3wZ4stSKfkyVlsUwAkhzzEaesIv7sCT/1T4RQipDfmyJF/GaosCOCGEEKKGKIATQgghaogCOCGEEKKGKIATQgh5bvXKZcIvUt9RACeEEELUEAVwQgghRA2JrG1shZ+E1A6jawxDMSv01a36lBfyarGsJqwat8Nbvp3R3F723nba/uS/QKSroyP8fL2aDP0e69fMRHfzqguZ94jVWD+nDyzY118IpXlbvxwjmouFIZWxrAsGf7ueSzcWPnWQx5rQsWuHIdO/w7ofd2Pf3p3YtOobTPTzhJmo9vlnWQ+M37gHu78fBMtXuD5k24Zf75W7ef0cpGkq5oVljfH2zPVY9qGHdDz592BZI3ScugGbl3+NqZOnYkhr/de2LxJS10QPHsQKP18vfTMHOLv64tNp78C6ikKmb+kIJxsTaAj9r5M0b85N0devM3QVHAA0vPviHW9nODlZQR1eRCu274u5K75GP8dUhB3diS07TyAySR9tRi/G95+1h2GtD3RxuHjsJE4EX0OqMERZrNNQrDv0I0Y1fnke+G3jZJaHqIsXcbFCd/VhtpCqYl7EMLZ2hr2F6l6gQOoJI1/0726LhwemYtjA9zDn12fcwJrvi1Wpzv5JyOtUp9fA2YJ8iD1HYNq7DmDq4Zmyjk9vdDcXeuSwrA7e7NsZpgwjDKn/vAcMRbPso1gwYyl2HjmFMyf2YuOSGZi+5QbMuw1GdwshYQ0xTBYiDwRg0+lYlFR7vYihqakJsbKT5dxB8J49CAoKKtcdu54uHV27vBC1YmoMYy5MR4XdRS7Xy4J5Bdu/mvsnIa+J2MzMfL6GppbQ+/rY+QyEr8l5bAnWQ8/BPij66zRuZwgjOU4dP0AnoygcPXED2UIh1G3QE2OmjMcnn4zCkD6d0cy2AA9u30d6MQMNn4nY8E1PFPweivv5svRs04+xdslnaFP0J36/xxdvPvi6Y9TaJRhsEImz8n9QjjRvuI1wzWbwYv7E8esV0pn2wviJrRB39Tbs7IpwKSgUD7g8styhpNmA8Zg6mcvjyGEY2Ksj3jBOR/T1R9zBpaz0l1sOP194O4jwJCoaKYXcPFgT9P16PT51jENi01H4YupEjPNKxf4LspaS0mlHjx6FD3q0R3NnEeJu3EUatw4U4U84WvT/CK2zQ7DlzF0Uyx3UcmOu4PffryEmLRP5JVWsZyXzt+/3NOnwSY0e4GREkly6u7hjOQRfzpqMUf/ri07eTmBjryMmvVj6t5wGLsLKcW1hpWcE59Zvo5dfM+Rz2zBG2IYVSbeNzUMEH7mKVAUH59K/XZoXbong0XMAmmaG4ufLT2SJOC/an/6rNBuNEH4BRTHbhV8vVrat7+ORy0eYMWUcPu7fEU30nyH8RgaaDP4cU8aNxSfD/NDWuQT3I+5I91dxy7EI+HYgdMLPICqzbJ2zNv2xcPVUuCedRlh8iTC0Mq+Ra7F4ZAtu3zGEUyt+3+kEneuncDPNVMG+WLlMsSJrdBg2GVMnjsGoDwej95seMEm9hch42fGiuvsnr6brQzptPTiG9OrZAyeDT0t/E9WpSdl6keLiorq+C70Ed3Ytx8HHLhg6bQhcXnAtVtxoKJYuHwvv4pv4dct6bDlyHeL2U7Bsbn9YcbX3olsxSLZsgw6typpJ3dp2hKuNDVq3bw290hq+Wzt0bKiFx1EPZf2KFN/AybMJcO7mB0+mfL6c+/SER+5FHL+YIwzhC60GPEYtwcIRLSG+HYxdAQHYfzEFDd6djblDGwqpSpdjInw07uDYto3YFXIXuu3GYuH89+HMFV++UUTP1BoNuk7E+Da5uPrrNmw6ES2b1u1D6bStRdE4uX09th+/Dab1BCxbMRKNX7DuGCYft27GQNJsID7r5wFzuZt7GEkmEh/HI40r+Lya50823NJYWzqf0n6ntmMx+39muHVkCzZuPYY7mu0wafl3GOQkS5UcdhDbDkUgHTm4dXQrtm09ghulLeE1VjEvlb1sfyLVIVvfzm+OxajmSQjZvxvHb2vAa9gsLPj2W3zaNBHnD2zHT2fjYfbWeHwxRPYxh+LISDwwaIbub7lI+0s5d30b3saPcT2iQBhStccX9lTYd/bjL+krp6veFyvusyzLwHPUQsz2s8GjkN1YszoQp+Ms0G/mTPSzkU1Zs/2zZuujPh9DSP1U94+RldxH0MogPHT4ANOGNYa4ioMny5qjz+hBMA9fhxkLt+F46AWcO7oF8/z3IdFjGIa15RYj+xLCbnMFsmVr6TxY1hqtve1wLzwcue6t0Eq4mO7YxhvWmVdx+fbLdlYW0cdOIcasM3q3L7vRj2Waom93FySdO4YwWSVSIEZqxFHsWu2PLwP2cHkMxeHAJQgKK4JLy1Ywl+bJHH255bC/vwOz527GkbOhOBm0BvNWHMJ9TU+0EIIaT1cShlWzVmHvb8E4FR7PTWsBv1Hvwf7edszx/wGHz15AyNFAzJ8diBjbdzH6HeGIo8CDn5ZiTUguWo5Ziq27NmHRjDEY+JY7LDTK1kNt8qeIvlMxgr+aj53HQ3Hh7C/Y8NVcHHraCIM/9JWeVOXGheOPiHjkowAJN//AxT+vI+FlNWBDT7w3bhzGjR1b1n3aHS5KBl6l9idSbXpMBDYv2onToacQtGolTj4ywBsuj7CVH3bhHH4JXIDAP3Jg5+Utuzm1OAxn/0yHY6cuz7cdyzrCt1MDZF0KwZ/50kEKpd37q8K+cxUPcxXvO5X3WUe0ammLrAs7sOanU7h0OQR7ly/A4k0nca9IdgNrjfZPQbXXRz0/hpD6p14cqYofHsDK3dGwHTQNH7tX0Zwv9kILdyAqPAbGjo5wdHCQdg6SWNxN1kcDVzuulpmBP6/cgY53KzTjy5dRG3i7xCFsazCus9z03iJuBzZBG28X5Fy7jOsS2axfKOEkgiM10a53V5Te5KXdri86m9/H6WNRkJ8FwxQg8dpxHDwXi2KxLszsXeHl0xmuxiWAjS3s+UTiZvB210BE8BEkyjWH5UVuw6wp/jgcJzcs+jruSuQOFNw6aM5Pe+o3JMlNK0k6jtORIjRu3gwaQh6rwkjicXbNZIwcNw+buLPuAtsOGDp9KX4MXIYRrY1liWqTP0VunUOw3EetGG6bnTx3D3pNPeEqDKs2sSFsnJzhKN85WELpW9SU2J9I9eXfu40YYZ9gmDg8eFgEJD1GnNAKzjAlePosnSubJjAV+q+duYAU+47o4iZLgwa+6OCYhj9DwlR+/0LlffYZHj3OhXHH4Zjo5wNnQzGXp2SEh5xDVIripntlVX991O9jCKl/6kUA58tp3C8rsP2mGfp/Phqe2hV2Im7ntRRpoe2Ejdi4abNcNxc9rBlutKM02dOLVxBr5I1WjbmzX66m3Tg5An/fv4Krt3TQvGUTfiC8Gxci/O+rSh4cMhFy8hKKmvVGb1u+dmCIrr06QPv6SZyootKp5fI2Ji7YgKCDB7Fj4wrMnTgQnibCSJ6NDbccGXiWWCgMUKy4pMIBRDptOp4mlm9WZJgiJCSlQWRti5eFHX6Rc59cw4nd6/DNtBH4aNK32BdjiQGzvkAvM26d1yZ/CuSmpiCvwrp+mpwC1sQSNjV9xCD9EjZ8OQdfffVlWee/F7eUPeAruT+R6ikqLtckJSNhUX5PKV+2JbdCcCHRBh26NJX2u3V5E/ZP/8DpiCrmVUsV91mGycPZDYsQdFMTHUbPQ8CeA9jB1X7H9nIru+RWCzVZH/X9GELql3rTVsgwSTi68kdEGPXF1E9aQfY6BkFaGhdKCxD6/SAMHlS5G7E2TJYu4U9ceWSBFm0aokUrL66mHYa7XCG9cvUfWHm3hmvrlvAsicTfYS/f+UsVXPoNoSkN8bZfE4hseqGXdxEunQhBZoVgwaI5xiyYgo46kdj93RR8POhdfDBiApaHylU/U/nlMISRWQ1WOzdtBmsAQ5PKQcrE0IBbR6lIFvorYlkxxBqaEMtd4+KznxP3F/Yt3Y8bWl5o461du/wpoGtoVOms3sTICExOBlJVf4xWjrL7E3nlGOYezoQ+hHUHXzRFI7zV0Q6PQ08jWtmTsVpi0iOxd/FkDB8yAtO+2YDT8ZboOnEJZveu5WMZNVCfjyGkfqo3AZzHpJzGms1/Qa/nFPyvqVz1LPcuYhK00dSrMYrycpGXnyftcgvN4N7mDZhqyRqz+WaqS1cS4NRyGLp7iRF57bp0eMrf4bjv2BIfdfOG+Obf+CtPOlgpDBuFY2diYdPFD++/2wOuqaE4fqmKi3NWjeFmko1LezfhRFgMUrlzBJbVgqujlZCAkxeNe/EaaN6uU7nnyxkHX4ya9Al87V9w1i+dVgstOrSHlty0rFZbtOOCb0JMNHIVHfRELTF19y8IHN+y0j0GGvb8WXkBsrK4DNcmfwowHj7oKNe2zbKm6NTODZLYGJR/A4EYGorfm6NaSu5P5PV4cPo8Ysw7wHdAV3S0jsX5MzHCmFeLFZnA1ccXza25inF+Mu5ePYNdS1fgZLw23Ll9o7zXsH/W52MIqZfqVQDnpZxdi01/iGBjVRbAGSYGB/Zcgm7Pz/H1kI5wtTSBRYMW6Dd9PubNmIzeTmWLcefyFaS4tUMbg+u4ck2o4iX+jYgnbmjVSh+3wy5Xeyd9ePwkbup3wYd+tnhw5jfcYquYPvkBHmUboHmPd9DcyRh6Jk7wGTwHH7UtuwGOYWJxcO8lMJ3GY+7wzmhkZQ4Hr24YP30yBrTWQ0aikLAK/LQ/770IvDkJ/sM7wc3KFNaN2mP4vMnoLLqMoAN3hJRVkEQgOOQxTHtMxTdjBqBLcxfY2Ligedfh8P/qPdg8Po3TkWyt8qdIcWFjDP16ONo3tISZTWN0H+eP4Z5ZCDlwouwxsKR4JEpM4d2nL9o0c4JphZMMVavO/kReg8QzCI0ywdvDe8M8+jzOKL4nUsUaoM/EGZg7czTaN7KAoVlD+PgNQFvrQtyJuiuk4byu/bM+H0NIvVTvjlQMk4nQ9QE4n1y+kGSeX47Za6/C2G8GVm/dje0BCzHSIwPBq/yxPUquLfb2ZVxN52JW1DVcESrK/I4bFpHCnWreQdilNNnA6kg7g5OXc4GSWwg+XvXjZ4zkbwSuOowMr0+xaEMQ9u8KwOdtY7H/6AMhhUzm+WWYHXAF+r2nYVXgDmxcPBWduMKz4dtNCBeew1YkM3QlvlwXxk07EysDd2HLylnoY3gN62Yvx/ksxdPy17hubPHHkkMxsOzxCaYvCsCWLQFYOKU/rGJ/xnf+gbglPEZWm/xVJe/KNgQ+aIPPVm3Dzi0r8ZmvBi6u/hobr8pdh8sPxY4fL0PcdgLmLZqF3q/hErTS+xN55RgmDSHnIiHSFOPmuRCkvK7mc+7ENvC7bYg06Ik5q7Zj7851mDfSCylHl2HlUblm69e0f9bnYwipnxjXRm6sjq46vAxUhr+eq29pBwtxJhKfpqOwqtpwHWLFBrB1soF+wTM8jE8v99IUefxyGFrbwaTwGZ6k5UFSjYOWbFpbGOQmIDFbuZvJSrEiHZjb2MFcO4+rWCQis7Dq2kRt8sdjWTMMXrET7z3+BkNXh0FD3xp2xgVIeJKGIrk7YOUx3LozMwEykrMUrjdVq+/70+um1/O88AvIDfYVfr16Bt38sWO8CBuHz8OZPNk2YDV64NtfPkNLBfvClTXvYv7pIqGv5vjnrw0tbWGum49n8U+Rq+DpitL9Mz29PfwPT3ll+arrYwj/PfCp02YKfURVVF228vNy1C+AE/VQMYAT9fC6Azgj0oSmUVOMXrwQnWIWY+TySygUAhHLWKCpTyPI34Qtj38OPDrl1V5uqUp9zZeqUAB/NSiAE7VBAVw9vc4Azr/it8f8fZjSRhPFSb9j1RdLEJqifC2SvBoUwF+NVxHA6W4d8opk4e+g5dh4/J7QT0hFLG4eWoYlC6ZjzHgK3oRUF9XACSHPve4mdEL+K6gGTgghhBApCuCEEEKIGqIATgghhKghCuCEEEKIGqIATgh5ji3OFX4BjI7cO7gJITUmX5bky1htUQAnhDwnyYgWfgFaHtPBaL/+r3IR8m/ClyG+LJWSL2O1RY+REUKeE1t1gHaLxUIfIUTVCsK/RMnTP4W+mqPHyAgh5fAHluLY3UIfIUSV+LKliuBdimrghJBK+Jq4htNgiE2acD26wlBCSLWV5KEk/R8Uxx1QafCmd6ETQgghaoia0AkhhBA1RQGcEEIIUUMUwAkhhBA1JLJ1dBZ+EkIIIURdiFAiEX4SQgghRF2IEuIfCz8JIYQQoi5EYFjhJyGEEELUBd3ERgghhKghCuCEEEKIGqIATgghhKghCuCEEEKIGqJ3oRNCFNLW0YE+d3zQ1NICwzDCUELIy7Asi6LCQuTk5aAgP18Yqjr0MRNCiEKGhkbQ0dFFVlYmCgsLIJHQOyMIUZaIEUFLW1tajvLz86TlSJXoYyaEkCrxNW9dLninpDyTHnwoeBNSPRJWIi07fBniyxJfplSNAjghpBK+2TyTqzFQ4CakdvgyxJclvkypGgVwQkglmpqa0ut3hJDaKywokJYpVaMATgiphBHxn0koEfoIIbXBN6fzZUrVKIATQgghaogCOCGEEKKGKIATQgghaogCOCGEEKKG/hUBnNE1hqFYNZ9FVeW8yKtVn7YV7TfkVWBFGhCjfuxX9SkvRKbO3sTWZOj3mNzRQOgrL+38Knx94J7Q92Is64GJO75Hz+Rt+GT6QTyrxeseVTmv6pCtCzHCfpiF7ZFV3/nLsi54f+EM+Jpdx44Jm/C3GrzWUseuHQYM6Y8OTRxhaSBBemIsboQcwN7jN5AqqV3+X9e2etF+mnTyOyw4+rhSXp7CBD2+WIweCRswc/ctIbV6sbGxQ2LiE6FPdURaxjC3toSpgQ40uepDcWEuslITkZSSgxIotw1ZVgwzZzeYF8ThXlKuMLRuqGJ5FGFZPdh7NIFF0SPcvvMUxa9oH9ezcoODqVjoK68w+T4epBRWyksRNOrNNlAXqi5TdfomNn0zBziZ5SHq4kVcrNBduZ8hpFJGHC4eO4kTwdeQKgxRBus0FOsO/YhRjeXPKGs2r9ri14Wzc1P09esMXbbqM1wN7754x9sZTk5WUIcX34rt+2Luiq/RzzEVYUd3YsvOE4hM0keb0Yvx/WftYahgOZVX821V9bav2ov206sPs4VUFfMihrG1M+wt9KR9RIbRMoezmyssdYqQ8fQJniQ8Q2Yht67sG6ORownESu8TDDS09KClVXXQqQ1WywZvNHOHre7L86K65VGkABnPniE5OZM7Gaie6iyHSEsbOholyE1LR3qFLjO/9C9XzMur2wZEeXXbhJ5zB8F79iAoKKhcd/jqMyHByzFMFiIPBGDT6ViUVOsMVSx9sF4sN0nN56UaOj690d1c6JHDsjp4s29nmKpBrbuU94ChaJZ9FAtmLMXOI6dw5sRebFwyA9O33IB5t8HobiEkrKHabavK2/6FFOynx66nS0fX9X6jLvStbGFYkoQHdx9wNdRUpKUmIeHhXdyNz4KWmTVMNYSEdYnffkpuw1e9PAxTgpxnj/AkrQBsdferaiyHVEkukpMS8PRpYrkuNUcI17XJC3llxGZm5vM1NLWE3tfHzmcgfG0eIvjIVaQq2CFY47cwc9Vc9NaJxPnb3MGSS8eyZuj15Rp80RW4cj4aWTBF36/XY1KjBzgZkSSbTmSNDsMmY+rEMRj14WD0ftMDJqm3EBkva+pxGrgIK8e1hZWeEZxbv41efs2Q/3so7uWVnxfLmkj7P3W8hxi7DzB10liM+WgAfJtZIfOfSDzKLju75U+2TZoNxuTPJ2DM6I/wbhcvmCXfgv6AdfiqZSJ+uxIvpKxMui5wG+GazeDF/Inj1yu0QJj2wviJrRB39Tbs7IpwKSgUD/h1AWM0GzAeUyePxycjh2Fgr454wzgd0dcfIVeu+U63QU+MmcKl+WQUhvj5wttBhCdR0Ugp5Ndn6TLGIbHpKHwxdSLGeaVi/4XYctOOHj0KH/Roj+bOIsTduIu0YsWFmD/haNH/I7TODsGWM3fLNf3lxlzB779fQ0xaJvJLZMNrkr99v6cp2FZ3ccdyCL6cNRmj/tcXnbydwMZeR0x6sfRvKdr2MflVL49S+6nwt8v2QV149ByAppmh+PlyWZNZueXs0xnNbAvw4PZ9pL9gXdYVAwNDZGdnCX3Vx4r1YGFnAQ1uHoXcvsiyDAwtHbiAl4KE1NxyQaAkNwNp/P5QXAKJsN+KtM1g6+TI7e8OsLYwgb6WBLk5eSjh5sPXO/TNraFfkopnmWVvi3vxNDLl05jCQJtFQU4uirk0OhaN4MbVnLXEWtAxMoe5uQFK0tKQLzd9qdotT/m/y18SMHdxh51WHgr17ODs5AR7g0IkpRVJhzvo5CA1u0guXQ7yNG3g7OwEWxsLmBjogM3L4sqT9E9Vazl4WkZWMNXKRwpXu1bUTF/6t0vzUtNtIDK0hb0hg9y8gufr5r+itmWqouLionp+E1t6KA6EZsHzf2PRS6ixGXb6FB+1A/766QQSpTubCHqm1rA01paO5wuW56iFmO1ng0chu7FmdSBOx1mg38yZ6GcjTYLksIPYdigC6cjBraNbsW3rEdyQtoaWn1dpv3On8ZjQqRBXDm/F5qCLyHZ9BzPnvA8uNAjpuIOz93isXDgMbtlh+GnzBuwOSUTTcXPxvpf8/F6g+AZOnk2Aczc/eDLlm72c+/SER+5FHL+YIwzhl1MDHqOWYOGIlhDfDsaugADsv5iCBu/OxtyhDYVU3Blao6FYunwifDTu4Ni2jdgVche67cZi4fz34SzNv2wZG3SdiPFtcnH1123YdCJaNq3bh9JpW4uicXL7emw/fhtM6wlYtmIkGovK51Eew+Tj1s0YSJoNxGf9PGAud3MXI8lE4uN4pHHBmVfz/FW9rZzajsXs/5nh1pEt2Lj1GO5otsOk5d9hkJMsleJtXxsV81KZbDnHwrv4Jn7dsh5bjlyHuP0ULJvbH1a1bmqtPxiRHsztG8HdvQlsjTWfH6IZbp/Ozeb2X0MbOFjoQ0Ou7PC1O/61rcVCakbHBq5vOMFIkoVn8Q8Q/zQLIpMGeMPFEpoK1pUy08jSNIAxk4PkJw+RmJIDkbETXBvaQIdLU5iVhPgkLohx/+U8fYz4+CRkK2i7rv7yKP67XAqINbSha8YFbmMJMp89xuNnfFmXDdfULG2mlvXrmDjAyUYT2Xy6+GfIERnD4Y03YMGdFPCqsxzKq5iXypTZBvyJgKGdG5q6u8HOXK9e3hTn7OQAA33FFyr5cXya+qBuA7ihJ94bNw7jxo6V64aivYVso/Lx+cGBdfglyRMfjuoMfbEHPhrZETnH12JXFH8WWBVHtGppi6wLO7Dmp1O4dDkEe5cvwOJNJ3GvSLbz5caF44+IeOSjAAk3/8DFP68j4QW1ID3t29jqvxlHQy8i9NgWfLvlEooatkc7K9l4lrVD/xG9YRyxCbMXbsfx0N9x5peNmP39dejaydK8HIvoY6cQY9YZvduXfbWGZZqib3cXJJ07hjBZJVIgRmrEUexa7Y8vA/ZwfzMUhwOXICisCC4tW8GcKzAsa46+owfB/v4OzJ67GUfOhuJk0BrMW3EI9zU90UIIajxdSRhWzVqFvb8F41R4PDetBfxGvQf7e9sxx/8HHD57ASFHAzF/diBibN/F6HeEsyEFHvy0FGtCctFyzFJs3bUJi2aMwcC33GGhUVZga5M/RfSdihH81XzsPB6KC2d/wYav5uLQ00YY/KEv9Lh1Ut1tL1XVfvppd7gIB6WX4ZezD7ec5uHrMGPhNm5bXcC5o1swz38fEj2GYVjb+n0erQxGpAtTu4Zo7MEFbkMW6fF38M/th8iUq/XlPY1FXEoxDB2awN3THQ2d7GFhrFcu+LGsJszsbaCV9RB3HzxBakYGMlKeIObeExTo28PGqPK2UmYaaRo7LmDmPcK9mMdISU9H6tNHiH2QhDyRAbhKLCQFWcjMLkAJ919BTjqysnJRJAThqii9PC/5u6VEyEDc3Yd4yjfH5yh+D72Ymyb1XgySUtORmf4M8TF38axQD9a2phBx+2R1l0NKwwBW9g5czdlerjMVTjBeTtntxmY/5vaLfxCfzsLIrgmaNnWDrVn9CuSFhdwxtIFjlUGcH8aP49PUB3V75BAbwsbJGY7lOnvIV2QYyX0EBfyK7E4jMX32OPRgTiFg+w0UKWjqAZ7h0eNcGHccjol+PnA2FHMnAskIDzmHqJSanYYW/nMTt+Xums6JjkUiLGFlKwzQbAr3hiyunj2NNLl8Ff9zChceCT3KSDiJ4EhNtOvd9flNXtrt+qKz+X2cPhYF+e9CMUwBEq8dx8FzsSgW63KFxxVePp3haswto40t7PlE4mbwdtdARPARLr9l+cqL3IZZU/xxOE5uWPR13JW/M1zsheb8tKd+Q5LctJKk4zgdKULj5s2g8YLCzUjicXbNZIwcNw+buJp7gW0HDJ2+FD8GLsOI1sayRLXJnyK3ziH4qfCbw0hicfLcPeg19YSrMKzaqtpPHSyh9C1q3Lps4Q5EhcfA2NGRm9ZB2jlwebubrI8Grkqf5dU7LKMDU+uGeIML3HZc4E57HIWof+4hITX7eQ20FINCpD/6B1FRd/H4aTYkWiawacAdxN3fgI2BULNj9GFowJWxzFyItbWhpaUl7bSRhzzuBFxHt4rLfcpMwxhwaRhkJT8rd+yQ5HJB5k4MkguU2LcqUG55lP+7kpws5Cs8rsnJTkGqXPxguJPRlFRu2fUMUeMPVjIa0NLVhbZ8p62lfICoxnZjS3KR+iQG0bdu41EqdwJky62zJo1ga6Krghv/ai8hMQmp3MlRxSBeGrz5cXya+qBuA3j6JWz4cg6++upLuW4ZTsaX34mLonZj/9/GaNPOCZEHduD6Cwobw+Th7IZFCLqpiQ6j5yFgzwHs4GqpY3u5SWtgNVFQlC/8EpQUc+e2DFfrEPqtrWAuykDas3JVZM4zcNu6GjIRcpKr3Tfrjd7cyQHLGqJrrw7Qvn4SJ6qodGq5vI2JCzYg6OBB7Ni4AnMnDoSniTCSZ2MDSy5fzxJf/lWp4pIKJzfSadPxNLFAGCDDMEVISEqDyNoWLws7/LEo98k1nNi9Dt9MG4GPJn2LfTGWGDDrC/Qy47ZFbfKnQG5qCvIqHASfJqeANbGETU1vKqpqP/Xfi1vKHGx53AmVpUgLbSdsxMZNm+W6uehhzXCjHYWE6kdsYg8HGxNo5j/Fw7uxSErLk5YNRRhunUkKs2S10LvciTEX7BNztWDZwAVm/KUWLe7gzx2WjJ08uUDoJde5wVyb4UbrCnOSo8w0fEDh9t3CQtUGiJcvj/J/V6JkLbSkqBiSCvtecVEhWE1NcItbM0XpeHzvLmJj7pV1sUnIVXYfr8F2YyX5SE98gPtcjT1fwxiWfOWtnjRGxScklgvi8sGbH1df1JPV9WIi2z7o1YJBSkoemvXuB+cK14grYtIjsXfxZAwfMgLTvtmA0/GW6DpxCWb3ruWtz4o8S0aKxBimlhUjhCXM5AOqEgou/YbQlIZ4268JRDa90Mu7CJdOhCCzQkFi0RxjFkxBR51I7P5uCj4e9C4+GDEBy0Plqp+padwpgSGMzGqwmblpM1iu9mBSuQCb8KfaaalIFvor4q9ziTU0IZa7Ts5nPyfuL+xbuh83tLzQxlu7dvlTQNfQqFLLgImREZicDHAn+3UjjV/OAoR+PwiDB1XuRqwNExKqn5LU+4jmDsBZInO4eHigob0F9Ks4UeI3Cb9VWLkgJQ1+BZl4+jAROSJuPzDi9oPiIhRxoSwt9hpuRFbuoh5V8YipMtMUFaEYmtDQrGmEK0/p5VHx3+WJNMRgKuzjYrEGGO4kt6j84NenmtuNz76GnjnsXd3RxNUa4uwneBgdg1QFN9rVBfkgXh+DN6/eB3CWtYTfZ8PgFn8A/l9sx227wfhskHOlHbgUKzKBq48vmltzZ7T5ybh79Qx2LV3B1eq14e7VWEhVSgyuLNRewW38E8ugVY8+MJcr0JoevfBmNStXDBuFY2diYdPFD++/2wOuqaE4fqlCCwDPqjHcTLJxae8mnAjjdnyuEsuyWnB1FC7M8/KicS9eA83bdSr3fDnj4ItRkz6Br/0LSrt0Wi206NAeWnLTslpt0Y4Lvgkx0YrPzkUtMXX3Lwgc37JSk5iGPV/rLkBWFpfh2uRPAcbDBx3l2rZZ1hSd2rlBEhsD2X31pVS07ZWRexcxCdpoyu1/RXm5yMvPk3a5hWZwb/MGTLXkL46oF/5mrsKMRDz45wbuxqWgxMAeru6e3H5oCUMtuf2DMYSTZ0u42xtWKrsibW1oMhKuZsmth5Jc5BeIoGegz9XQJJBwafmuhNWEnpF+1Y/+KTONJAe5+QwMjI2l14lLsXyzt4MdjLTk88RITzhfSNnlqdbfVQ5jYAz+3KAUf0OrsbE+V55ykCcMk1FiOVRFye3G32SsaWAJRzcPNHVzhKEkHY/u3OSOnwnIKKj+unjVSoN4fQzevLoN4NpWcPfxQZs2bcp1rRqWVVstek7Chx4p+DXgJzx8ehIb98XA5YPP8K69oj2zAfpMnIG5M0ejfSMLGJo1hI/fALS1LsSdqLtCGk5SPBIlpvDu0xdtmjnBtEIhrA6Giccv244hzeNTrPjuM3z4Xn8MHjELq2Y0RXaCkKgaHh4/iZv6XfChny0enPkNt6o6K01+gEfZBmje4x00dzKGnokTfAbPwUdty66CMUwsDu69BKbTeMwd3hmNrMzh4NUN46dPxoDWeuCOuwrx0/689yLw5iT4D+8ENytTWDdqj+HzJqOz6DKCDtwRUlZBEoHgkMcw7TEV34wZgC7NXWBj44LmXYfD/6v3YPP4NE5HsrXKnyLFhY0x9OvhaN/QEmY2jdF9nD+Ge2Yh5MCJssfAVLjtlcEwMTiw5xJ0e36Or4d0hKulCSwatEC/6fMxb8Zk9Haq9+fRL8UH8nxpIL+Ju49SIdG3h0uThjArbS1js5CSmgdNc2e42FvCWI8Lclra0DexQQMXG2hzJ9sp2fx88vE0IQ1iLp2ztQl0ubMsDW1DWDi5wsXZCeY6lbeVMtPw94w8S0wDY+KMBjZ8Gk1o6ZnC3rkBrIzEkJRexSnMRyG0YGhhAQN9bcX3eSi9PEr+3WpgJfqwacgFfx1NiDX4+18awtawGKmJ3AlU6T6u7HKoiLLbTWzmwtW47WFQkobH0TdxJzYeGfkl3PSKjud1jw/c9TF48+r0yMGYtsen/vPhX6H7arCXdDz/HPiEEa2QFbwRQXdk7Z+PDq3H4SduGDa5P2yq2CkZLngEfrcNkQY9MWfVduzduQ7zRnoh5egyrDwq17ycH4odP16GuO0EzFs0C71reRkyP3IzPp/1A8Jy7OHzdm90civC2WVLcEb5d9KUSTuDk5dzubPaWwg+/lAYWB4j+RuBqw4jw+tTLNoQhP27AvB521jsP/pASCGTeX4ZZgdcgX7vaVgVuAMbF09FJy4Ab/h2E8KF57AVyQxdiS/XhXHTzsTKwF3YsnIW+hhew7rZy3E+S/G0/HXyG1v8seRQDCx7fILpiwKwZUsAFk7pD6vYn/GdfyBuCY+R1SZ/Vcm7sg2BD9rgs1XbsHPLSnzmq4GLq7/Gxqty1/JVvO2VkXl+OWavvQpjvxlYvXU3tgcsxEiPDASv8sf2qLpq21c9/hGqvLQnuC8E8tK2I/74nPPkHmKf8kHPCQ3e8IQ7X1N3soFWXgJiYx4/f3dBcfoDrjafCU1LF7h5NIdH0zdga1CMlLh7UPTWTmWmkaZ5lA6xBZ/GC03cGsCE4QLJ/cfILr1uL0lF4mMu4Bo7o2EjF5gpeDKw2svzsr9bDSWZ8YjPM4LjG17w9HSHo6kIGXF3EZ8t15Kj5HKokjLbgM1PxeM7NxB9Px5p+cX0UphaqrN3ob9qfLOSoaUtzHXz8Sz+KXIV3MHMiA2k16kzkrNU/q5hlrXGkDWBeOe+P4ZyB+9XgeXyb8sdNPQLnuFhfPoLX8RgaG0Hk8JneJKWV+kmmBeRTWsLg9wEJFbzgVJWpANzGzuYa+dxFd9EZCq4mac2+ePxL/gZvGIn3nv8DYauDoOGvjXsjAuQ8CRN4SM0r3LbK8Ivp76lHSzEmUh8mo7CenTNT96rehc6j6sPQ4OrrWqKJCjKL4SiPYo/PxdranH1yBIUFHMHeyWCnTLTsFwisSZXK5UUoahEUmUQ4VKAf+S5hJ/HS/YN5Zfn5X/3RfhjmpVbM1gW3MXtR1ncSYQmNDW5v1mgOI/VWQ5Vqcl2+y/4V70L/VVjmGJkJz/Cw0fPFAZvHluSjZSU7FodwPmDsmu/bxCw8H9wE5qK+J3YyPtd+LqU4G70C5qba4nh8p8Yew8xTzJeuAx8zSj76SM8Ts+vdnCUTfu42sGbx0jykfrkPu7GJigM3rza5K8qxTlJiHuS/sLnX1Wx7auLX85cbr+MS8qot8H7VWO4Q3pJYT7yXxDsePxmkRQXSt9opmwQUGYa6c1mXJpCCaswqDFczvgnH5QJesovz8v/bnWwLH93+4vzWJ3lUBX+T1V3u5Ga+dcG8NeJPyg/iLiEp45DsXx7IFZ9txjfr96KwAV9oHN1MzadyhRSEkIIIarxr21CrwuMjh1admiNRnbG0MhLx5N/LuPCzVf3GUBShn8TlHOrjnDOjsSFO2nCUFJTr7IJndQM36qnbWACHUk2MvP+PfdN/Fe8iiZ0CuCEkEoogBOiWnQNnBBCCCFSFMAJIYQQNUQBnBBSCf82LbHodb2qjpB/NxEjkpYpVRNZ25R+UosQQmSKioqgqVXFl78IIdWmpa0tLVOqJtLVqfEH6Agh/1I5eTkwMjSCSESNdITUBl+G+LLElylVE3Mzn6+hSWfahJAy/Ju7RGIxjIyMIeE/TsF1/JvECCHK4ZvNtbkKsomJGfL5jxflqjaAFxcX0WNkhBDF+AOQPnd84JvT6/MHJwipb/gT3qLCQmnNuyC/ii9K1hI9B04IIYSoIXoOnBBCCFFTFMAJIYQQNUQBnBBCCFFDFMAJIYQQNUQBnBBCCFFDFMAJIYQQNUQBnBBCCFFDFMAJIYQQNUQBnBBCCFFDFMAJIYQQNUQBnBBCCFFDFMAJIYQQNUQBnBBCCFFDzBuNm7KaWtpCLyGElNHTN4CJsan0s6IiEZ3vE6Is/hv6/GdE0zPSkJuTLQxVnaLCAgrghJCqmZtbwMDQCCnJz5CXn4uS4hJhDCHkZcQaYujq6MHcwhLZWZlISUkWxqgGH8DplJoQUglf8+aD9+NHD5GdnUXBm5Bq4ssMX3b4MsSXJb5MqRoFcEJIJXyzOV/zLimhwE1IbfBliC9LfJlSNQrghJBK+Gve+Xl5Qh8hpDb4ssSXKVWjAE4IqYS/Ya24pFjoI4TUBl+WXsVNoBTACSGEEDVEAZwQQghRQxTACSGEEDVEAZwQQghRQxTAlcToGsNQzAp9hBBCSN2qszexNRn6PSZ3rPrB9qST32HB0cdCX91jWQ9M3PE9eiZvwyfTD+IZwwhjXi3pOmqbjF8WLMWZlMp/03vEanxqewr+i48h+TXlifw3uDZqjJh70UIfIaS2VF2m6vRNbPpmDnAyy0PUxYu4WKG7+lD1741VFus0FOsO/YhRjeVr23G4eOwkTgRfQ6ow5HXg15Gzqy8+nfYOrNnKtX99S0c42ZhAQ+gnhCiv6rJOiPqo2yb0nDsI3rMHQUFB5bpj19OFBHVBDE1NTYjlKrQMk4XIAwHYdDoWJa+5pssW5EPsOQLT3nUAU0UQJ4TUVOWyTog6EZtbWM4Xi19/Hc7OZyB8bR4i+MhVpCoIiixrgr5fr8ekRg9wMiJJGMqfOQ/EdytGwvz6KdxMM5Wm+dTxHmLsPsDUSWMx5qMB8G1mhcx/IvEou3zQ023QE2OmjMcnn4zCED9feDuI8CQqGimFDJwGLsLKcW1hpWcE59Zvo5dfM+T/Hop7ebK/UTEfpfMaPXoUPujRHs2dRYi7cRdpxbLlKc2/snmrSLqOTM5jS7Aeeg72QdFfp3E7QxjJcer4AToZReHoiRvI5tYhC2M0GzAeUydzyzdyGAb26og3jNMRff0RcsGNf56f+3jk8hFmTBmHj/t3RBP9Zwi/kYEmgz/HlHFj8ckwP7R1LsH9iDvPl4VXbt316YxmtgV4cPs+0uXSkH8HMzMLpKWmCH3KedH+wRq/hZmr5qK3TiTO3+ZO0Pn9lTVDry/X4IuuwJXz0dJ9+GXzKfWicqzMcSOr2+Iqy3pMvvJ5IKQ6alKmXkRSUlLfb2ITQc/UGpbGFa7RaxjCwtocBtLzDlka507jMaFTIa4c3orNQReR7foOZs55H05cWCslbjQUS5dPhI/GHRzbthG7Qu5Ct91YLJz/Ppy5dMlhB7HtUATSkYNbR7di29YjuCFtza+cD7Hbh9J5tRZF4+T29dh+/DaY1hOwjDtANBaV/k3l86ZYCe7sWo6Dj10wdNoQuDyfd3ksqwGPUUuwcERLiG8HY1dAAPZfTEGDd2dj7tCGQiohP2+OxajmSQjZvxvHb2vAa9gsLPj2W3zaNBHnD2zHT2fjYfbWeHwxpLEwXem6Gwvv4pv4dct6bDlyHeL2U7Bsbn9YUcvAf95L94/0UBwIzYLn/8ail4VsGsNOn+KjdsBfP51AohC8ldnPXlaOlTluKC7rtK8T9VG3AdzQE++NG4dxY8eWdZ92h0sNCome9m1s9d+Mo6EXEXpsC77dcglFDdujnZVsPMuao+/oQbC/vwOz527GkbOhOBm0BvNWHMJ9TU+0cAJy48LxR0Q88lGAhJt/4OKf15FQxRk3y1rAb9R7sL+3HXP8f8DhsxcQcjQQ82cHIsb2XYx+x0ZIKfOyvL1UyX0ErQzCQ4cPMG1YY4irXD9ipEYcxa7V/vgyYA+Oh4bicOASBIUVwaVlK5jLTaPHRGDzop04HXoKQatW4uQjA7zh8ghb+WEXzuGXwAUI/CMHdl7esOCm49ddH27dmYevw4yF27h5X8C5o1swz38fEj2GYVhbepjhv0yZ/YOPzw8OrMMvSZ74cFRn6Is98NHIjsg5vha7ooqUno8y5VgZiso67etEndTt3ig2hI2TMxzlOwdL6Amjq6Pwn5u4LSkLtjnRsUiEJaxshQHiZvB210BE8BFueFm6vMhtmDXFH4fjKgdqhcReaM7P69RvSJKblyTpOE5HitC4eTNoyAXMl+ZNCcUPD2Dl7mjYDpqGj921hKFlGKYAideO4+C5WBSLdWFm7wovn85wNS4BbGxhL6Tj5d+7jRghPwwThwcPuQNo0mPECR+eYpgSPH2WDhiZQPr9HG55W7gDUeExMHZ05LaRg7RzkMTibrI+GrjaSacj/1FK7h+MhDsRDfgV2Z1GYvrscejBnELA9hsoEmrfSs1HleW4KrSvEzVStwE8/RI2fDkHX331ZVnnvxe3Sgt0NRQU5Qu/BCXFKOEKOFO6hDY2sBRl4FlioTCgFqTzSsfTxAJhgAzDFCEhKQ0ia1vIF/OX5k0J/CqJ+2UFtt80Q//PR8NTu3ItXMvlbUxcsAFBBw9ix8YVmDtxIDxNhJFyioqr+EiFhOXyJE9u/twJgKVIC20nbMTGTZvlurnoYc1wox2FhOQ/qRr7R1HUbuz/2xht2jkh8sAOXC+QK+vKzEeV5bgqtK8TNaIW7UHiipFORxuV66AvkZqGTBjCyEwFi8zNK4M1gKFJ5RMNE0MDIC0VyUK/KjFMEo6u/BERRn0x9ZNW0BWG81g0x5gFU9BRJxK7v5uCjwe9iw9GTMDy0KdCilpI49ddAUK/H4TBgyp3I9aGCQnJf1I19g+RbR/0asEgJSUPzXr3gzMjd6KozHyqUY5rdNygfZ2okXoewDO48iqBnoPT82u4LMvA2dsD5tK+asiLxr14DTRv1wm6cs3bjIMvRk36BL728jVaMTTEws+qSOelhRYd2kNLbl6sVlu089ZGQkw0cmvQiqAMJuU01mz+C3o9p+B/TeWeHrBqDDeTbFzauwknwmKQylVQWFYLro7KXmh/gdy7iEnQRlOvxijKy0Vefp60yy00g3ubN2CqJRESkv8kJfcPlrWE32fD4BZ/AP5fbMdtu8H4bJBz2eORysxHqXJcneNGhbJO+zpRI/U6gPPXYm/euIWiNwZi9tjeaN2sJboO/QrTOukhR0ijLIaJxcG9l8B0Go+5wzujkZU5HLy6Yfz0yRjQWg8ZiULCpHgkSkzh3acv2jRzgqncQaIUP6+f914E3pwE/+Gd4GZlCutG7TF83mR0Fl1G0IE7QspXI+XsWmz6QwQbK7kAnvwAj7IN0LzHO2juZAw9Eyf4DJ6Dj9rW/iPyDBODA3suQbfn5/h6SEe4WprAokEL9Js+H/NmTEZvp3p+HkheKWX3D4uek/ChRwp+DfgJD5+exMZ9MXD54DO8ay872VVmPsqUY6WPG1WUddrXiTqp93tj0m/rsfF8Mpz6csHym5l43z0O2zf9gUxhfHVknl+G2QFXoN97GlYF7sDGxVPRiQu4G77dhPASocacH4odP16GuO0EzFs0C70VXPLKDF2JL9eFcfOaiZWBu7Bl5Sz0MbyGdbOX43zWq6l9l2KYTISuD8D5ZLkaiORvBK46jAyvT7FoQxD27wrA521jsf/oAyFF7WSeX47Za6/C2G8GVm/dje0BCzHSIwPBq/yxPaqKa+rkP+Vl+wf/HPiEEa2QFbwRQXdk+8ujQ+tx+Ikbhk3uDxvhRFmZ/UyZcqzUcUNBWad9naiLOnsXenUxWoYwYLKQVf6+sRphWTEMre1gUvgMT9LyIKmiuZsRG8DMBMhIzkLxC5rDZfOyhUFuAhKzy98GVhdYLt+2TjbQL3iGh/HpL8x7TfDLq29pBwtxJhKfpqOQfbUnK6Ru1PS9zaraP5SZj1LlWInjhqKyTvs6UaVX8S50tQnghJDXhz5mQohq/as+ZkIIIYSQmqMATgghhKghCuCEEEKIGqIATgghhKghCuCEEEKIGqIATgipRCKRQEMs96IgQkiN8WWJL1OqRgGcEFJJQX4+dHTl37ZPCKkpvizxZUrVKIATQipJz0iDuYUlxOIXfRSAEPIyfBniyxJfplSNAjghpJLcnGxkZ2XCwdEZBgaGEL/w6z6EkIr4MsOXHb4M8WWJL1OqRm9iI4QopKdvABNjU2jr6EAkovN9QpTFX/Pmm835mverCN7SV6m6NnJjdXT1hUGEEEIIqe/y83KoCZ0QQghRRxTACSGEEDVEAZwQQghRQxTACSGEEDVEAZwQQghRQxTACSGEEDVEAZwQQghRQxTACSGEEDVEAZwQQghRQxTACSGEEDVEAZwQQghRQxTACSGEEDVEAZwQQghRQ/Q1MkKIQvQ5UUJq5lV/TpT/GhkFcEJIlczNLWBgaISU5GfIy89FSXGJMIYQ8jJiDTF0dfRgbmGJ7KxMpKQkC2NUgz4nSgipEl/z5oP340cPkZ2dRcGbkGriywxfdvgyxJclvkypGgVwQkglfLM5X/MuKaHATUht8GWIL0t8mVI1CuCEkEr4a975eXlCHyGkNviyxJcpVaMATgiphL9hrbikWOgjhNQGX5ZexU2gFMAJIYQQNUQBnBBCCFFDFMAJIYQQNUQBnBBCCFFD/8kAzugaw1DMCn2KKZuOEEIIed3qRQA39P0c69avw6SOusKQl2NZbbz12XqsGd1SGFK1iulY1gPjN+7B7u8HwZJVHJyVTfcqsawx3p65Hss+9BCGVK3J0O+xfv36513A6mWYP3MyPnzLGTp1lHdCCCGvVp0HcJY1QdeeXeDi3BBde7wFA6UDjggG1s5wtHjZa2ArpovDxWMncSL4GlKFIazTUKw79CNGNZb/25XTvX5iGHN5t7fQE/qrpm/mACezPERdvIiLXHc5/B7S9Zqg3/Q1WDuhNXT/BUG86m1ECCH/XXVfA7fuBl/3XFw8cxkS7y7wVf3LasphmCxEHgjAptOxKGEYYagYmpqaEJf2cqpOV4/l3EHwnj0ICgrC7h2bsWr+Z5gaGAXzXqMwwFlIo9YqbyNCCPkvE5uZmc/X0NQSel8/5/4TMLzBLfw473fo9nsPHnlncSoqRxhbxshzMCZ/PgFjRn+Ed7s0g1nKP8ht4ocWBRex/2KckOrl6fgaf9+v12NSowc4GZEEp4GLsHJcW1jpGcG59dvo5dcM+b+H4l6eabl0pXQb9MSYKeMxevQofNCjPZo7ixB34y7SimWRpXT+nzreQ4zdB5g6aSzGfDQAvs2skPlPJB5ll9UgWRij2YDxmDp5PD4ZOQwDe3XEG8bpiL7+CLng56cLj54D0DQzFD9ffiKbqAp2PgPha/MQwUeuIlU42WAYFllxWvB+vzuM7/6M0NiSl/69srzHIbHpKHwxdSLGeaVi/4XYakx7H49cPsKMKePwcf+OaKL/DOE3MtBk8OeYMm4sPhnmh7bOJbgfcef5OuOVrtdPPhmFIX06o5ltAR7cvo90Lo2ibRSTL5v+RdO+cJlE1ugwbDKmThyDUR8ORu83PWCSeguR8bnS+f6XmZlZIC01RegjhNSWqstUcXFR3dbAWdYF3Tu7IO3Pc4jM+xuhf+WgsW93OFRo8tVqPhYrFw2DW3YYftq8AbtDEuA+bjb62AgJBMqlE0HP1BqWxtrSvuSwg9h2KALpyMGto1uxbesR3JB++a18Op7Y7UMsXT4RrUXROLl9PbYfvw2m9QQsWzESjUWleZZN59xpPCZ0KsSVw1uxOegisl3fwcw578OJC4U8ltWAx6glWDiiJcS3g7ErIIA7wUhBg3dnY+7QhtI0tabB1Vi5v1dUwgVvpf6eLO8Nuk7E+Da5uPrrNmw6EV2taZ3fHItRzZMQsn83jt/WgNewWVjw7bf4tGkizh/Yjp/OxsPsrfH4YkhjYTpuvTYayq3XsfAuvolft6zHliPXIW4/Bcvm9ocVty8o3kYvn1bxMjHwHLUQs/1s8ChkN9asDsTpOAv0mzkT/SrsV4QQUh/VaQAXub+Nzvap+PNcOCRMCcLO/4nMBr7o5iok4LCsDfp/1Bcm13/AnIXbcTz0d5z5ZSNmL42ElpWQiKNsuopy48LxR0Q88lGAhJt/4OKf15EgVzMsxbIW8Bv1Huzvbccc/x9w+OwFhBwNxPzZgYixfRej3yl/1NfTvo2t/ptxNPQiQo9twbdbLqGoYXu0e54XMVIjjmLXan98GbCHy28oDgcuQVBYEVxatoJ5La9bs6wOmg7sjiYldxB1m38lpvJ/T1cShlWzVmHvb8E4FR7PDVF+Wj0mApsX7cTp0FMIWrUSJx8Z4A2XR9jKD7twDr8ELkDgHzmw8/KGBTcdy5qjz+hBMA9fhxkLt3HzvoBzR7dgnv8+JHoMw7C2IoXbSJlpS1VeJke0ammLrAs7sOanU7h0OQR7ly/A4k0nca9ILJuIEELqsToL4HwNyLvrmzB/+gfO3pIFgOJrZ3Ep1RZvdZe761rDHR6NgGshwc+bh3nFUafwx2Ohh6dsupoSe6G5uwYiTv2GJGnztowk6ThOR4rQuHkzaMgFssJ/buK2pCxdTnQsEmEJK1tZP8MUIPHacRw8F4tisS7M7F3h5dMZrsYlgI0t7GXJlGfUDO9P/gyTJ03GZ9O+xLdrfsCSAVa4s/cHHEmq3t/Li76Ou3J5r860+fduI0aYlmHi8OBhEZD0GHHCR60Y7kTt6bN0Lr8mkN7uwK3XFu5AVHgMjB0d4ejgIO0cJLG4m6yPBq520umqVI1pKy4T8AyPHufCuONwTPTzgbOhmMtbMsJDziEqhb7ARQip/+quBi5ug24dTSGRNMA706dj+rRpmDGtJxyLJbB8sxuaMUIwtLGGhSgdqU8rflghCclpwk+esulqysYGltz8nyYWCANkGKYICUlpEFnbQj7UFBTlC78EJcUo4QI/I7fGtVzexsQFGxB08CB2bFyBuRMHwtNEGFldIh0Ym1vAnOvMdIvx9PoJrJ8zDrP2RT+/CU/Zv1dcxScklZ22qLiKD2BIWG7Z5ZWd6PAnAJYiLbSdsBEbN22W6+aihzXDjXYUElahGtNWXCaGycPZDYsQdFMTHUbPQ8CeA9ix2h9je7lBr5atH4QQ8jrUWQDX7dgFbQ3TEBuXCy0dPWhLO11kxD1ApklHdGujIUuYmoYMGMLIVL72xDODiaHwk6dsupri588awNCk4vzBzd8ASEtFstCvDBbNMWbBFHTUicTu76bg40Hv4oMRE7A89KmQoprS/8aP8+dh/jf+mL9oKQK27sXp2+mQCMG7Nn9P5XmVl5aGTBQg9PtBGDyocjdibZiQsAq1mZbDpEdi7+LJGD5kBKZ9swGn4y3RdeISzO5tIaQghJD6q04COMvqolMXH+jEHMf3C77F4sULn3eL5q/AqccGaN+lA7T4mlDuPcQmasK7fXtZfynbDmjtJPzmKZtOITE0XnTpMy8a9+K10KJD+fmzWm3RzlsbCTHRyJVrun8pq8ZwM8nGpb2bcCIsBqmF/HrRgqvjCy7Y10Zt/t6rzGvuXcQkaKOpV2MU5eUiLz9P2uUWmsG9zRsw1ZIICXkVtlG1pi2PFZnA1ccXza0BSX4y7l49g11LV+BkvDbcufkRQkh9Vzc1cKO30KWlNu78cRYJFYIewzzEuQsPoNumKzrp8f33cOjna9B6cwK+GtoeDS1MYdOkKybPfhtmWcJEHGXTVSkpHokSU3j36Ys2zZxgWkUTKsPE4ue9F4E3J8F/eCe4WZnCulF7DJ83GZ1FlxF04I6QUknJD/Ao2wDNe7yD5k7G0DNxgs/gOfioreo/+i5Vm7/3CvPKMDE4sOcSdHt+jq+HdISrpQksGrRAv+nzMW/GZPR2EnbRKraR0tNWqQH6TJyBuTNHo30jCxiaNYSP3wC0tS7Enai7QhpCCKm/6iSAW3TpAk/mH1w4lygMKe9hyO+4r9USXd6SXWRNObEU83bdgf17X2Lt9t34cckIWF9Yjr3R0tHPKZuukvxQ7PjxMsRtJ2DeolnoreCya2boSny5Lgz6vWdiZeAubFk5C30Mr2Hd7OU4n1WN2jeHkfyNwFWHkeH1KRZtCML+XQH4vG0s9h99IKRQrdr8vVed18zzyzF77VUY+83A6q27sT1gIUZ6ZCB4lT+2RwnX1BVsI6WmrQIjiUDgd9sQadATc1Ztx96d6zBvpBdSji7DyqMquDRACCGvGOPayI3V0X3Z60jrB5bRhaW9OdjkBKTkK75TWNl0FTFiA5hx5wwZyVkofkFzOMuKYWhtC4PcBCRmKz//qrDc37R1soF+wTM8jE9/4d9Vhdr8vVedV3696lvawUKcicSn6ShkK89f0TZSZtqq8M+4G1rawlw3H8/inyK33J3q/12ujRoj5t7LznwJIcpSdZnKz8tRrwBOCHk9KIATolqvIoDXzTVwQgghhNQKBXBCCCFEDVEAJ4QQQtQQBXBCCCFEDVEAJ4QQQtQQBXBCSCUSiQQaYuF1xoSQWuHLEl+mVI0COCGkkoL8fOjo6gp9hJDa4MsSX6ZUjQI4IaSS9Iw0mFtYQiymb6MTUht8GeLLEl+mVI0COCGkktycbGRnZcLB0RkGBoYQv/BLP4SQivgyw5cdvgzxZYkvU6pGb2IjhCikp28AE2NTaOvoQCSi831ClMVf8+abzfma96sI3vQqVUIIIUQN0atUCSGEEDVFAZwQQghRQxTACSGEEDVEAZwQQghRQxTACSGEEDVEAZwQQghRQxTACSGEEDVEAZwQQghRQxTACSGEEDVEAZwQQghRQxTACSGEEDVEAZwQQghRQxTACSGEEDVEAZwQQghRQ/Xqc6IiQzdoNZ0EkXETrkdbGKokSQEkGf+gMCoAkqy7wkBCCCHk36defU6UD9467TdBZOJZ/eDN46bhp5XOg5sXIYQQ8m9WbwI4X/MGw/1gxLIBNcFPy81DOi9CCCHkX6z+1MCNmnD/r0Xwfk4szIuoAqNrDEMxK/TVDyyrCavG7fCWb2c0t9cVhhJCyH9LvbkGrtfzvPBLNXKDfYVfytN17oYh778F94YusDPIxZOY+7j9xwHsPR2DPIZvHqh/dOzaYcCQ/ujQxBGWBhKkJ8biRgiX5+M3kCqpXZ5Z1gMTd3yPnsnb8Mn0g3j2GtaBoe/nWDy4IaKDvkDAxTxhaBmWNULHqSsws7stUFiI6J1jMPvXZGHsvw/LasN3ykq8lxOIKYHXhKGEkP+6enUNvKZ6tdTE74uNMKG3jjCk+liugmnXdQZWr/gcPV0kiAs7hp9/+wtxEif0/Gw5Vs/uCQemftVCeWL7vpi74mv0c0xF2NGd2LLzBCKT9NFm9GJ8/1l7GPILVitxuHjsJE4EX0OqMERZrNNQrDv0I0Y1Vj4PLGuCrj27wMW5Ibr2eAsGVeXfyBf9ueD98MBUDBv4Hub8+kw6uCZ/Tz2IYGDtDEeL+nGjKSGk/lDrAN6yoQbmvq8HHU0Gbd/QEIbWgHkvTBj/FkSXl2HKJH+s3boPP+/fijXffIYpS/8A02EsxvexEhLXH94DhqJZ9lEsmLEUO4+cwpkTe7FxyQxM33ID5t0Go7uFkLCGGCYLkQcCsOl0LEqqXfsWQ1NTE+LqTGbdDb7uubh45jIk3l3gayoMl2dqDGPudCIq7C5yuV5WeuMErwZ/jxBC1JjYzMx8voamltBbdzQbjRB+KcfRQoSAMfrQ02ZQWAzM3ZOLpPSy2ldRzHbh14vxlTzvUfMw1C4Ma77eg3+KyiIAw9W6sx6GI9muNwb3sMSdw5fwRGKKvl+vx6eOd3HHcgi+nDUZo/7XF528ncDGXkdMOpcZOboNemLMlPH45JNRGNKnM5rZFuDB7ftIL2akNU7ZvO4hxu4DTJ00FmM+GgDfZlbI/CcSj7IV1yZZVgct+n+E1tkh2HLmLorlAmxuzBX8/vs1xKRlIr9ENrxcPvx84e0gwpOoaKQUyucjDolNR+GLqRMxzisV+35Pkw6f1OgBTkYkyaV78bI7DVyElePawkrPCM6t30Yvv2bI/z0UMfkvjq7O/SdgeINb+HHe79Dt9x488s7iVFSOMBbwGrkWi0e24OZrCKdW/Hw7Qef6KWR1W/zCv6fcNii/7D8X9MGGb3qigJvPfWE+bNOPsXbJZ2hT9Cd+v8efPvDbwR2j1i7BYINInL2dwZ1QGKPZgPGYOpn7eyOHYWCvjnjDOB3R1x9xJxyK/97+C7HS+Rl5DsbkzydgzOiP8G6XZjBL+Qe5TfzQouAi9l+Mk6ZhRdboMGwypk4cg1EfDkbvNz1gknoLkfGyPBFC/v2Ki4vUswZuqMtg5Sh9GOvxB0Rg4YFcRD4oEcZWlzXcG5sh83IILlcRYBgmH5dCLiPTuBEa2/FDRNAztYZT27GY/T8z3DqyBRu3HsMdzXaYtPw7DHKSTiYlbjQUS5ePhXfxTfy6ZT22HLkOcfspWDa3P6ykzcOyeTl3Go8JnQpx5fBWbA66iGzXdzBzzvvgwqJsRlXg83XrZgwkzQbis34eMJe70YyRZCLxcTzSuODMk+VjInw07uDYto3YFXIXuu3GYuH89+Es/RuyfDToOhHj2+Ti6q/bsOlE9PPhlsalj/Upt+zJYQex7VAE0pGDW0e3YtvWI7iRLRunCMu6oHtnF6T9eQ6ReX8j9K8cNPbtDge5ZvTHF/ZUmO9+/PX0xX9P2W1QcdmLbsUg2bINOrTSk82I49a2I1xtbNC6fWvolebLrR06NtTC46iH3DJowGPUEiwc0RLi28HYFRDABd0UNHh3NuYObShLr3BdA1rNx2LlomFwyw7DT5s3YHdIAtzHzUYfG+loKZZl4DlqIWb72eBRyG6sWR2I03EW6DdzJvrJpSOE/PvV2wA+3Fdb2okqxFQNMfD9R3pwtpRlfWtIAU5eK5L+rpkGcLAFniTIajdVinuCBNjC3qksM/pOxQj+aj52Hg/FhbO/YMNXc3HoaSMM/tBXenBnWXP0GT0I5uHrMGPhNhwPvYBzR7dgnv8+JHoMw7C2ZateT/s2tvpvxtHQiwg9tgXfbrmEoobt0e4lrfYPflqKNSG5aDlmKbbu2oRFM8Zg4FvusNAoC3p8Pvpy+bC/vwOz527GkbOhOBm0BvNWHMJ9TU+0kDvh0JWEYdWsVdj7WzBOhccLQyt72bLnxoXjj4h45KMACTf/wMU/ryOBq+2+iMj9bXS2T8Wf58IhYUoQdv5PZDbwRTdXIQEn7d5fFeZ7FQ9zGYV/rzrboNKyZ19C2G0uWLZsDbF0e1qjtbcd7oWHI9e9FVoJV2wc23jDOvMqLt/m17kYqRFHsWu1P74M2MP9vVAcDlyCoLAiuLRsBfPSoM+p+PdY1gb9P+oLk+s/YM7C7dy0v+PMLxsxe2kktMrtB45o1dIWWRd2YM1Pp3CJO/Hcu3wBFm86iXtFqniKgxCiLuplAG9sL8bkvjrSbt4HuuWC+KwBumjdSHb0PB1ZhB9O5Ut/1xijATF33CspfMFJADeuGBrQ1JI7QN46h2Cu9leKkcTi5Ll70GvqCWnMEXuhhTsQFR4DY0dHODo4SDsHLt3dZH00cJVW56UK/7mJ23J3jOdExyIRlrDiTixehJHE4+yayRg5bh42Hb+NAtsOGDp9KX4MXIYRrY1licTN4O2ugYjgI9w8y/5GXuQ2zJrij8NxcsOir+OuMneuv2zZq4mvVXp3fRPmT//A2VuyIFd87Swupdrire4e0v4aqcY2qLjsDJOBP6/cgY53KzTjBxu1gbdLHMK2BuM6y83XW8Tl2wRtvF2Qc+0yrkv4aQqQeO04Dp6LRbFYF2b2rvDy6QxX4xLAhjsBlM1aqtK61nCHRyPgWkgwUuUuhxRHncIfj4UeqWd49DgXxh2HY6KfD5wNxdzfTUZ4yDlEpdS0FYoQoo7qZQB/8FSCO09kB6M+rbSeB/EP39JG/7ay6/U340qwYH8edxCV9tYc+whPkrjjq52DMKAKTnawQRLi48qub+emplR6tOxpcgpYE0vY8OcX3AHbUqSFthM2YuOmzXLdXPSwZrjRjrKJOAVFFU5CSopRwgVbRomtw2ch98k1nNi9Dt9MG4GPJn2LfTGWGDDrC/Qy41aOjQ2Xjww8SywUplCsuES5APDSZa8ucRt062gKiaQB3pk+HdOnTcOMaT3hWCyB5ZvduABaw41cjW1Q1bI/vXgFsUbeaNUY0ONq2o2TI/D3/Su4eksHzVs24QfCu3Ehwv+++vwmPy2XtzFxwQYEHTyIHRtXYO7EgfA0kY4qp9Lfs7GGhSgdqU/L30MBbr9LThN+chgmD2c3LELQTU10GD0PAXsOYAdX4x/by62sWZ8Q8p9QLwN4QRGLST/k4K5cEF8/Vh+TuBo5LzFdghnbc6Tpai8eDx4WwLxFOzQSVZ4fXzt082kB88KHeCDXyq5raASNCgdMEyMjMDkZSOWPwWlpyEQBQr8fhMGDKncj1obJJqohlhVDrKEJsVye+RiSE/cX9i3djxtaXlztUBtI5fNhCCMz1W3qly57Nel27IK2hmmIjcuFlo4etKWdLjLiHiDTpCO6tanhEwa13QYJf+LKIwu0aNMQLVp5cTXtMNzlAuiVq//Ayrs1XFu3hGdJJP4Ok50csWiOMQumoKNOJHZ/NwUfD3oXH4yYgOWhcs0VinDbKYPfTqblT4wAM5gYCj8FTHok9i6ejOFDRmDaNxtwOt4SXScuwezetXzsgBCiVuplAOel57CYKBfEW7lqSGvhuQUspm3NRWqWKoI3H/RK8MeBw3hk2xefDnKBVoXApO38Hj71c8Djoz/hD7lWdsbDBx3L7m/iAqopOrVzgyQ2BtL7iXPvIiZBG029GqMoLxd5+XnSLrfQDO5t3oCplkQ6XY2JWmLq7l8QOL6l9BqtPA17vtZdgKwsLrDkReNevAaat+sEXbl0jIMvRk36BL721V+PL13258TSexZehGV10amLD3RijuP7Bd9i8eKFz7tF81fg1GMDtO/SodJ2qVqFv1fLbcAwcbh0JQFOLYehu5cYkdeuS4en/B2O+44t8VE3b4hv/o2/St83Y9UYbibZuLR3E06ExSCVW/0sqwVXRyUeQcy9h9hETXi3b19+WW07oLXcfQqsyASuPr5obg1I8pNx9+oZ7Fq6AifjteHOLSch5L+j3gZwXsUgLuGOt1/tzsW9hMrNnbVRErMfGw/Fo+HwFVj9xYfo1akFPJu/iV5DZ2L1ipFwfXoUm/ZFl3sWuriwMYZ+PRztG1rCzKYxuo/zx3DPLIQcOCG9hskwMTiw5xJ0e36Or4d0hKulCSwatEC/6fMxb8Zk9Haq5aqXRCA45DFMe0zFN2MGoEtzF9jYuKB51+H4f3v3Ah7TnfcB/Hsyk5CJNJGbSCJUeHWRBl3Cy7p2BbW6Wpc2rb5qq31FCeuytCWaUrZuWU2Lt+IueF3WW2/b12qrKV5Rl9KtSxG5J0Mukkhmksnl7DlxrMEMuczYHPl+nmc8mf/853J+/+fxPf9zzvwn6t0X4JtxEAfPitLnSMbu7ccg9JmEeeP6op2PJwKCB2HSjCkY+WsdCvXK69XCw7a92rVM6Kuao8uw59D96UA0txbAT/TDgG5NcOnIt8g2q69MEFJx6HAKnLsPRB+zHQaLLLyfLcbgUuJJ5LXvie7NfsLJ08rhBf0POJPVHs8844LzJxJhuP25c1OQXtwMIYNHICTQDTr3QPQYPRevhT58kSFBuIK9e07D6TcReDe8F9p6NYfvUwMxZc5v4XFT6VStDYZNnol5s/6AXu284OrRFj2Gj0RoCxMuXeCv8BE1Jg06wGVyiEesLUH892WYvdmAoxfrcIz2IQTBhJ82Tscfl/0NBUFDMXHWB1i8cDYmDmuPgkMrMT1yLc7e8xUz48kNiEvpjqkrN2DzuhWY2l+LozHvYfWpMqUHUPTdMsxZdQpuw2ciZv1WbIxdiNc7FeLAyihsvFC/7RCEcvx9XRSW7E2C9+A3MGNRLNati8XCyOfhk7wHi6PicE75GlnRd0sxJ/YkXIb+ESvjNmH1h9PQxyERn36wBj8q3xOvjZpsO0oTsOmzRGhCIzB/0Z8w9M7p5rt4DRiAzsJFHD5keU8i9ZvvcdWpGwb0s3Ai2ZyV96v3GJxPxKkCaX/pwmmcVC5VkHeKTpzJk6bDl3Di2J0T1ELVD4hbuQ+FwROx6NN47NwSi+mhydi5P0Xp8WB5X32E+Vsuwf+Fd7Bq41Z8tmQ8Whxehu23vmVWTZB23OIWb8DZZmGYu3Ijtm/+GPNfD0be/qVYsb8Gh+qJ6LHRcNZCf/YAoKnDz4haUlkGw9dhyp3a0zh7wVtXgpxcw30rkImiB0Yv34wXMt5HeMwJaF1awM+tDNlZN1BudpW3Ofl8tYu3H7w0RdBfL4BJrH1oPojo0BSevn7wbGKUJqJ6FJksz3blz+Hawg/uphxk3TCi6p5te5i6bLugaQYPKXsLc2/etdiMvVh7P3uPgTlR+gwtA33hUpaD1MyCWm+3KDjD298TYm428kotH22Sv3Pu6t0Sns6lyMm8DkM9170nInVpUGuhVxVdlP61xaHxSuW16q7SmAt9nrFGy4dWlFxDWlaB1QCTyefZDbnpSLtWaJfgEKpKkZ91FZeTs62Gt0z+HMXX05FRUFrr8LakJtsuVhYjL6/4kYS3zNr72XsMzAnSZ9AnX0FSVmGdtlsQjcjNyLAa3jJBqECxtD2p6TkMb6JGqsEEuOlCrPS/r/SHWI8Ql58rvUb1axERET3GGsxa6KIpH5XXj8HBtQ2EJs2lKUYtvzpUVYaqwvMo+3E+qm7a82KeCpTkZeDyuQtIy6vnIjKq05i3nYio4ZDXQm8w58CJiIioZh6L3wMnIiJqjBjgREREKsQAJyIiUiEGOBERkQoxwImIiFSIAU5ERKRCDHAiIiIVYoATERGpEAOciIhIhRjgREREKsQAJyIiUiEGOBERkQoxwImIiFSIAU5ERKRCDHAiIiIVYoATERGpEAOciIhIhYSgdu3Fps4uyl0iIvvQaLRw1ung5OiotFB9mMrLYTQYUFlZobTUH8fItuwxRreVGksY4ERkf+7uHvDw8ILgIKC8ohwV0n9sVHdaKWAdtY4Qq0Tk5+eioCBfeaTuOEa2ZY8xMscAJyK7k4PB08sbBkMJcnL0UjDYfjbSGGkdtfD29oVO54K83Jx6BQTHyD5sOUb3kgOc58CJyG7kQ7Ienl7VwZCdlcFgsCG5lnJN5drKNZZrXRccI/ux1RhZwwAnIrvR6XQQBEGa1V1TWsjW5NrKNZZrXRccI/ur7xhZwwAnIrvRah15PtXO5NrKNZZrXRccI/ur7xhZwwAnIruRJh0MhkdArrFc67rgGD0a9RkjaxjgREREKsQAJyIiUiEGOBERkQoxwImIiFSIAU5ERKRCGg8PzwVaRyflLhGR7Tg766qXlLx5s0hpaRicWw/Ca2++jlfGTcD4l4agV0gnBGizcTEpHxVmlwo/Ff5nvD/KHecOnUOhWbvg3R/TomdhbIiIc4mXUSTa+PLiWnJ9wg0VFeUwGo1KS83Zc4zuqnP47zCgVzD8xGxcvpoHE/61NXsQUXTD4NkrMKltKg7+lKO01k99xsgS+bU4AyeiRkMUAb+BMxGzfDrCnqxC2okvsOd/jyOtKhBhU5chZk4YAgSpk8LFIwCB/h4wn+KIzbohInoaBrinYE/cV8ioarhB9K9iqc679n6Nn2/4YOCUlfj4nWfhjTt1bng0cGvRGv5etl14xdYY4ETUeHgOQcSkfnBIXIrIt6Owav0O7Nm5Hn95fyoiPzoC4d/fwqRhPkrn+4lO7fDKgrkY4nIGse+twBHb/j7F48NCnf+6Jx5rPpyKyYv+BlPo25g+3EvpTHXFACeiRkGeFXZ5KRwhZd8jLvY76M1mzoJQiezDn2J9ggFPv/wqnnG4f3YoOvhh2NwFeNn/KtZHLcJBfaXyCJl7UJ1l+cc/w7aEPPh1C4WH3Fkiwg3BI6fhw082YfuuXYiPi8HccT3/OUsXRXcMezcOH4V3RNuwt/H+yjjEb9uAjxdMRG9fTXUfc85twhARtQxrt+zAtrhYREcMR4dmd4/pXX0+W4UFbw5EG+f7x70hY4ATUSPRAh07eKAo8Rsklt5/2FsQSnHsm0QUubVDBz+l8Z+ao/fUaPxn53zsil6AvyZz5TLrHlZnIxJWvIHx0V8iXxCkcNai04QlWDi+GzTnD2BLbCx2Hs1Dm9/PwbzwtsqzHKBr3gKt+0xCRB8TTu5bj7XxR1EcNAKz5o5BoNnheE27cHy0bDJ6aC/hiw2rseWby3Du+RYWLhiD1kq/W33eQpeKn/E/6z7Bus9/gqZXJJbOex4+yk6FGjDAiaiRaIOAlkBWdppy34K0LGSjJfwDzYOniRQw0ZgxyAeX4j/A5gu2uQjp8VWDOt9Fg/wz+7ElJgrvxG7DlwkJ2Be3BPEnyvFkt2fgaRaouibnsT5qLfYnHEXCF+vwwbpjKG/bCz2Vsx6i6Inn/jAK/lc3Yc68tfj82wT8X/xfMH/5Xlx17Iyugbf6DJP6eP74MWYu3CC932Ec2r8O86N2QN/pFbwSqp5YZIATUeMgaKHRAJWmB8yepccqoIWjk9lhWe/BmDCyOfTpJegwYjx6uqrrMOsjV5M6mxGEMuhPf4ndh5JRoXGGh38Qgnv0RZBbJeAr7Uwp/WSmiz/jvNkh+ZJfkqGHN3ykHYZqmqfRpaMWZw58LrXf6Wc8uwF/iozCvjSpTROMrh2BCz8mwa1VK7QKCKi+BVQl43KuC9oE3Xf4pcFigBNR4yCmI+ualAl+AUqDBYF+8MU1ZKaZ/Sa2Qxl+iY/GtNkxSEBfRM4eLvVhiFtVkzrfw+nJ32Jy9KeI370bm1Yvx7zJL6Kzu/KgmbLyUuUvRWUFKqWgFm4nma8vvB0KkaM3KQ0WSDsF3g5OCI1YjdVr1prd5mFwC0F6uJXSseFjgBNRI5GJlNQyeHbtiXaWLlITBbTv0RWeplSkmB/9zT2IuO2XUF58HJ8s3YeC4Dcw99UO0KroXOmj9bA6a9B59LtY8Fa/6ovYRITgzehI9G56FlsXR+I/Rv0eY8dHYFnCdeUZtZB/A0VwxRMeD4i2G3KfMiT8eRRGj7r/Nn7VCaVjw8cAJ6JGQb7S/MiufUhv+RwmjnoSTvcEcJPWL2Di8ABk7P9vHDE/+lspSrO8W4znNmLJ1iT4j56DSd1dlVYy97A6awNHYNyYXvApSa2+iA0+HdDevRjHtq/BVyeSkC9NnkXRCUGtrH+dzyrjL7iSqUVIzz5wNntfIaA/Jrz9Bvr7S22Gy0jKboJfBXdAudEAY6mx+mYweaBj939Dc6cq5VkNHwOciBqNyqSdWL03E23HLUfM7FcxpE9XdA75DYaEz0LM8tcRdH0/1uz4BZVWfrhZDqeUXUvwX6edMXj6LDzrdf8MkyzXuVOn7hg4KhLLFk9Au6y9iN2dfKtzbgrSi5shZPAIhAS6QeceiB6j5+K10Ka3Hq8FQUjG7u3HIPSZhHnj+qKdjycCggdh0owpGPlrHQr1cp8k7Np2DM5h0/Hey70R5O0OrzZd8bsZCzB/5hQMDVRPLHIpVSKym4a2lKocwNfOHERilhuC+w7C4LBhCBvUG10CnZB5eB0WLtqFS6Y74e3X40X0903Fgc9P3ZotSgTBgCunMuAXNlYKBeDE139HAZdSvYulOg8ZPAChTz2Ba99vwfKYHbhgUOopZuJCug6hI8Ix5sXRGDVyKLo1/X9sPeKMnkE38O3e47gGHTqFjcSvihKwJzGr+nnVXDph6PMdcePQbvygv/V6ZSnHcTIvAP1Gv4SXx7yI4YN6wrfgKOKWfoLDebdm12UpP+Bkjh/6jw1H+NjRGPncIAQ3y8DBNYsRd6IAVdberx7ssZSqENSuvdjU2UVpIiKyHWmCgKZSQGRlpistDYvG2QveuhLk5BqszrrVwM+/FUqNBuTn5yktNfcoxkius4+rCbnXCyHFjtJ6N1HTDC0DfeFSloPUzIK71qSvC/lcu2sLP7ibcpB1w4gqC68n93Hx9oOXpgj66wUw2XFHrD5jZEmpsYSH0Imo8ao05kKfZ1R1eKuBXOfs60VWw1smVBZDn3wFSVmF9Q5vmXwUoPh6OjIKSi2Gt0zuY8hNR9q1QruGt70wwImIiFSIAU5ERKRCDHAiIiIVYoATERGpEAOciIhIhRjgRGQ38mJY8neMyb7kGt+z4FmNcYwejfqMkTUMcCKyG3mxCUetIwPCjuTayjWWa10XHCP7q+8YWcMAJyK7MRgM0qxDhLd3C6WFbE2urVxjudZ1wTGyv/qOkTUMcCKym8rKCuTn5UKnc0FLvwBpJqJVHqH6kmsp11SurVxjudZ1wTGyH1uNkTVcSpWI7M7d3QMeHl4QHASUV5Sjoty2hxIbm9uHZMUqEfn5uSgoyFceqTuOkW3ZY4zMyUupMsCJ6JHQaLRw1ungxHOtNmGSAtZoMNh0Vscxsi17jNFtDHAiIiIV4o+ZEBERqRQDnIiISIUY4ERERCrEACciIlIhBjgREZEKMcCJiIhUiAFORESkQgxwIiIiFWKAExERqRADnIiISIUY4ERERCrEACciIlKh6h8zUf4mIiIiVQD+ARjDG7YqBD7YAAAAAElFTkSuQmCC;" vertex="1" parent="1">
          <mxGeometry x="-140" y="190" width="496" height="447" as="geometry" />
        </mxCell>
        <mxCell id="mUYtvI8msDl4-CPWPV5D-2" value="1. Enter Button Name" style="ellipse;whiteSpace=wrap;html=1;align=center;verticalAlign=middle;fontFamily=Helvetica;fontSize=20;fontColor=#f7f7f7;fontStyle=1;fillColor=#EA5B0C;gradientColor=#fbdece;strokeColor=none;gradientDirection=south;" vertex="1" parent="1">
          <mxGeometry x="310" y="240" width="250" height="70" as="geometry" />
        </mxCell>
        <mxCell id="mUYtvI8msDl4-CPWPV5D-3" value="2. Enter Python Script Name" style="ellipse;whiteSpace=wrap;html=1;align=center;verticalAlign=middle;fontFamily=Helvetica;fontSize=20;fontColor=#f7f7f7;fontStyle=1;fillColor=#EA5B0C;gradientColor=#fbdece;strokeColor=none;" vertex="1" parent="1">
          <mxGeometry x="310" y="315" width="250" height="110" as="geometry" />
        </mxCell>
        <mxCell id="bQaqlhsBKaw2fpsRwFQb-1" value="3" style="ellipse;whiteSpace=wrap;html=1;aspect=fixed;gradientColor=#fbdece;strokeColor=none;fontColor=#f7f7f7;fontStyle=1;fontSize=20;fillColor=#EA5B0C;gradientDirection=north;" vertex="1" parent="1">
          <mxGeometry x="155" y="615" width="62" height="62" as="geometry" />
        </mxCell>
      </root>
    </mxGraphModel>
  </diagram>
  <diagram id="Xb6NG60scnELPH8_s-M0" name="start_my_macro">
    <mxGraphModel dx="480" dy="848" grid="1" gridSize="10" guides="1" tooltips="1" connect="1" arrows="1" fold="1" page="1" pageScale="1" pageWidth="850" pageHeight="1100" math="0" shadow="0">
      <root>
        <mxCell id="0" />
        <mxCell id="1" parent="0" />
        <mxCell id="95bU6ZhmBL_Bv8h-KYkK-1" value="" style="shape=image;verticalLabelPosition=bottom;labelBackgroundColor=default;verticalAlign=top;aspect=fixed;imageAspect=0;image=data:image/png,iVBORw0KGgoAAAANSUhEUgAAAl0AAAEnCAYAAACT0/YRAAAAAXNSR0IArs4c6QAAAARnQU1BAACxjwv8YQUAAAAJcEhZcwAADsMAAA7DAcdvqGQAADsGSURBVHhe7d0HXBb1Hwfwz8MeIkOQKSBiKgKCuffKWZaplavlvzS1ZVbulWnOhrvULEeWZcPMcubWUJZbQRBZKktkyrj/3XEoIFPheMTP29e95H53PDzP3fe5+zx3v+dO4+ziJpjVrg0iIiIiqjo6yv9EREREVIUYuoiIiIhUwNBFREREpAKGLiIiIiIVMHQRERERqYChi4iIiEgFDF1EREREKmDoIiIiIlIBQxcRERGRChi6iIiIiFTA0EVERESkAoYuIiIiIhUwdBERERGpgKGLiIiISAUMXUREREQqYOgiIiIiUgFDFxEREZEKGLqIiIiIVMDQRURERKSCKg1dNtY2MDIyUsaIiIiIHl+65haWMw0NDZXRyuNavz5mzpwNH5/mOHHiGLKzs5Up9Ljw8GgKK6s6SEiIV1q0m7mFOfr07ou2bdrDxNgE1yKvKVPy+Pg2R8+ePfHEE40QF38TqampyhTtY2BggJycHGWMiIi0QZWELjtbO0yePBVBwUGwsbERg5cvTvx3HLk5ucocVB5NmnigU6dO8v/5Q+PGTXD7drI43Fbm0k6DB7+A114bifbtO8C3eXNEigEmISFBmap9bGzqYs6n81BHDImZmRno1bsP7B0ccOrUSXm69HqGDxuBxMQkODs74/kBg3DmzGlxPFGerk3q1LHCRx9NEJ97gPhaMpVWIiKqbpUeuiwtLDF56jSEh4dh2dKlOOV/Ev36Po1GTzTGf2LwEgRBmZNK07JlK4wf/wGMjE1QVwwEtmKQlQYXF1f06dMXp8UdflJSkjK39nn11dfw+++/Yv36b+HiWh/Dh78M27p2CL0SioyMdGUu7TFs+HBk3cnCJ3NmiR8QTiAwKBCvia8hIDBAnv7ee+9jyZJF2L79dxw48C8c7B3xZIuWOHz4kDxdm3h7e4vhvDGuRUTgxs2bSisREVW3Sg1dpqammDh5CpJv3RJ3UEuQk5ON9PR0BAUG4rkBz6OeUz05hGkTfQN9jHpjNHr27IWOHTvJg2dTTwQFB1brkbkXXngJVyOuYsP338tHW/KH/8RAYFO3Lp57doB8JDE5+ZbyG9qlT99+OB18GhcvXsDJk344c+YMOnTogIEDB0Gj0cGVsFCtOvLZ/5lnERAQgEuXLsrjUg136dwVEdcioKenJ9ZFR6xevVqckvehQaqbdu3bY+fOv+RxbdK5U0e5RhISExAaekVpJSKi6lZpHen19fUxfvwE2NW1g5+fH9q0bgMTExPUqlUL7u4NcfzYMbQXd7rDh72s/IZ2GDhwMJp4eODChfN3B2lcaq9OJqYmSE1JUcbukY4Ubv1pK0JDQjBv7mfYsGHzfcM336zFyJFvyOtEW1y+fAkzZkzD99+vx1M9emL+/EVo1aqVMrX6Xbt2Db6+vtDV1ZXHGzRwh4WlpdgegaioSOTmCniyRQt5mo6OjnyU61pE4T5f2kCj0aC+W335tKejo5PSeo+tra08DxERqU/j7OImmNWurYw+OOmbih9++DH0DPTln3Nzc/HJJ7PkndiUKVPFOTSIi49DYkKC3F5dGjZ8AqNHjYFGN2/HY12nDpYsXiSfTsrn08wH4z+YID7fvA7gQo6AVatXyMFBLZOnTEOkGAR27dqltBQm7fid6zlDVy8vJBRkLIbdZ/s/i927d+GPP35TWtW15PMv8esvv+DQ4YNKyz3GxsboLz6/3r37IiTkshgUv0NERIQytXpYWlph1uxPkJWZheiYKDT18MSBg/vx3Xfr5elPP91f7tclHbGzqmMFK3H+OZ/Olk/haRNHR0eMHj0KO3b8hR49uuPTT+fePaUvfQD6+OOPsHHTJly8kHdEj4iI1FNppxfT0tKw/999cHVxlU9tfPnlEpw/fw7xYtCKuHoVLVq0wH///YelS78S566+fl1NPZrC98nm2Prjj7hw/jz27tmN4NPBytQ8sddjcfnSJYSHhcvzSPOHXwkTg8FVZY6q17FTZyQnJyM0NFRpKUzakSbdSpKPaBQdbty4Ie5gTeHq6oojRw4rv6EuqSO6tOyKW2bSN1nPnj2DY8ePoHFjDwwbNlwMPZYIuRyCO3fuKHOpS+pndvDgAWRlZ4lDNnb8uR3//PO3MhXyaUepnk1MjOXakPqqXRfrpKDmzZvD0akeoqOjlBb1+fj4wMzMDPv370enTh0RFBQkn+KXNGrUCJ6envLyv3D+gtxGRETqqbTTi9KpROlIV5OmTfHpnNnyxj7fKf9TmDdvLlq3boN33n0P+voGypTqkZGRIR+BkYYz4s5fIh2da9GyFRwcHORxqT1/Hmn+R410uQBdPT1lTDvduH4DX3y+GPPnz0PDJxph0eLP0bpNW2WquqysrOQjnGmpaYi6FikGl9ro2KFToUH6QkNUZBRuJd+CnnIaUiL1VZw4cQref3+CXEfVqYGbG65cuSKH77S09Lv1LHFzqy+HWqmTPU8xEhGpr1JCV506dTBt+kxIpylnzZyO8KvhypR7pFNzsz+ZCRcXF3EHNUk+1aEtOnfpgoWLlmDk6//DZ58trPb+XI+bs2fPYsrkifj77514841RqIrrxpXGSqxfab0PGTocAwYOLHN48cUhcp+0J554Aq+9OlK+1ERW1h3cjFP/m4IWlhawtMgbpODo4uqC0JC8zvPRUVHy6cZ8bm4NcPjwERgbGaGph8fd35MGIiKqepUSut57/wM4OTrJn/i/+GKp3Jn7jTdHKVMh/yy1LRB3VNKRAOnikv8b+YYytXpJ/YteGfGa3MH7rbfexIIFn8n9jQrurEgtAjTiP7W5N2ggHxkcN+4tjH//3TKHd94ei/SMNHz88WQ0atwYCxfOx+LFC5F6+/4vPlSl9u3bY8IHH+CDCXnD+PHvy6cOw6+GydOjoqPE92VeHZubm8vX75IC7rmz5/DSkJfu/p40sN6JiKpepYSuFcuWYu7cOfh69Sq5/8jNG9exc8cOZSrw919/ISE+Xr6o57KlX8rzbtj4vTK1etnWtZW//n/s2FF5XLrgZWpqCndCKmoqnZKe+5ncsX7FquXqX9BTo1Phq7cbG5vK16KbPPljuWaqw/Hjx7F40eLCw+IlyMjIW35RUVGwd7CXTyW6ubnJV9CX+vv9+NNPhX5n3rzP5HmJiKhqVUroiomNgSDkYsjQoQgLu4LpM6YhMipSmQr5diozZk5DXFwcXnzxJbkDeLzyzcDqFh0TLX8JoG/fp+XTWtKpRhMTU4SFq9dp/nFV17aufJT0448n4fKli5jwwfs46fefMlX73bp1S/6WbnWRgmJiUlKhoWD/w6ioaLmmra2t4dYgr6+X9AUMaSj4O9p8OyMiopqkUkJXt+7d5Y7Ex44dlztFpxRzfSnp6ulz5szG1WtiAJs+S74vnzaQOhavWrVSvjjqmjXf4pWX8041SkfrqGpIp3Sl8D3/s0UwNTHB1KmTsW7dWtxO0e5bGz1qpFAovRcdnRzgVr++GLryTjsSEVH1eOjQJe08pc7E0r0AjYwNMfJ/b8h9uKQLoeaTfpbaXnn1NWSkp8sX7fzoo4nyDYS1QUDAKbz77jhMnz5V7tezb99eZQpVJuk0V6dOnbFwwRL5W4orVy7Dp59+Uu3X6KrJpM703l7N5D5d0pEuIiKqPg8duuLj4nHw0AEEn753iQgXZ1d07tRFGZNuS9JFbpPkCrk4fuIYjhw9jLRqOq1hamKK558fWGjo27effEXy3r373DdNml9t0qULTB/iG57S70qPoS2ki9LOmvUJXn75VezeswsffzxBvm7boyonJwuenl7y6WjpQrXaKjIqWlz27vJRL205pU9E9LiqtCvSFyQFlcaNm8gd5iWTJ0+Vb6+zbdsv8nh1qufsjGFDR4g7yvJ/S066BcymzRtUvfq4dMPrcePeRvjVCORWsJO3jq4uXF2csWzZUvhVUx8p6ZIKe/bsxqlTfnjhxSFo17Ydjh45gh9/2oLExARlLu3g6/skxowZi1mzZyJTuZBoaaQvXkyePE3uh9ZUDF5S5/RNmzZg6JBhOHrsKHbuvPclkurWqHEjjBg+XL6v5C+/bFNaiYioOjx2oetR0qSJhzg0UcYq5vz58/IV1KuLdK2zfv2elm8DFRYeho0bvkNISIgyVbtInc0nTpws3yO0vKQAPnfeHPk2TC8MfgkdOnSUO6j/+OMWrQpdtcxqYeLHH8uBSwpeRERUfaokdPXv/xyee3YAkpKT5HGL2hb47fdfq+0+gFQ98r8sIYW//Pv/aTPpKvRG5bgw652sO/LpuoJcXetj2LAR8Pc/pVWhS9KyZUsEBwerfykOIiIqpEpCl3S1+WY+PtBRuozliv+CAgOL/VYjUU1iVsuM38IkIqJiVUnoIiIiIqLCtPdrV0REREQ1CEMXERERkQoYuoiIiIhUwNBFREREpAKGLiIiIiIVMHQRERERqYChi4iIiEgFDF1EREREKmDoIiIiIlIBQxcRERGRChi6iIiIiFTA0EVERESkAt7wmoqlU/sJGHi8J/7fSKwSXaVVSwk5yE2+iDvnvhD/v6Q0EhERaRce6aJiGTabAR1zD+0PXBLxOUrPVXrORERE2oqhi4iIiEgF8ulF5Weiu/Qtm8Cs+UToWXhAo6PdR7uE3BxkJ53Dbf/PkJV4XmklIiLSLuzTRURERKQCnl4kIiIiUgFDFxEREZEKGLqIiIiIVMDQRURERKQChi4iIiIiFTB0EREREamAoYuIiIhIBQxdRERERCpg6CIiIiJSAUMXERERkQoYuoiIiIhUwNBFREREpAKGLiIiIiIVMHQRERERqYChi4iIiEgFDF1EREREKmDoIiIiIlIBQxcRERGRChi6iIiIiFTA0EVERESkAoYuIiIiIhUwdBERERGpgKGLiIiISAUMXUREREQqYOgiIiIiUgFDFxEREZEKGLqIiIiIVMDQRURERKQCjbOLm2BWu7Yyql3s7O1gZGSEjIwMxMbEKq3aj8+biIiIitI1t7CcaWhoqIxqlxdffAHdu3WDjY0NAgIClFbtx+dNRERERfH0IhEREZEKGLqIiIiIVMDQRURERKQCrenTJXXitraxhoWlxd3Bw6MJzGqZISMzAzdv3iw0zcjYCCkpKcpvVx8+byIiIioPrfn24siRr6N+/frKWNnCwsKwdu06Zaz68HkTERFRefD0IhEREZEKtOZIV/41ogrq168v7O3sERMbgx07/lJa80jXkrK2tkbrVq3w74EDCA0JVaao60GetzZcA+tBn3d2u4XQCV4GnZSryhQiIiIqD6050iXt0MPDwgsNGekZ8jTp/4LtKbdT5Pl1NJq8U2SCIM8nhTC1lfd514oLgWNSCBpkRKK9ZTYcjHLleapLRZa3NEjz5zw5EbmO3ZDV/TsIhlbyvERERFQ+j9zpxWbNmmHcuLFo07YNbt1KltuSk2+ja9cueOedt+HeoIHcpm28zXLQwTLr7jDINhMNjHPhLIav/EGbyYHL/UVkp8ZDx8gcOd2+ZvAiIiKqgEcudGVnZyE+Pg5P9+uHPn17y20DBz2P7t27IyY6BoJGbtJ6xrrAIPtMDHG4N2ir7K7fyIErK+kqDA78DzrRByHUboCcXpvF/92UuYiIiKg0j1zoOnv2HJYuXY4ff/wJtnVt5TYba2t8t/57rFy1qtr6dtVUOZ1XQKjbQvzhDgyPjYdeagR0j0yA5tZlCMa2yO65SZmTiIiISvPI3fDatm5d+dSir68v7mRmwsTUFGmpqdDV04O/vz+OHjuOxIQEed7qUtzzHuqQiXplnEKcf8VY+al6FPe8pSNZOT03QtA1hk70IegenYBc12eQ8+RkSAcVdc6shM65NfK8REREVDKtvuG1dDHOpKSkQhflbNmyJTp27ICzZ89i9+7dcvhas24drKzqwMenGW7euIno6Ghl7upR3PP2MsuBuV5eh/+SHEnUV36qHsU9b01mIjShv0Jw6ADB2geCXXvkug1AdkYKdA++A92rfypzEhERUWkeudOLh48clk8tSoOhUd6RIT1dPWzYsAE///IzTp48KbdR5dFkJkB335vQpF+HYOWB9IRoOXDpxfkpcxAREVFZHr2O9FnZOH36tPyzuXJa1Ny8NgRBQGBAkPw/VT4peOnsG4Wc9EQYBsyDQVKQMoWIiIjKQ6v7dBERERHVFI/ckS4iIiKiRxFDFxEREZEKGLqIiIiIVMDQRURERKQChi4iIiIiFTB0EREREamAoYuIiIhIBQxdRERERCpg6CIiIiJSAUMXERERkQoYuoiIiIhUwNBFREREpAKGLiIiIiIVMHQRERERqYChi4iIiEgFDF1EREREKmDoIiIiIlIBQxcRERGRChi6iIiIiFSgcXZxE8xq11ZGS3c7OVn5iYiIiIgqosKhq7zzEhEREdE9PL1IREREpAKGLiIiIiIVMHQRERERqYChi4iIiEgFDF1EREREKmDoIiIiIlIBQxcRERGRCqr0Ol26unowNjGBgb6+0kI12Z2sLKSnpSEnJ1tpeXCsncrFdUM1DWuaSlKZtVHZqix0WVhYwcrKGhodDbKys5AtLgSqufTEjZW+nj6EXAEJCXFISkpQplQca6dycd1QTcOappJUZm1UhSoJXVIR17G2QVpaKm7ejBWLWPvSJlU+PX092NjYwcTEFPFxNx+o2Fk7VYPrhmoa1jSVpDJqo6pUep8u6TCtVR1ruYhjoiNZxI8RaV1L61xa91INSLVQEaydqsN1QzUNa5pK8rC1UZUqPXSZmJhAo9GInxquKy30uJHWvVQDUi1UBGun6nHdUE3DmqaSPGhtVKVKD116evo8L/6Yk9a9VANSLVQEa6fqcd1QTcOappI8aG1UpUoPXWKoZBGTXANSLVQEa0cdXDdU07CmqSQPUhtVidfpIiIiIlIBQxcRERGRChi6iIiIiFTA0EVERESkAoYuIqJHnMbYHGa6gjJGRNqq0q9Ib2VVB0bGJoiOuqa0VA5jl+4Y8kJneLjVh0OtNESHXsG5w1vxw+5QpGvTVxPKYP/MVIw3/xUfbjyrtORpPHQ+3m7khwXTt+Kq+Hrk8fa1lKlATnoiYq5F4Or5w/hz11kko/BrludvHYdfZy/Anvj7l4fPq1/gDftdmDF3B+LEx9dYNMVzrw3HU971YambjNiLR7F17SYcja2cb/M4ONZDRnoaEhLilZayVVXtFFV02QpZaYiPjUKo33b8vCcEaY9QPT0IbVo3Ju69Mfz59mjSoD7sTDNwMzIMgbu24Md9IUgtUuNVxazL+5g72A0XN3+EZUfSldY8gmCOnh/NRc+YFfJ7tuh4WdTYbglCU4z9bj56xX2L/33wM25qWf0aO3fGsFcHoGVDO9TKjEN40C5sWP8HLtxWZqgE2lDTRbcrBV3/ex5mb4+E++A5eL/5OXwxcRMuF1hPgvsLmPd+Z+gfX4kPN5xRWvM4PTMNk7pEYtUH63C6mPdE0X1HQYLggOdmTEHH8NWY8H2w0vrgBMEQXd5dgudT1+Ldtf5Kq3Z7kNqoSlp/pEsQP7w5dJuALxa/j171cxHhtwO//HkCEbnO6PXOIrF4e8FJo92f8ATBGM169kZDUwGCiTVsautCMHBE575tYCO9QJGplROcHa1gII8p41bpOH/kCI6Iw8mLYsFYe6Pv2M+wcsEotKlT+DVL87s06II3xveHrfKYBZna1IOznQWk6/IKOvUxZOYneNUbCP7za3z943HcdOyHSXPfgq+Rdi/LylB02R4PuIx4PTf0fudzrPigA2oVs/yqmuA8FEu3fYPXG9X85S8RBA2cn5qELxeMQzeXLFw59gd++u1fXEh1RK93v8DyyT1gg4otiwdZhoJggW69uqK+ixu69exczLrXhbmtCxyt8y+uWHS8eFW13Sr+NUbgyI6/sfMff2jXXebE51u3N6Yu/AAdjc/j7/WrsO73U8j0fhXz5oxAA52Kv35tVnS7UnA4dTVFnics+jZsPduhhaM8epdDi/bwdnFF446t0aBADQpCbTRv1wpOqTEILWFxFd13FKYPC3sX1CujXstPB7XE+q9nbaqMl8/jtn0rjfafXqzTG2Pe6gyd4wvx7rgZ+GrdFvzy4zp8OesdvLvgMDTtRuGtvnWVmbWUrh3qtXgWs1YuxpDGJtCr1xszly/GK+0bwL6090LqJfyzaRM2b96M77/5HPOmjcPoD9fgss0zeH9cL1gW2UEImRnQ9XwV459zgqa04NCoJ3o2uIN9K6Zi1S/7sH/HOnw6cyuu2HRBj+aPyRnnAst243df46s57+Dt5QEw6foqBror86hKF/r6+tDVroMUVce6L94a1Q7Ckfl47+1ZWLr+J/z680Ysnz0Gb39+FGgzDh8+Z6/MXF4PsAxtu6OLRxqO7DmOXJ+u6GKptD+sKttu3f8aNZrbCNq6DKt2hyFHy45yNX3uRXin7MT8Kavw695/sXf7t5g1ZTPCXZ/DgFY1cFtTYLtScNgRnCRPzvb3x9lcF3j6msvjEkEwQXOv+shKvo1Mey/42igTJHo+8GqowcXAU4/4EfjHbPtWCq2ueik3+Lw0FM0yD2Ltsn8Rm3tvjWk0OYg5tALrDqTBe8hwPCl+apI+tfadshZfvuatzJVHcB6IuWsW4AXXe0HE2LUXxsxYhNUbtmDTN19h5pvd4GqcNz3/cRYMFQv+hclY9M0WbJvcDbrNR2H5mrl4vl6RsGP3LD5ZsxJjWxf/WUOTG4btn47B+PUJaNbcAeaezWH8z1SMnrwRwekVq8KUS39g4brDyG0xAsN8itxPKnEPvt0Wi8YjPsBAl1JWbfjPmPbWu1h7qsC9xnKykQ0N9A205x5Vaos7eAyXYA83d2OlpfQ6kQg6tmg7fCIWrf4eW7Zsxtovp+PlVtbK1HtKexzngZ9i7ex+sIMVekxahzVrpqKnReEaq0mk93WLIS/BM+MA1i4/WOR9DVzfvxwbDyfCtkU72BX48FAVy9ClRxe4p/yHv1ftgV+GB7p0t1OmPLgH3W4tGNoELt3exvxVG7B54xp8PnsceroaKb9Z8mssabuXv7xWfb8FG8QPfDPH9IZbgSPZ9/6uB9x6jcOsz9di86ZvsXTmG2hvp6vMlae8dV6QdDQz68ph/Lp5F87nKI2S61dwNc0QNrb3gsdjI+0kgi9r0MjLB7r5ta3bAt6NdHBx2xYEZ7nB68kCn8Q9veFheA2nT95QGh5OeWstX23PwZgwbxnWb96C9ctm4/XW1ved4BRgDq8B72Hu8u/ww9at2Lz2C0wa0ebukeqy3ptlbWNrGi3/qGELj0ZWSD6+F8cz7g8nGk0Gju09jmRzdzRykFp0YGJpCxtzQ3n6XXpmsLatg1pKntB1H4oFi0bBJ/sMfl+zHGv+CIZu23excNqzqCu/EfIex7XbWLzVMg2nfv8Wq3ZeRHZQEMJreaNH5/p5D6Rw6fYUfMwjERyYqbQUJui4ou9HX2HJ63VxPjgGyeeCkdNvDpbNHArPByiulIO7cCzZEg09iu4gcnBpwyL8HFkfQ8cPQf0SDt9r0uNxLfI6UpSdgfRGbDusN9xzLiAo4I7c9liqVQumyL17leqy6kTaqXi+PgcTn7bDtb0b8eUXa7E7whrPfPghnimwasp6nDi/n8WwHIgkpOLs9nX4dt0fOJ13NqKGssMT7pa4dWwvThT7vk7GngWv45Wp2xCrfLqvimUoCPXRo1N9JB7dj6D0/3DgRCoadekBp/yd4QN7sO2Wc+tRmPiSFc7+sQYr1+3AJf02GLdoHgY5y79Wymu8f7un23C4uLzGooXORfy9fjnW/3UOmhZjsHDxa2h0d7uQ93suHd7CmA53cPK3dVi9+QhSGvTHh5NegLOy0yxvnRel0Qi4vGct1u0NhVDgKI1ekxbwrJWAK5fyjv48TjSaRJwMvApDz2bwUNrg5Q1Pw3AEHt6LgItAE+/mdwOZu48nascH4eRVebQSlK/WJAbNRmHJp8PQMMUPP61egY17Y+AxeiL6FljngqCHpq9/hjmvis/53D/YsGwZfjwSD9fnJmLaUDd5ntLem2Xvi2seLQ9drnCyB6JjIpTxYkREIwb2cHS+f+NWHEGog74jB6FOwFJMmPMt/jpwCPu3r8H0GVsQ23QYhrW+t0iMc/3w+cef44c//8GugCgg2w/7jiahXoeuqK8UhCDUQ5cOrrgt7kCOZshN98u5gRvnduPTse/juzOpyLr6Jya/NRFbg6MQl6bMUyERiIkFHBzqKeMF5FzB5iWbcdXpRYwf1ujep6kSCDr26PHRQkzsImDP/EX46/HbDsp0LZpgwNhn4J4ZjBN+2eWsk3p4srk9bh/6Dl/+JAZhcSf7w6LZmLvqb4Rk5R0pKM/jpEUE4HBgFDKQiZgzh3HkaDBisstXz48mFziJYSMmtnwdmKtqGep4PIVOjgk4uj8AuZoc+P17FMmuXdC9gTLDA3uw7Zapczb+mTIT3/91AIf2/YoVU6Zh2w13DB7eBSbi+7i8r1EQrPH068/DMWQ9Js34Gr/tO4S929di5sS1CLV/DiP7F05KJobnsG7Gamw/cAQHdqzBJ2uOIcutLdrcPftZdp2Xl2Dkgdff6QezwC349VwN3KmaeeL50aMxetSoe8MbPe7uLyTh/sGIN28KX5e8cTlYxQbiZEwy/AKvwFgMZI3FdkGwhI+XE1KDAiBmsUpVVq0Jgh2efbkfLIK/xqQ568X33EHs+XUlJi4IgkGhs+K6SAjcjg1fzMDkZZvE+Q7gt7WfYbNfFuo3fxJ1SqnbiuyLaxLtflUaPeiK7+mcO6V8oy47B7kwgKlJOU+L6XrBV/yIcT4gFOb16qGek5M8OOWG4XKcKVwbyB89ZekXg3G5yKkB/z2HEO/YHl0bKo3iRrpdvUQc3etXYn8KjSYNp3b8gbO3BOhl3EJSai40GeHY/evBu5/kKyZbetnQ0dMvtu9W9tWtWLLxIuwHjccrHsWf8pQIgi6ajZqLd1vfwT9zP8bSY/GFPpHWaDa9MHvTZmzauAmbt2zDtg0L8VrjZPzzxRfYnSxOL1ed3MS1yDSYtx+BsU+3gouZrriu4xCwdz/OxyvnUypQb48NjT70xLdr0fe17bNz5PVxb5iC7tLpsCpYhtLRG59uHVHnxmHsO5v3Hsr234djCfbo3KOpPP7AyrPdEqdlQw/6BgVCy9n9+KfAWSSpW8Lf+0Ng0sQTFcqB4vJq5qGHwF1/4nqBk0G51//C7iAdNGrmDb0C2407F87gXIHtXOrFMMTCBnXvdqkrR52Xg6DjiH6TpuIZ0xNY/vkO3KiJ2xpdM9g5u6BewcHJBoW67p73x+lUJzT1rSPWoRV8xWCVFHgKIeLyiDkZiFgrsd6lQGbUHF7uWTgdGCh+KKjkZVVWrel5oKk74L/3HyQU+NvZ53fhcKQyItJoMhHr/xd+3h+GbF1jWDk2gFerTmhgLtaFnfihQpmvWI/ptlG7Q5dwDdHXxXXn4KQ0FMPNGU5IQUJCOS91IBaCjY4BWo9ZiZWrVhcYpqGnrUacfO/oUXbO/RuU3LN7cSjWDu26NpHHG3btCEdxw707sED/qFJE/j4D731X+CvBFecIe1vgetS1YkOS1BTx62KsP2OFZ98fCU/D+4NZnoZo18oGd078gFV+iUrbYyL1Anb98AM2i8Om3/wRJ0b3K9vmYdnhuLxlWo460WjSsW/Fp9h8Rh/tRk7Hsk1b8Z34iW9U74byp0VZBertsSFEICr2/vd18um/sHHjBnn4JSgVtc30AeltXRXLULclure3RG6uK/p/8AE+GD8eE8b3Qr3sXNh07A7vh/lGdHm2W84OsBMjUVTEve1GWkL8fZeRuBEnfhCysIFdRbpa2tmJyysJN2ILd3fQaLIQcz0ROrb2KLg7y8wqcog+Jxs5YljTKHuHctV5GaSjNp3Gz8aoxtH4ftYCHEy4f7tVIyQdw4rJkzBlyuR7w4wfcLbges0NROCZO2jo7QMDYzFYNcxEcIByOYeQkwhKqgcvHyvoejdDE80FBJws6RRKAeLDF79ExfWo/FRQmbVmZwtrsYYSbhTdr11HXJFdhUH9pzB29gps/vlnfLdyMaaNHQhPC2ViaR7TbaOWH7+LQvjVTNTxbQN3pR+CYOyL4ZNn4d3eztARP626+3jA7M5ZnC5wyRzd/K1FPiPDe1+nTUxEMjJxYP4gDB50//DqV37KjMXTaEKw58BV2LbrgiZwR+f2Dog8sBsXixRwVdJr2hFPWmUg7ErJp2c0muvYvuQbBNbuh/f+9yTudQ0vSEBcyCnsPnHu8TnClS/tKg7/uR07dvyJP3/4EptPpMF9wCvoYKLsRMpZJ5qkIPww922MGPIqxs9agd1RNug29jNM7KN0Mn7IequZonD1Wt77umGBfofpV45i599/y0NoqpG4fb+GcGmbXwXL0Lh9V7Q2S0RYRBoMjExgKA/GuBURjmSL9ujesiIpp6j7t1sFSUfZGrbyRZ07VxFe4AyksVntQkegJBa1a0OTegsJ5ftMlychEbeEWjCzuP89bWFWS1yeCeKHjIops85LIV0yx+fNT/Bem3T89sl0/HylIi+m5pHC78nAC9Br4gPf5mKwEs4iwD9/mZxHQHAaGjbzRVNvD5iEBcNfOvJeivikW4C5pRiSlIZC6sLaCriVVPgaVWXWmlRDMENty6I1ZCXWkPKjSEAzvDn7XbQ3CsLGee/ilUHP4cVXx2DRgXJ0/H9Mt41aHbqk03mHt/6Ga/b98Mag+jCQiiQtAHv8ddB29CSM7PMK3nnOEeF//IRD8ocBsWASc2Hi5CyfS5ZIGzgXn6aoI4+J0i4jNMYQTbwaISs9DekZ6fKQdscKHi2fgKVBrjJjycJ3/4vQOu3QZUA3tLcNw797QpUpVU/H0hf/G9UHVpe34oejpW+8NPG78eXqEzDp9S5eanL/TkSjuYifP52B1Qe17eo+6pK+cr/vu99wxbQ9RrzUOK8fXDnqRNCxQINWXdDMVvzwmhGHy6f2YMOCxfg7yhAe4u/JKlRvutCrWBeZR1Le+3o7osT39ZsvuOW9rwvQ2PbHkK5WiA/0R7jUUMnLUAoBHbq2glHoX5g/+xPMnTvn7vDpzMXYFVkLbbu2u+95lVex260CDF2exxtPOyFy+084XOAAvaZpK7QvcB5KOjrUoU1D5IaFIkxpy1PGa0y/iJAoA/i2a1vobwsGrdHGxxAxoRcrdPmBctV5CQRBHw0Hz8bkfgbYv2Aqvj3zQJ1Ya5wkvyCEmXlhYH9vGF3wh59yTV65C4v/Gbm/4VAfO0QH+ZXZBSXiYgjSDH3RQ3zPFGXRpQeam2Ti8oUrSkueMmstLQRhsfrwaVu4hmDfDi0KdLZH3UZoaJGCYz+swk6/UCTckR7LAA3qFXc5lCJ1Wwn74keRlh/pAnJCf8TKbVFwG7EYX3w0HH06+sI6+gBOXHfEs+MGwzF0IxZuuIBssTClgj1z+iyynhiIiWIwaeHdHN2GTsH4DiZIVR5PownF1k3HYNzrfUwd0h4NbCxg7eqLZz6YiekT3kYf53Isktg9OHDeAk+N6IM6F//FniilvbIZ1oVHq1Zo2bI1OvZ4FkP+9zGWLJ+NXmZBWLfsZ0SWcEC5oPh9X2HVYR3Y1b0/dAkWnTFh9TosGtoEOg+4g6kpciN+wfo98XDoOxJ9xO1F+erEFX3HTsC0D0eirbs1zKzc0OrpAWhteweXzl+WH7fc9XY9CrG5lvDp2w8tvZ3vuwZbTZN9eQtWb49B/WGL8OWkl9G3U3N4erVG94FvY8nnb8AjZR+Wf+sv95Os9GVYuzO6NjfEpcP7EFNkh6bRXMX+Q+EwbtkN4mbjgRXdbvXu4AvPZh3Re+iH+GLxa2hwYztWbblYqB9o9p1GGDp1BNq62cDKrhF6jJ6BEZ63sXfrznv9asrxGjWaMPzywxGg4zjMGNEBDetawta9LUZMfxuddI5j89ZLypzlVXadF0f6wOvQcyJmvtxQ3A5tg5/QUNyWtbw3uN8fEh4bsScRFGuDpp7WCBOD1a0CdZB2KhCXTLzg6ZqM0/4hSmvJcv77HutOAS3HLMT04T3QsokbGjR5Ej3Efd+Cce2gG/wtvj9S+AN6WbUmndHZ9os/DDqOwZShbeFmbQm7xt3w9sSnYFXwTgJx4biWUgvNevZHM2dzmFg4o9XgSXi5dZHLTxRTt5WyL34E6ZpbWM40NCxyiYUS3MnMRFnzGhubQE9fH7dvl3FMtJykIHU9cDeOR5vDq1N39OzVF716tIZjbixuZphCN/YItu8Tk75StCmXLyLRvjm6PtUTT3VpgXrCKaz9/hq8u7sg8p/fEZCgQWb4fzh50wFdXhyKoS8OxoB+3eFVKxK7V83DWr8k5MIETXsNQJPkA/jleLT8uAVJX/mO1vPA823scXbrEvwZUvylIirCodVAdLG7in/+OCUXvTTe1ashnuzSBZ07d0JrLxdYGWQg8sSPWPLZWvx3s/DGtujv55M6OoYHRsOxaye4Zp7G9p2nkZI/vbY3+g9qD9vrJ7D9v6hK7axpVtsc2dlZSE8vfFuV0lR27ZSkuGWl0eQi5nIGmj7TDx2sw7HzyDWklFEnAq7jzIVMuHV6Fi8OHozBz/dFZ69aCN+xFJ9vuXC3JsuqN/nUbnYEIlLqo7O4M+vX0xMZh3bgdHLlrY+CtGHdaDTZiDm1W/zwZAmv9l3xVM8+6P1UF7RqbInEk5sxf863CEq99/orcxla934DbzRPwO9fbsOFYq6Tl3SjFtoM6AWHmzuxL0SnyLbAuNRtQ75it1vd28PH2QBRh9ZgzqdbcelO/t/Oe8yGF1Zi5c1ueO+d1/DSc73RyiEZB1d8ghVH4u+9N4t9jfdvrzLD/eAf54BOg4dhyAuD0L9XO7ikHcfqT77Evhv5fVVLeC2mTdHnWQ8k7v8Z/8WKO2Ahtlx1fj8b9Ht7LFpb68K8QWt0FrdlXQoMnS3D8MPBwsfwHpQ21HRJ2+DiSJeOgHNfdHW/hX/XbZD3S3elJ6Nu2/7wMv4PW5cfxjUxvJZG+qJWyPH/EGvaBF2f7o++YrDp07MrWj1hjGt7vsb8pTsRefdbruWvtbTLfjib/QR6DX4JgwcPwjPdGiFl+2fYqdMLT+YcwY9HIsTaiML5ayZo3X8oXhg4GIMG9EFzo6PYeNgYbRokYt+2E7heynuzXO/rh/QgtVGVHpl7L+bTNbaGjUkqbsSlQeM2BIsWDkb2jxMw8acrhT41agzMUEtzG7dLyUPSt/dMbRxgLd178EYS7pRR3AXV6j4D372lg5UjpmNPBS9wqk00OrrQkTrOVkJxF6TN916sqLLqRLpWjZmNPeoYZ+Bm1A2kFfgmWEHlqTeNbi1YWQC34m7LR2+rgjauGx0jK9jWzsbNG7fki/SWRFuWYUXlb7duitutou816Rtsgxd/j+cjZ2HoF37QM7WFg3kmYqITkVVS9+hyvkZpeZnZ2qNWWgxiU8r/TcPilLfOq0NN2t48DEFjACsHJ1hpEhAVlYiM+7ZVFa81QWMMG8c6EOJiEJ9RfA0JYj3aO9vBNPMmrkYllViTJdXtw+yLy8J7Lz6knPQ4xMany2k8J2wLJo8cjYX7ritT7xHulB64JNKn0bS4a4i4fqvcK1mjow8DC2+MGPgkMo7txMFHvIuCkJtT6YGrpimrTqSjNini9KvXbpa6IypPvQk5KYiPT9GasKCW3IwExNxILjVwSR7VZZi/3SrPey079ToiopNK3AlKyvsapeWVciPyoQOXpLx1TtVHI9xBYtQVhEYm3Re4ilOeWtMI6YiLjCwxcEk0Yj3GhoUgNFr80FRKTZZUtw+yL35UPfInTdNv3cSN+Ps/PVYFQTBCj2lbsW3jPPQyPIKv1x/DHRX+LhERET36tL5Pl3bRRXpCOM4d/Q3r1/6GcykMXCXR5j5djzuuG22TjdT4SFw+ex4R8eW4JhPdhzVdXo9frWlbn66a+fWAKiJ1So85fQSH/7uAG3c7wRIRPTjpuk0R/v/i0KXH7ALFpDrWWvVj6CIiIiJSAUMXERERkQoqPXRJ1+qTzpPT402qgYpe35O1ow6uG6ppWNNUkgepjapU6aFL6rCmr6fPYn6MSeteqgGpFiqCtVP1uG6opmFNU0ketDaqUqWHrrS0NDFVCrCxsVVa6HEjrXupBqRaqAjWTtXjuqGahjVNJXnQ2qhKlX7JCEHIlV+kubkFjIyMkZGRhtzcmnnjSipMT18PtnYOMDExRUJ8HNLT8+94WT6snarDdUM1DWuaSvKwtVGVKv02QPksLKxgZWUNjY4GWdlZyM7SnsN7VPnyD+MKuQISEuKQlJSgTKk41k7l4rqhmoY1TSWpzNqoClUWuiS6unowNjGBgbgQqOa7I26s0tPSkJNT+I72D4K1U7m4bqimYU1TSSqzNipblYYuIiIiIsrD63QRERERqYChi4iIiEgFDF1EREREKmDoIiIiIlIBQxcRERGRChi6iIiIiFTA0EVERESkAoYuIiIiIhUwdBERERGpgKGLiIiISAW89yI9EG2+txUREZE2qrLQxTu311zafhd3IiIibVQloUsKXHWsbZCWloqbN2PFwMWjITWNnr4ebGzsYGJiivi4mwxeREREZaj0Pl3SKUWrOtZy4IqJjmTgqqGk9SqtX2k9S+tbWu9ERERUskoPXSYmJtBoNLh587rSQjWZtJ6l9S2tdyIiIipZpYcuPT199uF6jEjrWVrf0nonIiKiklV66NJo8nbE9PiQ1re03omIiKhkvE4XERERkQoYuoiIiIhUwNBFREREpAKGLiIiIiIVMHQRERERqUDrQ1fjofOxfNYguAiC0nKPIDhhwIzlmD+0sdJSNkEwx1MfLsfC4U2LHX8Y7oPnYPm8oWhY5LkK7i9g7nLxb4zwVFrucXpmGpYvfg1euP/1VUR5X4cgGKLzO8vx5cjmSgsRERGpQetDl6mVE5wdrWCgjBdmAEtHFzhZVeTCnLowt3WBo3X+7xQdf3Bh0bdh69kOLRyVBoVDi/bwdnFF446t0aBAIBOE2mjerhWcUmMQ+nCZS1Te16GDWuJ89axNlXEiIiJSA08vVqJsf3+czXWBp6+50iIFKxM096qPrOTbyLT3gq+NMkGi5wOvhhpcDDyFNF7oioiIqEarkaHL2LUXxsxYhNUbtmDTN19h5pvd4GpcsUNJ+Y+x6vst2LByMWaO6Q03ozIeI+0kgi9r0MjLB7r5R7R0W8C7kQ4ubtuC4Cw3eD1Z4EiUpzc8DK/h9MkbSkPZf1cQLNB3ylosGCoGthcmY9E3W7Btcjdl6v1qew7GhHnLsH7zFqxfNhuvt7YG4x0REZH6alzo0nUfigWLRsEn+wx+X7Mca/4Ihm7bd7Fw2rOoW0y/sOLoNhwuPsZYtNC5iL/XL8f6v85B02IMFi5+DY10Sn4MjSYRJwOvwtCzGTyUNnh5w9MwHIGH9yLgItDEu/ndQObu44na8UE4eVUeLeff1YGJpS1cu43FWy3TcOr3b7Fqp/jAxTBoNgpLPh2Ghil++Gn1CmzcGwOP0RPR106ZgYiIiFTzaIQuM088P3o0Ro8aVWh4a/QgeNdW5hEJQh30HTkIdQKWYsKcb/HXgUPYv30Nps/YgtimwzCsddkvVxCs8fTrz8MxZD0mzfgav+07hL3b12LmxLUItX8OI/uXnljC/YMRb94Uvi5543Kwig3EyZhk+AVegbEYyKRu/4JgCR8vJ6QGBUCKTBX9u8a5fvj848/xw5//YFdAlNJ6jyDY4dmX+8Ei+GtMmrNeXBYHsefXlZi4IAgGdZWZiIiISDWPRujSNYOdswvq3TfYobaeMo9E1wu+HsD5gFCY16uHek5O8uCUG4bLcaZwbeCgzFgK8TGaeeghcNefuF7gRFzu9b+wO0gHjZp5Q6+0I2bn/XE61QlNfeuIwccKvmKwSgo8hRCNBjEnAxFrJT5HKZAZNYeXexZOBwYiV+rPVcG/m34xGJdzSzlRqOeBpu6A/95/kFCgv1j2+V04HKmMEBERkWoejdCVdAwrJk/ClCmTCw2TJy/D4QRlHomdPWx0DNB6zEqsXLW6wDANPW014uR6yoylsLMTHyMJN2IzlYY8Gk0WYq4nQsfWHqVGt9xABJ65g4bePjAwFoNVw0wEBwTnTQs5iaCkevDysYKudzM00VxAwMmMvGkV/LvZOTnKTyWws4W1+HgJN7KVhnzXEZeo/EhERESqqVl9uhITkYxMHJg/CIMH3T+8+pWfMmMpEhJxS6gFM4v7jyJZmNUS/0YC4pTx4kgh6WTgBeg18YFvczFYCWcR4J8ffM4jIDgNDZv5oqm3B0zCguGfrEx6yL97H+nxYIbalkUfz0p8POVHIiIiUk3NCl1plxEaY4gmXo2QlZ6G9Ix0eUi7YwWPlk/A0iBXmbEU6RcREmUA33ZtYVDgdJ5g0BptfAwRE3qxzMs7JPkFIczMCwP7e8Pogj/80vPaNZoc+PufgY7HUxjqY4foID/E5j9WJfzdQtJCEBarD5+2hR8P9u3Qwln5mYiIiFRTo0KXRhOKrZuOwbjX+5g6pD0a2FjA2tUXz3wwE9MnvI0+zmW/XI0mDL/8cAToOA4zRnRAw7qWsHVvixHT30YnnePYvPWSMmcpYk8iKNYGTT2tESYGq1sFwlLaqUBcMvGCp2syTvuHKK2V9HcL0GhCsO0Xfxh0HIMpQ9vCzdoSdo274e2JT8HqtjITERERqaZmHekSJf+7CBO/OgXzpyfgi3UbsX7ZHLzW9Bb++XwG1p8v2r+peMkHlmDyUj+Y9vkQS9ZuwJolH6OvmT+WTlyEf2+XfbRJCn8BgUkQhFgE+RXptZ7oh8Bw8f+MIPifLtwh/2H/blHxOxdg+oZLcHx+Mr5avxHffPYqbA8twg/FX2GCiIiIqpDG2cVNMKtd4LoLpbidnIyy5rWyqgMjYxNER11TWqqHIOjC1MYB1rrJiL2RhDtCxUOL9BhmtvaolRaD2JQyOq5Xosr+u4LGGDaOdSDExSA+o/Jfh4NjPWSkpyEhIV5pISIioqJq3JGufFL/qbS4a4i4fuuBApdEeoyUG5GqBi5JZf9djZCOuMjIKglcREREVD41NnQRERERaROGLiIiIiIVMHQRERERqYChi4iIiEgFDF1EREREKqj00CVd/FxPX18Zo8eBtL4LXvSeiIiI7lfpoSs7Owv6evoMXo8JaT1L61ta70RERFSySg9daWlpEAQBNja2SgvVZNJ6lta3tN6JiIioZJUeunJyspEQHwcTE1PYOzhBT19PmUI1ibRepfUrrWdpfUvrnYiIiEpW6bcBymdhYQUrK2todDTIys5CdhZPP9UU+acUhVwBCQlxSEpKUKYQERFRSaosdEl0dfVgbGICA/bvqnHuiCE6PS2NR7iIiIjKqUpDFxERERHl4XW6iIiIiFTA0EVERESkAoYuIiIiIhUwdBERERGpgKGLiIiISAUMXUREREQqYOgiIiIiUgFDFxEREZEKGLqIiIiIVMDQRURERKQChi4iIiIiFTB0EREREamAoYuIiIhIBQxdRERERCpg6CIiIiJSAUMXERERkQoYuoiIiIhUwNBFREREpAKGLiIiIiIVMHQRERERqYChi4iIiEgFDF1EREREKmDoIiIiIlIBQxcRERGRChi6iIiIiFTA0EVERESkAoYuIiIiIhUwdBERERGpgKGLiIiISAUMXUREREQqYOgiIiIiUgFDFxEREZEKGLqIiIiIVMDQRURERKQChi4iIiIiFTB0EREREamAoYuIiIhIBQxdRERERCpg6CIiIiJSAUMXERERkQoYuoiIiIhUwNBFREREpAKGLiIiIiIVMHQRERERqYChi4iIiEgFDF1EREREKmDoIiIiIlIBQxcRERGRChi6iIiIiFTA0EVERESkAoYuIiIiIhUwdBERERGpgKGLiIiISAUMXUREREQqYOgiIiIiUgFDFxEREZEKGLqIiIiIVMDQRURERKQChi4iIiIiFTB0EREREamAoYuIiIhIBQxdRERERCpg6CIiIiJSAUMXERERkQoYuoiIiIhUwNBFREREpAKGLiIiIiIVMHQRERERqYChi4iIiEgFDF1EREREKmDoIiIiIlIBQxcRERGRChi6iIiIiFTA0EVERESkAoYuIiIiIhUwdBERERGpgKGLiIiIqMoB/wfaww0FT87P8wAAAABJRU5ErkJggg==;" vertex="1" parent="1">
          <mxGeometry x="880" y="450" width="605" height="295" as="geometry" />
        </mxCell>
        <mxCell id="VvEqJUZFeUBTitguZSoA-1" value="" style="rounded=1;whiteSpace=wrap;html=1;shadow=0;sketch=0;fontFamily=Helvetica;fontSize=20;fontColor=#EA5B0C;strokeColor=none;strokeWidth=1;fillColor=#EA5B0C;opacity=50;gradientColor=#FBDECE;gradientDirection=east;" vertex="1" parent="1">
          <mxGeometry x="1011" y="452" width="52" height="65" as="geometry" />
        </mxCell>
        <mxCell id="ssSiOHs1pKgMeDKt4TUY-1" value="1" style="ellipse;whiteSpace=wrap;html=1;aspect=fixed;gradientColor=#fbdece;strokeColor=none;fontColor=#f7f7f7;fontStyle=1;fontSize=20;fillColor=#EA5B0C;gradientDirection=north;" vertex="1" parent="1">
          <mxGeometry x="935" y="660" width="62" height="62" as="geometry" />
        </mxCell>
      </root>
    </mxGraphModel>
  </diagram>
</mxfile>
